<?xml version="1.0" standalone="no"?>
<!DOCTYPE svg PUBLIC "-//W3C//DTD SVG 1.1//EN" "http://www.w3.org/Graphics/SVG/1.1/DTD/svg11.dtd" >
<svg>
<metadata>
Created by FontForge 20120731 at Sat Feb 15 14:08:49 2014
 By World Wide Web Server
http://www.heumm.com
Tel : 02 - 3425 - 0700
Designed by , 
Copyright 2010 (c) Heumm . All rights reserved.
</metadata>
<defs>
<font id="HUFace13" horiz-adv-x="819" >
  <font-face 
    font-family="HUFace132"
    font-weight="400"
    font-stretch="normal"
    units-per-em="1024"
    panose-1="2 2 6 3 2 1 1 2 1 1"
    ascent="879"
    descent="-145"
    x-height="380"
    cap-height="664"
    bbox="-1.03636 -120.891 922 859.512"
    underline-thickness="25"
    underline-position="-133"
    unicode-range="U+0020-FFE6"
  />
<missing-glyph horiz-adv-x="1024" 
d="M102 -43v820h820v-820h-820zM154 9h716v716h-716v-716z" />
    <glyph glyph-name=".notdef" horiz-adv-x="1024" 
d="M102 -43v820h820v-820h-820zM154 9h716v716h-716v-716z" />
    <glyph glyph-name="glyph1" horiz-adv-x="0" 
 />
    <glyph glyph-name="glyph2" horiz-adv-x="1024" 
 />
    <glyph glyph-name="space" unicode=" " horiz-adv-x="320" 
d="M0 0z" />
    <glyph glyph-name="exclam" unicode="!" horiz-adv-x="268" 
d="M182 657q-7 -52 -10 -118.5t-9 -276.5q-3 -9 -13.5 -16.5t-15.5 -7.5q-10 0 -15 30v63q0 40 2.5 116t9.5 191q2 42 26 42q27 -1 25 -23zM165 118q0 -7 -1 -15.5t-4 -14.5t-10 -10t-20 -4q-14 0 -23 12t-9 24q0 13 7.5 25.5t20.5 12.5q33 0 39 -30z" />
    <glyph glyph-name="quotedbl" unicode="&#x22;" horiz-adv-x="304" 
d="M221 656q0 -15 -3 -24q-4 -10 -17 -10h-2q-8 0 -13 17q-7 23 -9 45.5t2 60.5q3 26 13 33q8 4 14 -9q15 -30 15 -113zM113 679q0 -22 -7 -53q-3 -3 -17 0q-9 0 -18 36q-4 26 -4 47v10q0 55 15 57q14 2 16 -2q15 -53 15 -95z" />
    <glyph glyph-name="numbersign" unicode="#" horiz-adv-x="560" 
d="M525 303q0 -12 -4 -13q-27 -4 -70 -8h-88q-10 -76 -25 -131q-1 -1 -11 -1q-15 0 -17 13q-3 13 6 117q-55 6 -117 6q-10 -62 -10 -86q-1 -2 -16 -2q-22 0 -22 28l5 60q-35 0 -74 4q-25 3 -34 18q-1 1 -1 11q0 7 2 8q5 5 112 0q18 138 30 198q-44 -7 -69 -5t-69 2
q-15 3 -23 9q1 -2 1 13q0 10 -2 9q72 11 160 6q10 93 30 158q0 -5 -5 -5q11 3 17 -1t6 -15q0 -65 -5 -142q45 6 117 1q10 73 14 89q4 36 19 77q-1 -1 8 -1q15 0 16 -2q10 -25 -11 -164q109 -13 122 -29q2 -2 4.5 -8t-0.5 -14q-3 -1 -30 -1q-50 0 -105 5q-5 -94 -25 -173
q58 -6 97 -6q42 0 70 -16q-3 0 -3 -9zM345 514q-60 0 -114 5q-10 -70 -28 -190q73 -5 118 0q10 60 24 185z" />
    <glyph glyph-name="dollar" unicode="$" horiz-adv-x="600" 
d="M36 212v124q0 10 20 10t21 -5v-20q32 -47 91 -87q59 -38 123 -43v25q0 52 -17 157q-94 50 -136 85q-59 52 -59 105q0 18 7 42q17 27 61.5 51t94.5 24h37q0 26 4 65q6 51 21 51q13 0 17 -16q4 -26 4 -103q52 -5 69 -10.5t44 -17.5q15 -6 41 -21q11 18 26 18q21 0 22 -5
v-128q-2 -16 -21.5 -16t-19.5 15v72q-24 10 -44 19q-47 19 -108 19h-5v-222q15 0 112 -50q77 -42 83 -53q13 -12 13 -45q0 -40 -53 -68q-49 -31 -142 -44q-4 -62 -26 -62q-16 0 -18 5q-3 11 -8 58q-61 5 -154 59q-19 11 -56 41q-5 -44 -24.5 -44t-19.5 15zM288 427l-10 208
q-63 -5 -118 -40q-21 -15 -27 -38q-5 -55 155 -130zM499 253q-22 22 -72 47q-25 12 -100 47q6 -73 11 -159q61 0 101 18q12 8 27.5 14.5t32.5 32.5z" />
    <glyph glyph-name="percent" unicode="%" horiz-adv-x="660" 
d="M625 246q0 -39 -18 -71q-23 -33 -90 -33q-14 0 -42 11q-16 9 -28 29.5t-12 42.5q0 43 15 76q9 19 37 33q25 14 48 14q24 0 44 -17q46 -32 46 -85zM505 628q0 -4 -37 -60q-65 -89 -101 -158q-56 -96 -128 -240q-11 -19 -24 -35q0 -1 -15 -1q-21 0 -21 10v3
q194 376 257 455q39 50 48 50t15 -7t6 -17zM249 497q0 -27 -35 -53t-66 -26q-81 0 -101 71v29q0 39 23 66q35 24 80 24q32 0 60 -28q15 -11 27 -30t12 -53zM591 243q0 26 -21 47q-16 16 -33 16q-23 0 -43.5 -20.5t-20.5 -41.5q0 -64 54 -64q64 0 64 63zM207 504q0 66 -83 66
q-15 0 -29 -17t-14 -33q0 -23 18 -43.5t44 -20.5q21 0 42.5 13.5t21.5 34.5z" />
    <glyph glyph-name="ampersand" unicode="&#x26;" horiz-adv-x="572" 
d="M329 148q-44 -59 -67 -78q-32 -32 -68 -32q-155 0 -155 153q0 37 26 93q15 30 59 73q-50 68 -62 122q-7 22 -7 61q0 38 8 88q7 33 18 47q54 73 115 73q57 0 116 -70q41 -63 41 -142q0 -67 -59 -122q-11 -11 -43 -31l-60 -45q51 -66 132 -119q74 92 131 218q4 13 10.5 34
t17.5 21q23 0 23 -30q0 -11 -7 -25q-51 -123 -138 -249q100 -78 153 -100h19q10 0 10 -20.5t-5 -20.5h-128q-16 2 -16 22q0 8 8 25q-32 23 -72 54zM299 537q0 61 -22 109q-10 15 -35 35.5t-42 20.5q-22 0 -33 -11q-16 -8 -43 -39q-19 -33 -19 -101q0 -38 13 -77
q4 -13 44 -88q84 53 110.5 82t26.5 69zM292 184q-55 35 -142 122q-34 -21 -51.5 -58.5t-17.5 -60.5q0 -42 28 -72.5t76 -30.5q47 0 107 100z" />
    <glyph glyph-name="quotesingle" unicode="'" horiz-adv-x="204" 
d="M125 690q0 -56 -5.5 -70t-13.5 -14q-19 0 -19 22q-4 32 -4 67q0 43 4 72q3 9 13 9h2q10 0 16 -22q7 -15 7 -64z" />
    <glyph glyph-name="parenleft" unicode="(" horiz-adv-x="416" 
d="M385 15q0 -8 -1 -10q-5 -3 -24 -3q-12 0 -65 30.5t-72 52.5q-74 78 -101 166q-15 66 -15 172q0 58 7 92q8 23 36 86q19 46 69.5 98.5t72.5 52.5q6 0 9 -3q20 -3 20 -10q0 -1 -39 -37q-58 -49 -87 -104q-46 -79 -46 -174q0 -120 33 -203q42 -92 135 -155q20 -8 70 -39
q-2 2 -2 -9v-3z" />
    <glyph glyph-name="parenright" unicode=")" horiz-adv-x="416" 
d="M285 376q0 -78 -51 -187q-46 -112 -107 -154q-37 -33 -42 -33q-23 0 -28.5 5.5t-5.5 11.5q0 8 26 28l41 33q43 42 80 133q45 95 45 161q0 83 -17 134q-66 202 -197 257q-2 1 -2 11q0 9 6 15q8 4 30 -2q110 -46 195 -240q27 -61 27 -173z" />
    <glyph glyph-name="asterisk" unicode="*" horiz-adv-x="368" 
d="M279 514q-15 0 -36 10q-16 10 -48 62l-34 -67q-14 -29 -32 -29q-22 0 -22 12q3 27 52 98q-68 6 -94 15.5t-26 23.5q0 11 8.5 16t25.5 5q20 0 91 -26q-21 63 -21 82q-3 36 16 40q22 3 30 -32q4 -19 12 -81q43 43 63 51q6 6 19 6t19.5 -9t6.5 -17q0 -13 -13 -25.5
t-82 -41.5q37 -28 64 -48t27 -28t-7 -12.5t-19 -4.5z" />
    <glyph glyph-name="plus" unicode="+" horiz-adv-x="528" 
d="M497 391q0 -15 -14 -17h-180q-6 -51 -2 -96q4 -53 8 -69q0 -2 -10.5 -8.5t-15.5 -6.5q-18 0 -27 18.5t-9 69.5q-3 0 1 81q-35 7 -52 7q-87 -4 -119 0q-42 0 -42 20v10q13 8 43 8h170q-5 75 -5 156q-6 60 18 60t24 -33q0 -97 10 -181q81 10 171 2q31 -6 31 -21z" />
    <glyph glyph-name="comma" unicode="," horiz-adv-x="240" 
d="M165 105q0 -21 -4 -52q-7 -44 -33 -81q-11 -14 -28 -26t-21 -12t-4.5 1.5t0.5 3.5q0 2 36 38q29 28 22 86q-47 -4 -50 40q0 11 8 22t26 11q24 0 35 -12.5t13 -18.5z" />
    <glyph glyph-name="hyphen" unicode="-" horiz-adv-x="408" 
d="M377 383q0 -17 -21 -17q-96 -4 -156 -4h-123q-35 3 -41 14q-1 1 -1 9q-2 9 -6 6q11 5 40 9q155 8 277 4q31 -8 31 -21z" />
    <glyph glyph-name="period" unicode="." horiz-adv-x="184" 
d="M129 74q0 -19 -7 -33q-5 -15 -29 -15q-16 0 -24.5 17.5t-5.5 29.5q0 13 8 24t19 11q33 0 39 -34z" />
    <glyph glyph-name="slash" unicode="/" horiz-adv-x="500" 
d="M469 737q0 -11 -11 -36q-167 -331 -379 -654q-8 -13 -30 -13q-18 0 -18 11q0 2 222 370q48 85 92 165q13 25 33 69q48 107 75 107q8 0 12 -5t4 -14z" />
    <glyph glyph-name="zero" unicode="0" horiz-adv-x="508" 
d="M465 379q0 -105 -67 -165q-60 -52 -146 -52t-146 52q-63 59 -63 165q0 105 63 161q56 52 146 52q86 0 146 -56q67 -60 67 -157zM411 383q0 78 -49 127q-44 44 -110 44t-106 -40q-49 -49 -49 -131q0 -90 48 -138q40 -45 107 -45q66 0 110 44q49 49 49 139z" />
    <glyph glyph-name="one" unicode="1" horiz-adv-x="344" 
d="M139 169h54q11 200 -2 447q-72 -99 -94 -131q-8 -12 -11 -12q-1 0 -14 7q-22 13 -19 18q66 93 113 140q36 36 45 35q16 -1 19 -8q9 -22 10 -220q2 -172 -3 -276h46q10 0 10 -20.5t-5 -20.5h-148q-16 2 -16 21t15 20z" />
    <glyph glyph-name="two" unicode="2" horiz-adv-x="472" 
d="M409 127q-3 -15 -14 -15l-246 3q-54 0 -72 15q-15 14 -10 52q4 26 21 35q194 82 218 232q5 35 -37.5 80.5t-94.5 57.5q-79 15 -92 17l-3 6.5t-1 12.5q2 7 14 13q26 13 90 -4q70 -23 104.5 -48.5t61.5 -72.5q20 -31 15 -65q-8 -56 -52 -122.5t-218 -161.5l311 -5
q8 -1 5 -30z" />
    <glyph glyph-name="three" unicode="3" horiz-adv-x="388" 
d="M344 203q-5 -34 -28.5 -62.5t-47.5 -44.5q-58 -34 -175 -11q-25 7 -24 27q1 12 5 14q21 9 98.5 -3t120.5 81q-3 36 -30 57t-94 43q-90 25 -88 49q1 22 23 32q162 54 166 121q1 42 -19 54q-56 41 -158 64q-34 8 -32 39q1 17 17 15q20 -1 53.5 -10t108.5 -41
q87 -40 84 -113q-2 -87 -116 -125q-10 -4 -64 -31q71 -22 109 -33q40 -14 67 -41t24 -81z" />
    <glyph glyph-name="four" unicode="4" horiz-adv-x="468" 
d="M209 147h49q0 35 6 98q-110 -14 -137 -12q-46 3 -65.5 24t-7.5 66q24 201 76 311q9 16 34.5 13.5t20.5 -13.5q-65 -111 -82 -314q-3 -46 45 -43q49 0 113 10q0 56 22 222q3 42 27 40q17 -2 15 -22q-14 -79 -23 -242q61 7 122 10q7 1 5 -22q-2 -19 -22 -20.5t-105 -8.5
q-3 -51 -3 -97h54q10 0 10 -20.5t-5 -20.5h-148q-16 2 -16 21t15 20z" />
    <glyph glyph-name="five" unicode="5" horiz-adv-x="413" 
d="M83 606q47 -9 215 -16q64 -4 57.5 -31.5t-27.5 -22.5q-29 8 -230 18q4 -74 7 -198q32 4 131 3q33 -2 64 -15.5t46 -47.5q14 -33 9.5 -66t-41.5 -75q-39 -39 -173 -44q-19 -6 -34.5 14.5t-9.5 22.5q138 7 175.5 34t33.5 64q-4 47 -67 62q-73 7 -108 2q-22 -2 -37 0
q-19 1 -20 13q-20 185 -16 272q0 4 5 7q9 5 20 4z" />
    <glyph glyph-name="six" unicode="6" horiz-adv-x="408" 
d="M361 251q0 -43 -23.5 -77.5t-49.5 -45.5q-51 -22 -127 -22q-26 0 -55 11q-24 12 -41.5 35.5t-21.5 67.5q0 85 15 143q28 78 83 177q68 128 106 128q18 0 23 -14q3 -8 5 -7q-43 -38 -88 -112q-41 -66 -71 -157q59 22 88 22q28 0 50 -11q107 -40 107 -138zM319 251
q0 75 -91 106q-49 14 -118 -14q-31 -49 -25 -125q0 -25 24.5 -49.5t51.5 -24.5q158 0 158 107z" />
    <glyph glyph-name="seven" unicode="7" horiz-adv-x="442" 
d="M297 132h36q-4 63 -4 153q2 159 28 278q-74 30 -246 25q-18 -35 -20.5 -73t2.5 -109q-2 -14 -18.5 -14t-13.5 -3q-25 74 -6 222q5 27 31 27q29 0 150.5 -12t155.5 -27q13 -4 11 -46q0 -22 -16 -68q-12 -78 -16 -127q-4 -42 -1 -226h32q10 0 10 -20.5t-5 -20.5h-109
q-16 2 -16 21t15 20z" />
    <glyph glyph-name="eight" unicode="8" horiz-adv-x="532" 
d="M487 222q0 -45 -19.5 -77t-50.5 -52q-33 -21 -73.5 -30.5t-79.5 -9.5q-40 0 -70 12.5t-51 29.5t-33.5 33t-26.5 52q-15 34 -15 95q0 81 105 160q-43 36 -53.5 66t-10.5 64q0 24 10 49.5t30 47.5q20 20 51 34t74 14q39 -4 77 -24.5t60 -49.5q11 -17 22 -75q0 -83 -68 -146
q109 -61 122 -193zM394 550q-11 53 -40 83.5t-87 30.5q-54 0 -84 -30t-30 -79q0 -18 7 -36.5t22 -33.5q15 -17 39 -27t57 -10q13 0 32 2.5t37 12.5q19 9 33 28t14 59zM389 350q-34 32 -68.5 43t-63.5 11q-26 0 -51.5 -7.5t-45.5 -23.5q-21 -17 -33.5 -41.5t-12.5 -57.5
q0 -36 11.5 -67.5t33.5 -55.5q20 -25 50.5 -40t69.5 -15q29 0 58 8.5t52 26.5q22 17 37 43t15 61q0 13 -5 30t-11 33q-8 16 -17.5 30.5t-18.5 21.5z" />
    <glyph glyph-name="nine" unicode="9" horiz-adv-x="485" 
d="M419 567q9 -39 10.5 -92.5t-14.5 -150.5q-15 -96 -88 -231q-9 -14 -39.5 -9t-20.5 21q77 93 94 237q-59 -16 -74 -20.5t-30 -7.5q-43 -9 -76.5 -2t-58.5 24t-40.5 43.5t-21.5 58.5q-12 60 -4 103t28 73q20 29 47 45.5t53 21.5q54 11 94.5 6t68.5 -21q29 -16 46.5 -41
t25.5 -58zM379 556q-6 27 -22 47t-39 31q-24 12 -50.5 15t-52.5 -2q-139 -28 -104 -207q6 -29 22 -48t38 -30q23 -10 49 -11.5t55 3.5q39 8 63 28t36 48q11 27 11 59t-6 67z" />
    <glyph glyph-name="colon" unicode=":" horiz-adv-x="232" 
d="M145 558q0 -16 -6 -30q-5 -14 -30 -14q-16 0 -24.5 15.5t-5.5 27.5q0 12 8 21.5t19 9.5q33 0 39 -30zM153 298q0 -16 -6 -30q-5 -14 -30 -14q-16 0 -24.5 15.5t-5.5 27.5q0 12 8 21.5t22 9.5q30 0 36 -30z" />
    <glyph glyph-name="semicolon" unicode=";" horiz-adv-x="232" 
d="M151 558q0 -16 -6 -30q-5 -14 -30 -14q-17 0 -23 11q-7 20 -7 32t9.5 21.5t20.5 9.5q30 0 36 -30zM161 305q0 -21 -4 -48q-7 -44 -33 -81q-11 -14 -28 -26t-21 -12t-4.5 1.5t0.5 3.5q0 2 36 38q29 29 22 82q-47 -4 -50 44q0 7 8 18t27 11q24 0 34 -10.5t13 -20.5z" />
    <glyph glyph-name="less" unicode="&#x3c;" horiz-adv-x="600" 
d="M534 112q-1 -9 -10 -16.5t-27 0.5q-305 193 -378 247q-12 6 -17.5 15t-4.5 20q3 27 25.5 46t42.5 35q20 15 86.5 64t121.5 88q54 39 126 92q11 5 26 -13.5t3 -27.5q-44 -24 -187 -132.5t-196 -152.5q84 -57 174.5 -116t206.5 -130q9 -5 8 -19z" />
    <glyph glyph-name="equal" unicode="=" horiz-adv-x="460" 
d="M421 492q-1 0 -1 -22.5t-1 -22.5q-159 -24 -377 -4q-3 0 -2 24.5t-2 24.5q202 -25 383 0zM421 320q-1 0 -1 -22.5t-1 -22.5q-159 -24 -377 -4q-3 0 -2 24.5t-2 24.5q202 -25 383 0z" />
    <glyph glyph-name="greater" unicode="&#x3e;" horiz-adv-x="600" 
d="M103 110q-1 15 6 19q115 73 204.5 133t173.5 117q-52 41 -197 148.5t-189 132.5q-12 8 3 27.5t25 13.5q74 -52 128.5 -90t122.5 -86q67 -49 86 -63q20 -18 43.5 -36t26.5 -45q1 -10 -5 -20t-17 -16q-72 -53 -377 -252q-16 -8 -25 -0.5t-9 17.5z" />
    <glyph glyph-name="question" unicode="?" horiz-adv-x="424" 
d="M381 552q0 -79 -48 -127q-45 -48 -112 -59q-28 -7 -28 -30q-4 -57 0 -88q-1 -6 -18 -6q-24 0 -24 90q0 21 5.5 44.5t32.5 23.5q146 20 146 155q0 147 -141 147q-40 0 -74 -33q-23 -33 -23 -70q-1 -49 22 -84q6 -12 -12 -24t-24 -6q-40 44 -40 113q0 66 50 105
q48 41 104 41q89 0 136.5 -49.5t47.5 -142.5zM209 114q0 -16 -6 -30q-5 -14 -29 -14q-16 0 -23.5 16t-7.5 27q3 11 11.5 21t19.5 10q29 0 35 -30z" />
    <glyph glyph-name="at" unicode="@" horiz-adv-x="760" 
d="M453 298q-25 -42 -57 -73q-4 -7 -39 -7q-68 0 -116 80q-18 37 -18 85q0 74 46 127.5t116 53.5q29 0 82 -55q48 27 49 26q-23 -143 -23 -168q0 -59 18 -99q22 -32 4 -44.5t-32 5.5q-2 2 -13 36zM463 466q0 40 -65 60q-69 0 -114 -58q-19 -28 -19 -86q0 -40 27 -79
q34 -49 71 -39q100 14 100 202zM720 387q0 -77 -26.5 -139t-71.5 -105q-46 -44 -109 -67.5t-135 -23.5q-69 0 -131 22t-108 64q-47 42 -75 104.5t-28 145.5q0 81 26.5 142t72.5 102q46 40 108 61t135 21q63 0 124.5 -25.5t110.5 -69.5q48 -44 77.5 -103t29.5 -129zM675 388
q0 64 -25.5 117.5t-66.5 91.5q-42 38 -97 59.5t-113 21.5q-56 0 -103.5 -17t-93.5 -51q-48 -35 -71.5 -91t-23.5 -131q0 -62 22 -115.5t61 -94.5t92.5 -65.5t116.5 -24.5q72 0 128.5 24.5t95.5 67.5q38 41 58 95t20 113z" />
    <glyph glyph-name="A" unicode="A" horiz-adv-x="480" 
d="M343 109h42q-17 56 -31 119q-88 0 -219 4q-7 -27 -16 -62q-6 -19 -16 -61h42q10 0 10 -20.5t-5 -20.5h-106q-16 2 -16 21t26 20q14 47 23 87q26 117 60 234.5t71 226.5q16 45 37 45q14 0 31 -53q60 -189 98 -326q31 -114 53 -214h18q10 0 10 -20.5t-5 -20.5h-106
q-16 2 -16 21t15 20zM333 281q-28 126 -94 371l-99 -378z" />
    <glyph glyph-name="B" unicode="B" horiz-adv-x="540" 
d="M53 109l40 -4q-7 59 -9 83q-3 29 -5 51t-2.5 45t-2.5 67q-2 43 -6 114q-4 64 -12 177l-23 11q-13 9 -4.5 26t22.5 11l25 -12q81 19 138.5 14t103.5 -27t79 -63t35 -95q0 -39 -16 -73.5t-74 -92.5q55 -5 75.5 -16t35.5 -28q14 -18 22.5 -39.5t7.5 -61.5q-3 -30 -19.5 -53
t-54.5 -39q-40 -18 -106.5 -27.5t-248.5 -8.5q-16 2 -16 21t15 20zM385 519q-27 128 -212 132q-15 0 -31 -1.5t-48 -10.5q7 -66 11 -130.5t6 -150.5h130q93 14 122.5 62t21.5 99zM441 214q0 50 -35 78t-85 32h-210q8 -34 12 -81.5t13 -135.5q25 -2 38.5 -2.5t25.5 -0.5
q31 0 71 4t76 16q38 10 66 32.5t28 57.5z" />
    <glyph glyph-name="C" unicode="C" horiz-adv-x="532" 
d="M491 227q0 -9 -9 -19.5t-23 -20.5q-14 -12 -27 -19t-18 -9q-29 -10 -58.5 -13t-59.5 -3q-92 0 -177 73q-88 79 -88 193q0 36 9.5 68t33.5 68q34 48 82.5 78t107.5 31q30 0 66.5 -11.5t69.5 -27.5q31 -17 53.5 -36t25.5 -32q1 -8 -4 -16.5t-13 -7.5q-3 0 -9 6
q-95 79 -178 79q-82 0 -140 -78q-20 -20 -35 -47.5t-10 -59.5q0 -42 13.5 -83.5t41.5 -75.5q28 -33 72.5 -53.5t107.5 -20.5q61 0 132 50q3 2 19 2q10 0 12.5 -4t2.5 -11z" />
    <glyph glyph-name="D" unicode="D" horiz-adv-x="540" 
d="M44 127h45v28q1 22 1 43q0 132 -6.5 244t-6.5 207l-36 15q-14 8 -7 26t21 13l45 -18q56 5 72 5q62 0 118 -27t99 -69q44 -42 69 -93.5t25 -100.5q-3 -28 -14.5 -63.5t-32.5 -71.5q-22 -37 -54 -71.5t-75 -61.5q-29 -19 -52.5 -28t-45.5 -12q-21 -4 -121 -6h-43
q-16 2 -16 21t15 20zM433 433q-10 40 -36 78t-60 68q-36 31 -77 50t-81 19q-11 0 -22 -2.5t-36 -10.5q19 -131 21 -250t-4 -255q78 0 129.5 29.5t87.5 72.5q37 43 57.5 93.5t20.5 93.5v14z" />
    <glyph glyph-name="E" unicode="E" horiz-adv-x="496" 
d="M44 130h29l-2 526l-30 15q-14 9 -5.5 26t22.5 11l35 -17q82 -8 155 -14.5t145 -15.5q8 -1 12 -6.5t4 -15.5q0 -17 -18 -16l-227 25q-45 -2 -42 -48l3 -164l245 -20q3 0 8 -4.5t5 -18.5q0 -12 -4 -16t-8 -4l-248 16l4 -195q0 -24 10.5 -36t31.5 -12q106 8 166.5 13.5
t75.5 10.5q14 -1 20.5 -11t6.5 -21q-2 -16 -13 -17q-69 -9 -145 -17q-64 -7 -164 -15h-71q-16 2 -16 21t15 20z" />
    <glyph glyph-name="F" unicode="F" horiz-adv-x="500" 
d="M74 150h28q-6 36 -8 58q-6 53 -10 116q-5 62 -7 130t-2 135q0 24 2 50l-27 13q-13 8 -4 25.5t22 11.5l41 -20q25 1 68 1h229q19 0 38 2q9 -1 15.5 -6.5t9.5 -16.5q0 -22 -10 -23q-34 -6 -78.5 -6.5t-93.5 -0.5q-70 0 -163 3q-5 -24 -5 -33v-143q0 -6 6 -26q36 1 68 1.5
t70 0.5t80 -0.5t92 -1.5q17 -2 17 -25q0 -19 -10 -21q-55 -2 -129.5 -3t-183.5 -1q0 -18 1.5 -37t4.5 -50q2 -31 6 -73q2 -22 5 -60h30q10 0 10 -20.5t-5 -20.5h-106q-16 2 -16 21t15 20z" />
    <glyph glyph-name="G" unicode="G" horiz-adv-x="656" 
d="M489 112h35q-3 39 -4 55.5t-1 69.5q-63 -84 -112 -104t-106 -20q-36 0 -79 14t-81 51q-37 36 -62.5 101.5t-25.5 169.5q0 17 3.5 43t16.5 55q12 28 37 56t69 49q41 20 76.5 30t68.5 10q47 0 84 -8.5t61 -20.5q22 -13 33 -26t11 -19q0 -7 -8 -7q-6 0 -27 5.5t-47 11.5
q-25 6 -49.5 11.5t-42.5 5.5q-39 0 -72.5 -11.5t-52.5 -19.5q-62 -29 -85 -79t-23 -114q0 -53 14 -96.5t24 -63.5q10 -22 24 -40t35 -32q21 -13 49.5 -20t68.5 -7q21 0 43 3t46 14q24 10 48.5 31t53.5 59q0 37 -1 53.5t-1 45.5q-70 0 -171 12q-22 3 -22 14q0 10 9 16t27 6
q23 0 51.5 -4t82.5 -4q18 0 39 1t43 1q54 0 54 -16q0 -24 -76 -24q6 -32 9 -59.5t6 -60.5q2 -35 3 -74q1 -24 3 -64h23q10 0 10 -20.5t-5 -20.5h-106q-16 2 -16 21t15 20z" />
    <glyph glyph-name="H" unicode="H" horiz-adv-x="480" 
d="M324 110h32q0 65 0.5 106.5t3.5 107.5q-60 0 -110.5 4.5t-113.5 26.5v-30q0 -85 -2 -145q-1 -27 -6 -70h28q10 0 10 -20.5t-5 -20.5h-106q-16 2 -16 21t36 20q-1 131 -1 152q0 162 -5 255q-5 78 -5 132h-19q-16 2 -16 21t15 20h102q10 0 10 -20.5t-5 -20.5h-38
q4 -35 8 -89.5t10 -161.5q57 -19 227 -26q-4 56 -5 151.5t1 125.5h-29q-16 2 -16 21t15 20h102q10 0 10 -20.5t-5 -20.5h-28q4 -57 6.5 -115.5t2.5 -135.5q0 -78 -2 -159q-2 -56 -5 -129h21q10 0 10 -20.5t-5 -20.5h-106q-16 2 -16 21t15 20z" />
    <glyph glyph-name="I" unicode="I" horiz-adv-x="260" 
d="M85 690h102q10 0 10 -20.5t-5 -20.5h-36v-148q0 -58 1 -96t6 -288l32 -5q12 0 12 -20.5t-5 -20.5h-106q-16 2 -16 21t15 20h25q-8 35 -13.5 163.5t-5.5 260.5q0 47 4 113h-19q-16 2 -16 21t15 20z" />
    <glyph glyph-name="J" unicode="J" horiz-adv-x="580" 
d="M536 642q0 -8 -6.5 -12.5t-20.5 -8.5q-13 -3 -31.5 -4.5t-34.5 -1.5t-27.5 0.5t-39.5 0.5q51 -105 51 -273q0 -78 -11.5 -127t-33.5 -77q-22 -27 -57 -38t-84 -11q-73 0 -119 43.5t-67 131.5q0 -2 3 0.5t8 6.5q5 3 10 4.5t10 -10.5q25 -60 58 -92t92 -32q76 0 108.5 43
t32.5 126q-4 95 -11.5 167t-28.5 138q-31 0 -74.5 1t-103.5 4q-18 8 -18 20q0 23 36 27h330q29 -3 29 -26z" />
    <glyph glyph-name="K" unicode="K" horiz-adv-x="500" 
d="M65 112h21q-8 111 -12 199q-5 109 -5 338h-22q-16 2 -16 21t15 20h102q10 0 10 -20.5t-5 -20.5h-32q0 -99 1 -150q1 -56 1 -114q61 53 100 87.5t75 66.5q35 32 64 58t38 33q9 -3 18.5 -14.5t10.5 -20.5q-7 -14 -71.5 -74t-205.5 -170q213 -123 317 -216q2 -2 2 -17
q0 -24 -17 -24q-4 0 -31.5 17t-70.5 45t-95.5 64.5t-131.5 89.5q9 -131 13 -198h29q10 0 10 -20.5t-5 -20.5h-106q-16 2 -16 21t15 20z" />
    <glyph glyph-name="L" unicode="L" horiz-adv-x="544" 
d="M36 676h112q10 0 10 -20.5t-5 -20.5h-41q0 -105 8 -200q10 -115 14 -236q3 -29 20 -43t39 -14q103 8 178.5 14.5t122.5 11.5q3 0 7.5 -7.5t4.5 -21.5v-17q-124 -14 -215.5 -21.5t-155.5 -7.5q-47 0 -53 34q0 1 -2.5 30.5t-6.5 78.5q-4 48 -8 205t-6 193q-38 3 -38 22
t15 20z" />
    <glyph glyph-name="M" unicode="M" horiz-adv-x="734" 
d="M579 134h23q0 122 5 224q6 110 14 256q-63 -88 -98.5 -151t-65.5 -135q-46 -77 -85 -77q-74 0 -274 372q32 -281 32 -351v-91q0 -25 -2 -59h29q10 0 10 -20.5t-5 -20.5h-106q-16 2 -16 21t15 20h27q-1 137 -4 227q-3 102 -10 181t-1 101t13 27q6 4 17 4q10 0 30 -23.5
t52 -69.5t74 -108t100 -138q25 0 49.5 31.5t60.5 93.5t63 106.5t48 71.5q22 27 36.5 38t23.5 11t16 -3.5t8 -3.5q4 -39 6.5 -94t2.5 -119q0 -81 -3 -164q-2 -68 -7 -157h24q10 0 10 -20.5t-5 -20.5h-106q-16 2 -16 21t15 20z" />
    <glyph glyph-name="N" unicode="N" horiz-adv-x="619" 
d="M55 120h23q-1 56 -3 112q-1 66 -3 157v80q0 104 3 125q0 10 6.5 18t17.5 4q18 -8 27 -16q96 -90 181.5 -184.5t194.5 -248.5q-12 211 -19 323q-6 87 -10 155h-19q-16 2 -16 21t15 20h102q10 0 10 -20.5t-5 -20.5h-52q22 -22 22 -18q4 -44 10.5 -123.5t8.5 -209.5
q0 -29 -0.5 -60t-1.5 -63q0 -15 -15 -28t-33 -19q-13 3 -154 156q-70 75 -120.5 135t-111.5 148q6 -140 9 -229.5t5 -177.5v-36h30q10 0 10 -20.5t-5 -20.5h-106q-16 2 -16 21t15 20z" />
    <glyph glyph-name="O" unicode="O" horiz-adv-x="717" 
d="M656 387q0 -68 -23 -122t-62 -92q-40 -38 -95 -58t-118 -20q-60 0 -114.5 19t-94.5 56q-41 36 -65 90.5t-24 126.5q0 71 23 124t63 89q40 35 94 53t117 18q56 0 109.5 -22t96.5 -60q42 -38 67.5 -90t25.5 -112zM597 387q0 54 -20 99t-54 78q-34 32 -78 50t-91 18
q-45 0 -83 -14.5t-75 -42.5q-39 -31 -58 -78t-19 -110q0 -52 17.5 -97.5t49.5 -79.5q31 -35 74 -55.5t94 -20.5q58 0 103.5 21t76.5 56t47 80.5t16 95.5z" />
    <glyph glyph-name="P" unicode="P" horiz-adv-x="500" 
d="M75 109h26l-9 112q-4 47 -8.5 99t-8.5 99t-7 84t-5 55q-4 32 -8 68l-21 12q-14 8 -5 25t22 12l22 -13q29 14 52 18.5t51 4.5q53 0 99 -14t89 -40q44 -26 60.5 -63.5t16.5 -83.5q0 -57 -30 -108q-10 -17 -62 -55q-39 -16 -73.5 -22t-75.5 -6q-11 0 -21.5 0.5t-38.5 2.5
q3 -47 4 -96q0 -33 1 -91h32q10 0 10 -20.5t-5 -20.5h-106q-16 2 -16 21t15 20zM399 501q-7 28 -26.5 53t-45.5 39q-26 13 -50.5 23.5t-41.5 14.5q-37 6 -63 6q-41 0 -72 -22l34 -269q24 -11 48 -11q39 0 77 6.5t70 22.5q33 16 49.5 50.5t20.5 86.5z" />
    <glyph glyph-name="Q" unicode="Q" horiz-adv-x="640" 
d="M581 358q0 -67 -20.5 -110.5t-53.5 -77.5q14 -14 25.5 -20.5t22.5 -13.5q12 -8 19 -14.5t7 -12.5t-4 -11t-20 -5q-36 0 -100 51q-52 -32 -90 -42t-86 -10q-50 0 -89 18.5t-66 50.5q-27 31 -47.5 72.5t-21.5 140.5q-2 101 15 150.5t39 71.5q-1 -1 12 11.5t37 29.5
q22 16 54 29t71 13q61 0 115 -24.5t94 -67.5q40 -44 63.5 -103t23.5 -126zM539 366q0 27 -8 59t-20 62q-14 29 -31 54t-36 38q-92 54 -173 54q-44 -4 -77 -27t-54 -56q-22 -32 -32.5 -70t-10.5 -98q0 -61 17 -113.5t45 -80.5q28 -30 61 -39.5t70 -9.5q36 0 134 32
q-30 30 -41 44.5t-20 30.5q-8 13 -12.5 25t-4.5 18t4.5 10t9.5 3q8 -1 13.5 -5t14.5 -14l25 -30t50 -56q36 32 56 73.5t20 95.5z" />
    <glyph glyph-name="R" unicode="R" horiz-adv-x="540" 
d="M56 112h35q0 71 -1 112q0 60 -2 105q-2 43 -4 76.5t-6 69.5q-4 34 -9 75q-3 29 -8 74l-27 14q-14 8 -5 25t22 11l31 -16q35 8 61.5 10.5t52.5 2.5q49 0 100 -12.5t93 -36.5q41 -24 66.5 -58t25.5 -77q0 -32 -9.5 -51t-27.5 -34q-21 -16 -51.5 -29.5t-84.5 -38.5
q27 -54 54 -106q25 -49 60 -116h36q10 0 10 -20.5t-5 -20.5h-106q-16 2 -16 21q0 15 19 24q-27 59 -45 98q-27 58 -51 117q-48 -22 -136 -30q3 -57 2.5 -93t-0.5 -75v-21h28q10 0 10 -20.5t-5 -20.5h-106q-16 2 -16 21t15 20zM439 486q0 32 -25.5 56.5t-58.5 42.5
q-32 17 -66 28t-55 13q-5 1 -11.5 1.5t-14.5 0.5q-20 0 -44 -3.5t-61 -8.5q19 -123 27 -272q40 0 70 6t56 15q27 8 46.5 15t23.5 9q52 22 82.5 44.5t30.5 52.5z" />
    <glyph glyph-name="S" unicode="S" horiz-adv-x="504" 
d="M93 224v-23q39 -29 57 -39q18 -11 49.5 -18t60.5 -5q30 1 51 14.5t37 32.5t23 53q0 26 -28 51t-85 57q-56 31 -86 47.5t-50 31.5q-20 14 -33 35.5t-17 78.5q0 33 9 57.5t25 41.5q15 16 34.5 24.5t40.5 10.5h42q48 0 103 -17q32 -10 81 -40q11 22 25 22q20 0 21 -15v-102
q0 -10 -20.5 -10t-20.5 5v40q-25 10 -47 24q-39 18 -74 29t-71 13q-39 0 -63 -21.5t-24 -54.5q0 -53 25.5 -81t62.5 -48t81.5 -39t88.5 -52q17 -14 29 -34t12 -38q0 -63 -33.5 -103t-90.5 -55q-11 -2 -23 -3.5t-25 -1.5q-36 0 -83 13q-32 10 -81 38q-4 -31 -23 -31
q-21 0 -21 5v106q2 16 21 16t20 -15z" />
    <glyph glyph-name="T" unicode="T" horiz-adv-x="556" 
d="M245 127h26q0 57 -2 99q-1 44 -1 89q0 66 1.5 130.5t6.5 144.5q-40 6 -78.5 13t-90.5 17q-52 13 -52 35q0 23 23 23q38 -12 87 -20t103 -14t110 -10t108 -8q11 -2 11 -17q-1 -17 -19 -19t-28 -2h-133q0 -63 2 -174q2 -106 5 -287h23q10 0 10 -20.5t-5 -20.5h-106
q-16 2 -16 21t15 20z" />
    <glyph glyph-name="U" unicode="U" horiz-adv-x="480" 
d="M43 690h102q10 0 10 -20.5t-5 -20.5h-35q-3 -102 -4 -173q-2 -85 -2 -149q-1 -115 8.5 -136t27.5 -34q17 -14 45.5 -19.5t72.5 -5.5q28 0 50 18.5t36 48.5q12 29 17 66t5 77q0 69 -4 121.5t-18 139.5h-26q-16 2 -16 21t15 20h102q10 0 10 -20.5t-5 -20.5h-27
q10 -56 14 -108q5 -66 5 -155q0 -76 -10.5 -127t-30.5 -81q-20 -29 -50.5 -41.5t-85.5 -12.5q-33 0 -64 6t-56 21q-24 16 -41 42.5t-20 60.5q-4 34 -6 75.5t-2 99.5q0 100 7 265q-34 3 -34 22t15 20z" />
    <glyph glyph-name="V" unicode="V" horiz-adv-x="647" 
d="M43 692h102q10 0 10 -20.5t-5 -20.5h-32q17 -36 25 -55q22 -50 44 -103q21 -52 40 -104.5t35 -95.5q15 -44 24 -74.5t18 -74.5q176 256 226 452q-32 5 -32 24t15 20h102q10 0 10 -20.5t-5 -20.5h-28q-2 -39 -22 -94q-22 -60 -68 -153q-31 -62 -56 -113.5t-48 -87.5
q-22 -36 -40.5 -55t-49.5 -11q-32 6 -39 24q-45 113 -84 212t-67 174q-28 74 -44 119q-6 16 -14 37h-16q-16 2 -16 21t15 20z" />
    <glyph glyph-name="W" unicode="W" horiz-adv-x="855" 
d="M42 673h102q10 0 10 -20.5t-5 -20.5h-22q23 -125 55 -228q35 -114 102 -265q55 163 83.5 275.5t41.5 215.5q5 16 18.5 10.5t17.5 -9.5q3 -4 4.5 -8.5t1.5 -5.5q15 -39 33 -92t42 -115q24 -61 54.5 -125.5t85.5 -151.5q23 77 36.5 142t22.5 179q7 87 13 177h-22
q-16 2 -16 21t15 20h102q10 0 10 -20.5t-5 -20.5h-28q2 -40 -2 -76q-7 -79 -13.5 -134t-11.5 -80q-6 -44 -14.5 -87.5t-21.5 -78.5q-13 -34 -30 -53.5t-38 -19.5q-14 0 -31 14t-37 40q-21 25 -41 59t-38 71q-17 38 -32 75t-60 165q-23 -180 -39 -243t-35 -107
q-18 -43 -35 -63.5t-31 -20.5q-31 0 -35 4q-6 10 -38 73t-42 89t-23 65t-33 105q-25 88 -38 143q-7 30 -12 61h-20q-16 2 -16 21t15 20z" />
    <glyph glyph-name="X" unicode="X" horiz-adv-x="628" 
d="M43 141h23q130 144 212 233q-49 60 -89 116q-31 44 -69 101h-45q-16 2 -16 21t15 20h102q10 0 10 -22q0 -6 -3 -20q18 -22 37 -48q30 -42 94 -132q109 156 178 228q-9 14 -9 23q0 20 15 21h102q10 0 10 -20.5t-5 -20.5h-41q-28 -41 -94 -119q-102 -118 -122 -134
q78 -118 221 -256h23q10 0 10 -20.5t-5 -20.5h-106q-16 2 -16 22q0 10 11 24q-36 37 -70 80q-59 71 -98 127q-47 -66 -84 -106t-90 -90q11 -16 11 -26q0 -22 -5 -22h-106q-16 2 -16 21t15 20z" />
    <glyph glyph-name="Y" unicode="Y" horiz-adv-x="568" 
d="M291 112h24l-7 118q-4 70 -8 148q-10 9 -28.5 26.5t-43.5 41.5q-26 24 -55 51.5t-54 51.5q-26 23 -69 63h-12q-16 2 -16 21t15 20h102q10 0 10 -22q0 -11 -9 -27l59 -52q53 -49 123 -116q80 133 124 204q-24 11 -24 26q0 20 15 21h102q10 0 10 -20.5t-5 -20.5h-34
q-21 -32 -37 -58q-24 -40 -46 -80q-22 -39 -40 -74.5t-28 -64.5q4 -80 6 -150q1 -48 2 -107h26q10 0 10 -20.5t-5 -20.5h-106q-16 2 -16 21t15 20z" />
    <glyph glyph-name="Z" unicode="Z" horiz-adv-x="604" 
d="M550 109q0 -17 -15 -21h-427q-50 0 -50 31q0 17 30.5 60.5t315.5 371.5q0 32 -33 37q-93 17 -170 34.5t-139 40.5q-2 1 -2 13t4 19q5 7 11 7q62 -16 164 -42t245 -61q6 -3 6 -25q0 -10 -15.5 -29.5t-54.5 -62.5q-40 -44 -104 -115.5t-157 -184.5q-22 -36 1 -43t38 -7
t33.5 -0.5t136.5 0.5q119 0 146 2q36 0 36 -25z" />
    <glyph glyph-name="bracketleft" unicode="[" horiz-adv-x="472" 
d="M144 762h225q5 -1 3 -20.5t-15 -21.5h-183q27 -248 8 -688h195q5 -1 3 -20.5t-15 -21.5h-217q-15 0 -15.5 12t-0.5 19q21 449 -8 709q-1 7 -1.5 19.5t21.5 12.5z" />
    <glyph glyph-name="backslash" unicode="\" horiz-adv-x="808" 
d="M58 662h124q10 0 10 -20.5t-5 -20.5h-38q17 -138 44 -221q160 0 189 4l5 82q4 130 38 130q22 0 24 -15q4 -52 30 -201h159q11 120 19 181q0 8 2 40h-30q-16 2 -16 21t15 20h124q10 0 10 -20.5t-5 -20.5h-50q0 -70 -14 -172l-6 -48q74 -5 95 -11q-1 1 -1 -17q0 -13 2 -12
q-20 -3 -41 -3h-58l-15 -76q-19 -106 -58 -184q-11 -20 -38 -20q-69 0 -141 340q-26 -77 -35 -119q-27 -95 -39 -122q-36 -91 -70 -91q-31 0 -58 51q-12 31 -28 71q-8 20 -51 150q-24 0 -52 -2.5t-40 -2.5q-32 0 -32 17q0 21 22 27q7 3 90 3q-35 157 -48 221h-32
q-16 2 -16 21t15 20zM366 357q-74 5 -162 0q26 -79 79 -232q35 85 83 232zM631 362h-137q12 -59 28 -102t59 -143z" />
    <glyph glyph-name="bracketright" unicode="]" horiz-adv-x="544" 
d="M378 762q22 0 21.5 -12.5t-1.5 -19.5q-29 -260 -8 -709q0 -7 -0.5 -19t-15.5 -12h-217q-13 2 -15 21.5t3 20.5h195q-19 440 8 688h-183q-13 2 -15 21.5t3 20.5h225z" />
    <glyph glyph-name="asciicircum" unicode="^" horiz-adv-x="468" 
d="M429 556q0 -13 -7 -17.5t-21 -4.5t-45 34q-40 57 -138 158q-22 -22 -75 -103q-39 -58 -70 -90q-10 -11 -22 -8.5t-12 18.5q0 15 21 43l133 193q7 13 22 13q7 0 38 -32q124 -127 174 -193q2 -4 2 -11z" />
    <glyph glyph-name="underscore" unicode="_" horiz-adv-x="664" 
d="M621 -14q11 -1 12 -23.5t-13 -22.5q-216 -14 -579 -4q-12 2 -10 26t9 24q373 -17 581 0z" />
    <glyph glyph-name="grave" unicode="`" horiz-adv-x="248" 
d="M193 603q0 -25 -17 -25q-13 1 -31 40q-45 78 -81 115q-5 7 -5 13q0 14 11 14q4 0 12 -8q111 -92 111 -149z" />
    <glyph glyph-name="a" unicode="a" horiz-adv-x="468" 
d="M438 70q-12 -26 -24 -27t-66 100q-21 -40 -50 -65q-57 -37 -141 -32q-21 0 -72 49q-31 29 -27 111q1 49 17 97q15 38 54 69t68 29q72 -15 133 -85q42 -84 42 -93q-1 -33 64 -142q6 -6 2 -11zM321 189q1 33 -20 74q-38 73 -107 88q-46 -5 -76 -64q-18 -42 -19 -91
q0 -40 21 -76q19 -31 59 -33q49 -2 95.5 30t46.5 72z" />
    <glyph glyph-name="b" unicode="b" horiz-adv-x="492" 
d="M47 695h64q10 0 10 -20q1 -70 3 -137q3 -80 7 -214q45 54 71.5 66.5t46.5 12.5q19 0 45.5 -5.5t54.5 -22.5q26 -16 51 -55.5t22 -86.5t-5 -57q-11 -64 -52.5 -102t-106.5 -38q-42 0 -71 7t-47 18q-17 12 -26.5 28.5t-13.5 33.5q-1 15 -2.5 49t-3.5 78q-3 43 -5.5 93
t-4.5 99t-3.5 92.5t-1.5 83.5v36h-31q-16 2 -16 21t15 20zM285 354q-52 4 -83 -20t-49 -49q-8 -15 -11 -35.5t-3 -45.5q0 -60 29.5 -90.5t99.5 -30.5q62 0 89.5 44t27.5 108q0 29 -24.5 67.5t-75.5 51.5z" />
    <glyph glyph-name="c" unicode="c" horiz-adv-x="424" 
d="M345 365q1 -9 -4 -16t-37 7q-41 25 -105 24q-38 0 -59.5 -12.5t-31.5 -29.5q-10 -18 -11 -33.5t-1 -22.5q0 -39 15.5 -70t36.5 -52q21 -23 45.5 -36t41.5 -13q16 0 29.5 3.5t38.5 22.5q20 14 29 16.5t16 3.5q8 0 16.5 -5t8.5 -18q0 -7 -11 -16.5t-28 -18.5
q-17 -11 -34.5 -18.5t-25.5 -11.5q-4 -2 -24 -2q-40 0 -75.5 17.5t-61.5 48.5q-27 30 -43 71t-16 86q0 53 26.5 85t60.5 44q66 11 104 4.5t67 -20.5q25 -13 33 -38z" />
    <glyph glyph-name="d" unicode="d" horiz-adv-x="408" 
d="M258 667h64q10 0 10 -31v-67q0 -31 1 -91q0 -60 1 -125.5t4 -125.5q2 -61 5 -115q3 -30 -10 -33t-42 -7q-31 -5 -98 -11q-37 0 -67.5 18.5t-56.5 72.5q-6 11 -8.5 28t-2.5 49t12 67.5t33 60.5t48 38t58 13q26 0 72 -31q1 143 2 184q1 28 4 65h-28q-16 2 -16 21t15 20z
M295 190q-6 126 -17 145t-46 24q-33 3 -60 -9t-43 -31t-22 -43.5t-6 -65.5q0 -42 31.5 -73.5t92.5 -31.5q29 0 50 9t21 27z" />
    <glyph glyph-name="e" unicode="e" horiz-adv-x="420" 
d="M375 291q0 -19 -2.5 -30.5t-8.5 -18.5q-7 -8 -22 -14.5t-42 -14.5q-30 -8 -54 -8q-30 0 -62 3.5t-87 18.5q5 -55 17 -77.5t30 -35.5t39 -17.5t43 -4.5q43 0 95 22q10 6 21 6t16 -6q5 -8 5 -18.5t-12 -19.5t-34 -16t-46 -11q-25 -4 -45 -4q-59 0 -93.5 25t-53.5 61
t-24.5 75t-5.5 65t6 58.5t25 61.5q17 27 47.5 46t82.5 19q36 0 66 -12.5t52 -34.5t34.5 -52t12.5 -66zM333 305q0 25 -12.5 45t-31.5 36q-19 14 -42.5 23t-50.5 9t-46.5 -14.5t-29.5 -34.5q-11 -20 -16 -40.5t-5 -42.5q16 -20 51 -27.5t96 -7.5q87 0 87 54z" />
    <glyph glyph-name="f" unicode="f" horiz-adv-x="492" 
d="M167 101h26q-12 90 -28 197q-47 0 -67 2.5t-28 7.5q-8 4 -10.5 10.5t-2.5 14.5q0 7 1.5 9t10.5 1q16 -1 32.5 -3t59.5 -5q-27 243 52 284t131 13q56 -32 68.5 -45.5t16.5 -22.5q4 -8 4 -14q0 -10 -8.5 -13.5t-12.5 -0.5l-61 41q-49 32 -106 6q-61 -28 -34 -247h166
q20 0 20 -20q0 -18 3 -18q-58 -2 -100 -3t-84 -1q7 -100 21 -193h24q10 0 10 -20.5t-5 -20.5h-98q-16 2 -16 21t15 20z" />
    <glyph glyph-name="g" unicode="g" horiz-adv-x="412" 
d="M353 85q0 -87 -38 -127t-128 -40q-42 0 -68.5 7.5t-40.5 17.5t-18.5 19.5t-4.5 16.5q0 29 11 29q15 -13 47 -31q32 -13 75 -13q23 0 47 4.5t44 21.5q19 16 30 45t9 167q-59 -112 -134 -112q-26 0 -49 12t-39 34q-18 22 -27.5 53t-9.5 70q0 44 8.5 73.5t23.5 48.5
q14 17 41.5 31t63.5 16q54 0 84.5 -27t47.5 -73q16 -48 20.5 -112t4.5 -131zM295 264q-4 54 -30.5 85t-55.5 31q-19 0 -38 -4t-35 -17q-18 -13 -28.5 -38.5t-10.5 -65.5q0 -23 6.5 -46t19.5 -39q11 -19 27.5 -30.5t36.5 -11.5q29 0 49.5 11t34.5 29q13 17 18.5 38.5
t5.5 43.5v14z" />
    <glyph glyph-name="h" unicode="h" horiz-adv-x="440" 
d="M300 93h25q10 42 10 70q0 30 -6 60.5t-19 55.5q-15 26 -38 42.5t-57 16.5q-62 -5 -78 -52q-2 -78 -3 -133q-1 -25 -1 -60h24q10 0 10 -20.5t-5 -20.5h-98q-16 2 -16 21t15 20h23q-4 63 -3 140q1 133 -23 385h-19q-16 2 -16 21t15 20h53q12 0 12 -21q10 -67 15 -131.5
t5 -155.5q44 29 63.5 33.5t42.5 4.5q39 0 67 -18.5t47 -48.5q20 -32 30 -73.5t10 -85.5q0 -30 -8 -69q27 -2 27 -21q0 -21 -5 -21h-98q-16 2 -16 21t15 20z" />
    <glyph glyph-name="i" unicode="i" horiz-adv-x="280" 
d="M102 100h27q1 55 3 98q3 77 -1 125q-3 24 -5 55h-26q-16 2 -16 21t16 20q62 2 63 -18q4 -16 9 -80q5 -66 1 -158l-4 -63h27q10 0 10 -20.5t-5 -20.5h-98q-16 2 -16 21t15 20zM191 562q0 -53 -47 -53q-42 0 -42 51q0 12 19.5 33t30.5 21q17 0 28 -20.5t11 -31.5z" />
    <glyph glyph-name="j" unicode="j" horiz-adv-x="416" 
d="M244 419h65q9 -1 9 -20q3 -65 7 -176q4 -67 -5.5 -143t-17.5 -89q-22 -28 -91 -32q-95 -6 -134 63q-15 29 -11 42t10 13q7 0 16 -15q9 -13 25 -34t44 -26q58 -12 93 18q14 20 18 40q11 63 1 318h-28q-16 2 -16 21t15 20zM338 562q0 -53 -47 -53q-42 0 -42 51
q0 12 19.5 33t30.5 21q17 0 28 -20.5t11 -31.5z" />
    <glyph glyph-name="k" unicode="k" horiz-adv-x="448" 
d="M56 83h23q-2 343 -16 544h-19q-16 2 -16 21t15 20h55q10 0 10 -21q11 -113 11 -366q142 95 232 108q27 4 34 -24q-1 -10 -6 -11q-95 -31 -253 -114q92 -82 142.5 -102t113.5 -45q1 -1 -8 -26q-2 -5 -18 -5q-87 10 -235 123q4 -63 4 -102h25q10 0 10 -20.5t-5 -20.5h-98
q-16 2 -16 21t15 20z" />
    <glyph glyph-name="l" unicode="l" horiz-adv-x="260" 
d="M82 687h66q10 0 10 -20q7 -332 -3 -581h27q10 0 10 -20.5t-5 -20.5h-98q-16 2 -16 21t15 20h28q-4 83 -7 250q-4 177 0 310h-26q-16 2 -16 21t15 20z" />
    <glyph glyph-name="m" unicode="m" horiz-adv-x="588" 
d="M66 93h25q-27 147 -28 245h-23q-16 2 -16 21t15 20h54q9 0 10 -17l11 -52q62 61 111 58q75 -4 110 -87q50 78 85 76q62 -3 77 -44q34 -79 29 -179l-2 -29h26q10 0 10 -20.5t-5 -20.5h-98q-16 2 -16 21t15 20h25q1 69 -4 134q-6 62 -46 72q-33 1 -56 -29t-25 -66l-14 -110
q-3 -14 -22 -13q-21 1 -20 14q3 52 6 120q-1 55 -15 70q-15 23 -62 25q-54 3 -107 -40q11 -87 28 -189q26 -1 26 -21t-5 -20h-98q-16 2 -16 21t15 20z" />
    <glyph glyph-name="n" unicode="n" horiz-adv-x="452" 
d="M68 113h24q-6 68 -9 164q-1 53 -1 91h-25q-16 2 -16 21t15 20h59q12 -2 9 -81q84 68 141 61q25 -3 60 -23q50 -25 57 -106q4 -83 1 -155h27q10 0 10 -20.5t-5 -20.5h-98q-16 2 -16 21t15 20h25q-3 53 -2 126q1 110 -102 115q-38 0 -71 -33q-22 -25 -28 -61q-3 -30 1 -84
q2 -24 4 -55h19q10 0 10 -20.5t-5 -20.5h-98q-16 2 -16 21t15 20z" />
    <glyph glyph-name="o" unicode="o" horiz-adv-x="440" 
d="M397 235q0 -69 -47 -113q-48 -48 -149 -44q-143 11 -154 162q0 52 19 97q14 32 48.5 57.5t69.5 25.5q76 4 123 -29q94 -64 90 -156zM343 225q9 82 -54 122q-36 27 -72 27q-46 0 -73 -19q-47 -32 -47 -104t47 -105q36 -22 72 -22q118 0 127 101z" />
    <glyph glyph-name="p" unicode="p" horiz-adv-x="388" 
d="M333 248q0 -52 -33 -96q-32 -46 -79 -46q-61 0 -115 26q11 -109 7 -181q0 -5 -18 -5q-16 0 -17 1q-7 26 -7 68q-12 205 -16 345l-22 9q-15 9 -7.5 27t21.5 12l48 -20q39 20 85 20q44 0 77 -18q43 -22 59.5 -58t16.5 -84zM287 251q0 23 -14 60t-51 46t-65.5 6.5
t-47.5 -26.5q-12 -12 -12 -70q0 -5 9 -97q51 -31 88 -26q93 14 93 107z" />
    <glyph glyph-name="q" unicode="q" horiz-adv-x="444" 
d="M363 -31q-2 -11 -23 -12q-8 -1 -8 -2q-4 3 -8.5 54.5t-1.5 198.5q-76 -142 -161 -128q-31 5 -54 29t-31 53q-8 47 0 91q13 78 58.5 118.5t113.5 28.5q36 -5 57 -16.5t45 -26.5q15 -10 14 -13q-8 -99 -1 -375zM317 263q4 29 1 54q-30 36 -78 46q-93 -10 -113 -69.5
t-15 -104.5q16 -56 60 -64q47 -8 89 22t56 116z" />
    <glyph glyph-name="r" unicode="r" horiz-adv-x="380" 
d="M57 104h20q0 100 -13 310h-17q-16 2 -16 21t15 20h19q35 -1 44 -95q87 45 133 38q37 -7 69 -29q34 -22 32 -42t-19 -18q-1 0 -32.5 21t-51.5 22q-18 2 -46 -5q-64 -23 -69 -84q-2 -21 1 -81q3 -44 3 -78h22q10 0 10 -20.5t-5 -20.5h-98q-16 2 -16 21t15 20z" />
    <glyph glyph-name="s" unicode="s" horiz-adv-x="420" 
d="M39 88v94q0 10 20 10t21 -5v-21q28 -37 44 -41q90 -26 168.5 -3.5t-13.5 69.5q-102 37 -163 113q-17 24 -17 65t17 61t40 29t50 9t59 -11q24 -8 68 -41q13 5 20 5q22 0 23 -5v-98q-2 -16 -21.5 -16t-19.5 15v38q-86 67 -123 68.5t-52 -17.5q-14 -17 -12.5 -40.5
t24.5 -56.5q35 -34 78 -56q32 -12 91 -43q32 -16 32 -46q0 -35 -20 -59q-43 -43 -118 -43q-45 0 -80 8q-33 6 -71 24q-10 -21 -25 -21q-20 0 -20 15z" />
    <glyph glyph-name="t" unicode="t" horiz-adv-x="480" 
d="M441 375q0 -21 -5 -21l-198 -9q-5 -86 9 -196q12 -40 56 -40h66q18 -2 18 -27q0 -17 -22 -19h-72q-66 0 -83 23q-27 112 -27 264q-94 0 -137 8q-17 2 -17 17.5t6 16.5q46 8 148 -1q0 76 4 140t19 94q1 3 16 3q22 0 23 -6q-16 -135 -11 -230q50 0 114 2t78 1q15 -2 15 -20
z" />
    <glyph glyph-name="u" unicode="u" horiz-adv-x="460" 
d="M37 393h43q6 0 8 -5q3 -4 4 -7q-4 -161 29 -231q16 -41 73 -41q52 0 84 28q43 39 48 89q0 75 -4 172h-32q-16 2 -16 21.5t15 20.5h47q23 0 29 -39q12 -71 8 -161q-4 -63 6 -89q13 -13 32 -43q6 -16 6 -23q0 -13 -8 -17q-5 -2 -10 -2q-22 0 -58 73q-57 -51 -83 -62
q-29 -11 -81 -11q-14 0 -39.5 9t-35.5 19q-29 22 -44 77q-18 65 -11 179q-25 5 -25 23q0 19 15 20z" />
    <glyph glyph-name="v" unicode="v" horiz-adv-x="420" 
d="M34 418h84q10 0 10 -20.5t-5 -20.5h-41q18 -33 25 -45q32 -60 60 -120q8 -13 40 -72q38 52 47 73q34 69 82 164h-28q-16 2 -16 21t15 20h84q10 0 10 -20t-23 -22q-17 -55 -77 -160q-78 -134 -87 -134q-19 -6 -41 29q-117 192 -143 265q-11 7 -11 21q0 20 15 21z" />
    <glyph glyph-name="w" unicode="w" horiz-adv-x="640" 
d="M34 405h84q10 0 10 -20.5t-5 -20.5h-27q17 -35 24 -51q14 -33 63 -125q8 -17 37 -53q29 36 41.5 68t24.5 92q13 60 20 88q9 25 29 25q9 0 15 -8l36 -121q16 -62 61 -145q23 34 63 162q11 35 27 74q-24 8 -24 24q0 20 15 21h84q10 0 10 -20.5t-5 -20.5h-28
q-15 -47 -43 -126q-44 -119 -63 -162q-12 -20 -37 -20q-17 0 -45 52q-31 54 -64 198q-43 -156 -59 -190q-23 -44 -58 -44q-32 0 -67 53q-90 154 -112 227q-22 4 -22 22q0 20 15 21z" />
    <glyph glyph-name="x" unicode="x" horiz-adv-x="460" 
d="M34 108h19q8 7 15 10q44 29 151 107q-48 48 -112 120q-3 3 -8 13h-32q-16 2 -16 21t15 20h84q10 0 10 -22q0 -5 -2 -16l91 -106q54 71 96 122q-16 14 -16 26q0 20 15 21h84q10 0 10 -20.5t-5 -20.5h-30q-17 -32 -47 -71q-32 -44 -73 -90l78 -78q25 -25 43 -46h25
q10 0 10 -20.5t-5 -20.5h-88q-16 2 -16 22q0 5 2 17q-25 25 -86 96q-70 -59 -118 -92v-4q0 -29 -5 -29h-88q-16 2 -16 21t15 20z" />
    <glyph glyph-name="y" unicode="y" horiz-adv-x="440" 
d="M34 402h84q10 0 10 -20.5t-5 -20.5h-33q39 -63 50 -79q49 -69 119 -129q43 64 67 170q2 5 2 19q-19 7 -19 23q0 20 15 21h84q10 0 10 -20.5t-5 -20.5h-28q-8 -35 -18 -72q-21 -84 -80 -178q-47 -70 -93 -117q-64 -60 -104 -60q-31 0 -31 18q0 9 5 13q14 4 40 22
q67 45 107 102q5 5 16 26q0 23 -28 45t-91 108q-45 63 -60 108q-29 3 -29 22t15 20z" />
    <glyph glyph-name="z" unicode="z" horiz-adv-x="460" 
d="M421 104q0 -12 3 -10q-219 -24 -320 -24q-39 0 -39 16q0 11 32 47q47 51 225 184q-92 13 -181 21q-98 7 -101 10q-1 1 -1 10t9 16q9 6 27 6q60 0 247 -20q20 -3 35 -16q6 -7 5 -28.5t-17 -35.5q-121 -84 -203 -178q109 14 223 22q35 4 53 -9q3 -2 3 -11z" />
    <glyph glyph-name="braceleft" unicode="{" horiz-adv-x="500" 
d="M439 -34q0 -6 -5 -10t-14 -7q-10 -3 -23 -4t-25 0q-54 5 -88 21.5t-53 41.5q-20 26 -26 62.5t-2 79.5q6 79 50 157q-35 56 -120 64q-25 2 -23.5 18t4.5 20q2 4 10 8t26 8q18 5 44.5 11t69.5 30q-65 93 -59 164t27 106q21 36 47 58t51 32q26 9 39 9q30 3 35 -3t9 -12
q2 -3 1.5 -4.5t6.5 -2.5q-29 -1 -56 -13t-48 -33q-23 -22 -38 -50.5t-17 -58.5q-3 -28 -0.5 -47.5t8.5 -37.5q5 -19 11.5 -36.5t11.5 -38.5q13 -46 3 -59t-19 -19q-11 -7 -57 -31q36 -16 47.5 -21.5t27.5 -17.5t15 -24t-7 -21q-52 -93 -55 -213q-2 -95 155 -107
q8 -1 22.5 -1.5t13.5 -17.5z" />
    <glyph glyph-name="bar" unicode="|" horiz-adv-x="276" 
d="M157 43q1 -30 -5 -31.5t-18 -1.5q-11 0 -11 9q-8 256 -8 433.5t8 305.5q0 8 6.5 17t14.5 9q9 0 9 -33q4 -552 4 -708z" />
    <glyph glyph-name="braceright" unicode="}" horiz-adv-x="500" 
d="M83 -34q-2 17 12.5 17.5t22.5 1.5q158 12 155 107q-2 120 -54 213q-6 9 -7 21t15 24t27.5 17.5t47.5 21.5q-46 24 -56 30.5t-20 19.5t2 59q6 21 12.5 38.5t11.5 36.5q6 18 8.5 37t0.5 49q-2 29 -17.5 57.5t-37.5 50.5q-23 21 -50 33t-54 13q6 0 5.5 1.5t2.5 5.5q3 6 8 12
t35 3q13 0 38.5 -9.5t51.5 -31.5t47 -57.5t27 -106.5t-57 -164q40 -24 67.5 -30t45.5 -11q17 -4 25.5 -8.5t10.5 -7.5q2 -4 3.5 -20.5t-23.5 -18.5q-85 -7 -120 -62q43 -79 50 -159q4 -42 -2 -78.5t-25 -62.5q-20 -25 -54 -41.5t-88 -21.5q-12 -1 -25 0t-23 4q-9 3 -14 7
t-5 10z" />
    <glyph glyph-name="asciitilde" unicode="~" horiz-adv-x="636" 
d="M601 397q0 -44 -79 -80q-57 -27 -90.5 -27t-74.5 13q-42 13 -87 48t-100 35q-44 0 -74.5 -44t-42.5 -44q-18 0 -18 23q0 35 47 75t94 40q28 0 70.5 -23t90.5 -48q47 -25 89 -25t69 13q18 10 72 60q5 7 16.5 7t17.5 -23z" />
    <glyph glyph-name="uni007F" horiz-adv-x="1000" 
d="M0 0z" />
    <glyph glyph-name="exclamdown" unicode="&#xa1;" horiz-adv-x="824" 
d="M434 659v-55h-55v55h55zM430 328v-217h-47v217l15 200h16z" />
    <glyph glyph-name="currency" unicode="&#xa4;" horiz-adv-x="824" 
d="M666 634l37 -31l-97 -87q22 -40 30.5 -71.5t8.5 -61.5q0 -37 -9 -71.5t-37 -73.5q34 -30 59 -53.5t38 -35.5l-25 -37l-105 88q-40 -35 -79 -46.5t-79 -11.5q-44 0 -81.5 11.5t-80.5 43.5q-33 -29 -60 -52.5t-37 -32.5l-25 37l92 85q-27 38 -40 73.5t-13 75.5q0 66 45 138
q-31 28 -57 51.5t-33 30.5l35 31l84 -78q42 40 81 52t90 12q45 0 84.5 -13t82.5 -52zM598 383q0 78 -56 134q-29 29 -62.5 43.5t-71.5 16.5q-41 -2 -76 -16t-66 -44q-29 -30 -43 -63.5t-16 -70.5q3 -79 59 -138q31 -30 66 -44t76 -16q37 2 71 16t63 44q56 57 56 138z" />
    <glyph glyph-name="section" unicode="&#xa7;" horiz-adv-x="824" 
d="M340 633q0 -30 16 -58t40 -54q12 -14 23.5 -26.5t23.5 -26.5q13 -14 25 -27t23 -26q23 -27 36.5 -56.5t9.5 -59.5q-3 -23 -24 -35.5t-76 -23.5q34 -25 41 -32q6 -7 11.5 -16t9.5 -24q8 -17 11.5 -33t3.5 -34q0 -15 -3.5 -32t-13.5 -38q-13 -24 -36.5 -35.5t-49.5 -11.5
q-25 0 -51.5 11t-44.5 33q-11 14 -13.5 29t-0.5 21q7 10 13 12.5t17 -5.5q14 -4 17.5 -11t3.5 -22v-10q0 -15 31 -77v29q-18 17 13 10q17 0 33 4t29 21q19 26 19 54q0 9 -2.5 18t-5.5 19q-8 27 -23 50.5t-60 68.5v-4l-26.5 26.5t-45.5 53.5q-9 16 -16 33.5t-7 36.5
q0 8 2.5 18.5t6.5 18.5q10 19 25.5 28.5t54.5 18.5q-20 24 -25 31l-10 14q-10 18 -19.5 42t-12.5 45q-2 32 4.5 55.5t18.5 37.5q13 14 32 21.5t43 8.5q29 2 53.5 -11t35.5 -30q14 -19 14 -33t-12 -21q-6 -6 -8 -6.5t-4 0.5q-4 1 -8.5 5.5t-9.5 8.5q-6 9 -7.5 22t-1.5 25
t-20 22t-39 6q-22 0 -41.5 -19t-22.5 -60zM461 251q24 3 36 19t8 32q0 15 -6 28.5t-13 25.5l54 -90l32 -32q-114 164 -142 185.5t-50 25.5q-26 9 -39.5 -4t-19.5 -33q1 -19 9.5 -41t18.5 -37q34 -42 64 -62.5t48 -16.5z" />
    <glyph glyph-name="dieresis" unicode="&#xa8;" horiz-adv-x="824" 
d="M655 781v-69h-68v69h68zM243 781v-69h-68v69h68z" />
    <glyph glyph-name="ordfeminine" unicode="&#xaa;" horiz-adv-x="824" 
d="M396 653q-20 0 -35 -14.5t-15 -62.5q43 14 73 18q8 3 16 7.5t8 8.5q0 27 -14 35t-33 8zM516 483v-38q-12 -5 -17 -6.5t-10 -1.5q-23 0 -38 24q-32 -31 -78 -31q-39 0 -61.5 16t-22.5 56q0 23 9.5 38.5t27.5 26.5q13 7 76 32h-106q5 47 34 71t67 24q19 0 35.5 -3.5
t29.5 -13.5q12 -9 19.5 -24.5t7.5 -47.5v-135zM539 390v-45h-265v45h265zM375 471q31 0 49 17q17 15 20 67q-39 -6 -56 -9q-19 -3 -29 -8q-24 -9 -24 -37q0 -30 40 -30z" />
    <glyph glyph-name="uni00AD" unicode="&#xad;" horiz-adv-x="824" 
d="M633 382v-30h-440v30h440z" />
    <glyph glyph-name="registered" unicode="&#xae;" horiz-adv-x="824" 
d="M408 29q-135 0 -229 96q-94 99 -94 231q0 133 94 229q96 94 229 94q134 0 231 -94q96 -95 96 -229t-96 -231q-96 -96 -231 -96zM408 641q-119 0 -202 -83q-83 -81 -83 -202q0 -119 83 -202t202 -83t205 83q84 82 84 202q0 121 -84 202q-86 83 -205 83zM565 152h-68
l-46 100q-34 74 -77 74h-35v-174h-57v412h120q70 0 109 -29t39 -83q0 -38 -23 -65t-80 -46q39 -31 65 -78zM339 518v-143h60q90 0 90 70q0 38 -24 55.5t-75 17.5h-51z" />
    <glyph glyph-name="degree" unicode="&#xb0;" horiz-adv-x="824" 
d="M116 782q39 0 68 -30q32 -28 32 -72q0 -42 -32 -72q-29 -30 -68 -30t-68 30q-25 31 -25 72q0 43 25 72q29 30 68 30v0zM116 750q-28 0 -47 -20t-19 -50t19 -50t47 -20q31 0 49.5 20t18.5 50t-18.5 50t-49.5 20v0z" />
    <glyph glyph-name="plusminus" unicode="&#xb1;" horiz-adv-x="824" 
d="M139 453h260v216h34v-216h259v-33h-259v-216h-34v216h-260v33zM139 102h553v-31h-553v31z" />
    <glyph glyph-name="uni00B2" unicode="&#xb2;" horiz-adv-x="824" 
d="M286 720q0 -23 -13.5 -38.5t-34.5 -30.5q-24 -17 -36 -25t-27 -36h107v-24h-128q0 30 20 54.5t46 39.5q29 18 37.5 32t8.5 28q0 46 -42 46q-23 0 -34.5 -19.5t-11.5 -36.5h-24q0 25 19.5 48.5t50.5 23.5q62 0 62 -62z" />
    <glyph glyph-name="uni00B3" unicode="&#xb3;" horiz-adv-x="824" 
d="M298 631q0 -35 -18.5 -50t-51.5 -15q-36 0 -55 18.5t-19 49.5h24q0 -23 14.5 -35.5t35.5 -12.5q24 0 37 10.5t13 36.5q0 16 -12.5 26.5t-27.5 10.5h-24v20h28q24 0 24 43q0 12 -8.5 22.5t-29.5 10.5q-22 0 -34 -17.5t-12 -34.5h-24q4 26 19.5 47t50.5 21q28 0 47 -13.5
t19 -37.5q0 -28 -30 -50q21 -15 27.5 -27t6.5 -23z" />
    <glyph glyph-name="acute" unicode="&#xb4;" horiz-adv-x="824" 
d="M402 705h82l-114 -174h-37z" />
    <glyph glyph-name="paragraph" unicode="&#xb6;" horiz-adv-x="824" 
d="M320 231h240v382h45v-429h-285v-93l-190 117l190 118v-95z" />
    <glyph glyph-name="periodcentered" unicode="&#xb7;" horiz-adv-x="824" 
d="M447 401v-69h-67v69h67z" />
    <glyph glyph-name="cedilla" unicode="&#xb8;" horiz-adv-x="824" 
d="M361 33l74 77q-28 28 -45.5 45t-28.5 28v63l133 -134l-133 -140v61z" />
    <glyph glyph-name="uni00B9" unicode="&#xb9;" horiz-adv-x="824" 
d="M238 778v-212h-20v164h-48v12q20 0 34.5 12t20.5 24h13z" />
    <glyph glyph-name="ordmasculine" unicode="&#xba;" horiz-adv-x="824" 
d="M519 560q0 -59 -30.5 -94.5t-84.5 -35.5t-84.5 35.5t-30.5 94.5q0 62 30.5 95.5t84.5 38.5q54 -5 84.5 -38.5t30.5 -95.5zM539 390v-45h-265v45h265zM404 471q34 0 50.5 24.5t19.5 64.5q-3 41 -19 67t-51 26q-31 0 -50 -25.5t-19 -67.5q0 -38 19 -63.5t50 -25.5z" />
    <glyph glyph-name="onequarter" unicode="&#xbc;" horiz-adv-x="824" 
d="M320 694v-272h-28v192h-56v24q23 0 39.5 14.5t20.5 41.5h24zM626 610l18 -18l-406 -425l-21 17zM644 178v-28h-44v-68h-28v68h-120v31l122 173h26v-176h44zM483 178h89v128z" />
    <glyph glyph-name="onehalf" unicode="&#xbd;" horiz-adv-x="824" 
d="M323 694v-272h-28v192h-56v24q23 0 39.5 14.5t20.5 41.5h24zM625 609l21 -17l-409 -426l-18 18zM647 110v-32h-176q0 16 7 35.5t19 34.5q11 14 27 25t34 22q20 12 35 27t18 27q4 12 4 28q0 20 -15 34.5t-39 14.5q-34 0 -46 -26t-12 -50h-28q-4 43 19.5 71.5t66.5 28.5
q41 0 63.5 -17t22.5 -57q0 -44 -29 -66q-15 -12 -32 -25t-42 -29q-30 -18 -45 -46h148z" />
    <glyph glyph-name="threequarters" unicode="&#xbe;" horiz-adv-x="824" 
d="M381 503q-4 -43 -29.5 -64t-60.5 -21q-47 0 -70.5 27t-23.5 69h32q-3 -25 13 -46.5t44 -21.5t47.5 13t19.5 41q0 25 -19 39.5t-37 14.5h-28v24h28q15 0 29.5 12t14.5 34q0 25 -15.5 35.5t-39.5 10.5q-28 0 -42.5 -21.5t-14.5 -42.5h-24q0 34 21.5 63t60.5 29
q32 0 57.5 -17.5t28.5 -51.5q0 -17 -6 -28.5t-29 -30.5q27 -17 35 -33t8 -34zM627 611l18 -18l-410 -426l-18 18zM638 174v-24h-48l-1 -68h-27v68h-124v27l122 174h30v-176zM466 174h95v127z" />
    <glyph glyph-name="questiondown" unicode="&#xbf;" horiz-adv-x="824" 
d="M437 659v-55h-58v55h58zM557 274q0 -70 -41 -114.5t-112 -44.5q-31 0 -57 8.5t-44 24.5q-19 16 -29.5 40t-10.5 56q0 37 16.5 68.5t18.5 33.5v-4q65 65 78.5 105.5t13.5 80.5h36q0 -21 -5 -48.5t-14 -49.5q-9 -24 -24.5 -44.5t-36.5 -41.5q-23 -20 -35 -46t-12 -55
q0 -47 31 -71.5t74 -24.5q59 0 88 39.5t29 87.5h36z" />
    <glyph glyph-name="AE" unicode="&#xc6;" horiz-adv-x="824" 
d="M675 157v-42h-284v163h-129q-18 -46 -35.5 -87.5t-30.5 -75.5h-54l223 529h306v-43h-230v-191h210v-42h-210v-211h234zM280 321h111v272z" />
    <glyph glyph-name="Eth" unicode="&#xd0;" horiz-adv-x="824" 
d="M647 370q0 -134 -59.5 -199.5t-172.5 -65.5h-168v269h-89v34h89v226h168q113 0 172.5 -65t59.5 -199zM601 370q0 116 -49 169t-160 53h-99v-184h90v-34h-90v-226h99q111 0 160 53t49 169z" />
    <glyph glyph-name="multiply" unicode="&#xd7;" horiz-adv-x="824" 
d="M654 95l-241 248q-54 -61 -112 -123.5t-117 -120.5q-5 7 -11 12.5t-15 10.5l236 244q-57 57 -112.5 115.5t-107.5 116.5q7 7 10.5 12.5t9.5 11.5l220 -232q57 56 111.5 114.5t106.5 115.5q9 -6 14 -11t9 -11l-217 -231q62 -63 120.5 -123.5t118.5 -123.5z" />
    <glyph glyph-name="Oslash" unicode="&#xd8;" horiz-adv-x="824" 
d="M643 384q0 -135 -68 -206q-67 -70 -165 -70q-33 0 -60 8t-60 23q-19 -31 -34.5 -57t-23.5 -40l-24 15l59 99q-53 39 -75.5 93t-22.5 135q2 67 20.5 118t49.5 86q66 72 171 72q62 0 125 -38q16 29 28.5 51t17.5 31l27 -16l-51 -83q41 -41 63.5 -95.5t22.5 -125.5zM597 384
q0 50 -13.5 93t-45.5 85q-62 -106 -114.5 -194.5t-110.5 -189.5q26 -19 49.5 -23t47.5 -4q82 0 135 64q52 64 52 169zM512 584q-28 18 -52.5 25.5t-49.5 8.5q-83 -7 -135 -68.5t-56 -165.5q0 -53 17 -99t54 -88z" />
    <glyph glyph-name="Thorn" unicode="&#xde;" horiz-adv-x="824" 
d="M582 369q-5 -94 -70 -140q-61 -44 -148 -47v-78h-50v529h50v-78q86 -3 148 -46q65 -47 70 -140zM477 254q55 36 59 115q-5 75 -59 111q-25 18 -50 27t-63 10v-300q63 1 113 37z" />
    <glyph glyph-name="germandbls" unicode="&#xdf;" horiz-adv-x="824" 
d="M628 254q0 -96 -52 -132q-26 -18 -56.5 -27.5t-64.5 -9.5q-63 0 -102.5 31t-47.5 88h49q3 -42 33.5 -59t67.5 -14q54 -5 88 21q19 13 28 39.5t11 63.5q-3 24 -13.5 45.5t-28.5 38.5q-38 35 -97 35h-170v-250h-49v522h218q31 2 60 -4t50 -21q45 -29 45 -109
q0 -37 -13.5 -64t-64.5 -53q62 -22 85.5 -57.5t23.5 -83.5zM547 508q0 50 -27 73.5t-76 23.5h-171v-190h171q53 0 79.5 27t23.5 65v1z" />
    <glyph glyph-name="ae" unicode="&#xe6;" horiz-adv-x="824" 
d="M417 349q2 -69 27.5 -108t80.5 -39q50 0 76 27t36 65h46q-13 -60 -52 -95t-106 -39q-45 0 -72 15t-57 65q-25 -44 -63 -60t-89 -20q-55 0 -86.5 22.5t-35.5 77.5q2 37 17 61t40 37q26 12 63.5 21.5t79.5 14.5q50 7 50 44q0 46 -26 65t-67 19q-42 0 -68 -23.5t-28 -65.5
h-42q0 57 40 92t102 35q40 0 70 -10t53 -55q32 38 56 51.5t63 13.5q89 -5 123 -66q35 -61 35 -145h-266zM639 387q-4 53 -30 91q-28 37 -83 44q-53 -4 -80 -40t-29 -95h222zM372 374q-19 -8 -24.5 -10.5t-9.5 -3.5q-82 -15 -126.5 -33.5t-44.5 -62.5q0 -35 21.5 -50.5
t58.5 -15.5q55 4 90 32.5t35 93.5v50z" />
    <glyph glyph-name="eth" unicode="&#xf0;" horiz-adv-x="824" 
d="M440 573q-19 -14 -31 -25t-37 -36h14q37 0 53 -4t63 -23q-29 43 -38 55.5t-24 32.5zM577 317q0 -94 -46 -147.5t-127 -57.5q-80 4 -126.5 57t-46.5 143q0 86 47 144q42 53 138 57l-34 41l38 39q-16 17 -29.5 27t-19.5 15l14 23q31 -17 59 -38q16 16 27.5 26t13.5 12
l18 -19l-38 -34q60 -65 86 -136.5t26 -151.5zM532 312q0 72 -34.5 114.5t-93.5 47.5q-59 -5 -93 -48t-34 -114q0 -72 34 -115t93 -43t93.5 42.5t34.5 115.5z" />
    <glyph glyph-name="divide" unicode="&#xf7;" horiz-adv-x="824" 
d="M127 384h572v-35h-572v35zM413 658q22 0 36.5 -15.5t14.5 -37.5q0 -20 -14.5 -35t-36.5 -15q-17 0 -32 15t-15 35q0 22 15 37.5t32 15.5v0zM414 178q20 0 35.5 -16t15.5 -35q0 -21 -15.5 -36.5t-35.5 -15.5q-15 0 -31.5 13.5t-16.5 38.5q0 19 15.5 35t32.5 16v0z" />
    <glyph glyph-name="oslash" unicode="&#xf8;" horiz-adv-x="824" 
d="M581 370q-5 -90 -51 -142.5t-123 -57.5q-15 2 -30.5 5t-37.5 10q-12 -22 -21.5 -40.5t-12.5 -24.5l-27 11l32 68q-43 29 -59 73t-16 98q0 86 46 144q46 55 127 55q15 0 29.5 -2.5t36.5 -11.5q10 23 17.5 38l9.5 19l29 -12l-31 -61q41 -32 61.5 -72.5t20.5 -96.5zM536 370
q0 37 -11 67.5t-39 65.5q-38 -82 -67 -143.5t-65 -139.5q22 -7 32 -8t22 -1q59 0 93.5 43t34.5 116zM456 521q-25 8 -47 11q-58 -4 -93.5 -47t-38.5 -115q0 -39 10.5 -70.5t38.5 -67.5z" />
    <glyph glyph-name="thorn" unicode="&#xfe;" horiz-adv-x="824" 
d="M593 321q0 -45 -12 -81t-34 -62t-53 -40.5t-70 -15.5q-23 0 -41.5 4.5t-51.5 25.5v-92h-45v596h45v-164q51 29 93 29q77 0 123 -55q46 -57 46 -145zM548 321q0 73 -34.5 116t-90.5 47q-53 0 -92 -42v-240q22 -25 44 -32t50 -7q55 0 89 43t34 115z" />
    <glyph glyph-name="dcroat" unicode="&#x111;" horiz-adv-x="824" 
d="M624 598v-38h-70v-427h-41v63q-36 -49 -65 -61.5t-63 -12.5q-45 2 -76.5 17.5t-51.5 41.5q-21 26 -31 61.5t-10 78.5q0 79 41 139q41 57 128 61q32 0 60.5 -15t67.5 -63v117h-73v38h73v58h41v-58h70zM513 321q0 64 -33 110q-33 49 -96 53q-70 -7 -97 -53
q-29 -50 -25 -110q-4 -59 25 -109q29 -49 98 -49q68 0 97 49q31 46 31 109z" />
    <glyph glyph-name="Hbar" unicode="&#x126;" horiz-adv-x="824" 
d="M647 550v-38h-38v-397h-47v253h-304v-253h-50v397h-39v38h39v94h50v-94h304v94h47v-94h38zM258 414h304v98h-304v-98z" />
    <glyph glyph-name="hbar" unicode="&#x127;" horiz-adv-x="824" 
d="M573 133h-45v242q0 41 -21 73t-72 36q-52 -5 -84 -41t-32 -86v-224h-42v427h-69v34h69v62h42v-62h131v-34h-131v-112q36 44 63 58.5t60 14.5q70 0 100.5 -39t30.5 -108v-241z" />
    <glyph glyph-name="dotlessi" unicode="&#x131;" horiz-adv-x="824" 
d="M428 550v-376h-45v376h45z" />
    <glyph glyph-name="IJ" unicode="&#x132;" horiz-adv-x="824" 
d="M614 634v-368q0 -93 -38.5 -132.5t-112.5 -39.5q-70 0 -107.5 46t-33.5 128h47q0 -63 25.5 -97.5t76.5 -34.5q43 0 68 29.5t25 94.5v374h50zM272 634v-529h-50v529h50z" />
    <glyph glyph-name="ij" unicode="&#x133;" horiz-adv-x="824" 
d="M496 656v-76h-45v76h45zM358 656v-76h-50v76h50zM492 510v-403q3 -43 -14.5 -66t-51.5 -23h-29v37h29q25 0 25 41v414h41zM354 510v-377h-42v377h42z" />
    <glyph glyph-name="kgreenlandic" unicode="&#x138;" horiz-adv-x="824" 
d="M428 419q45 -66 90.5 -132.5t74.5 -107.5h-57l-139 206q-26 -21 -41.5 -35.5t-35.5 -31.5v-139h-46v377h46v-182q63 58 108.5 100.5t88.5 81.5h64z" />
    <glyph glyph-name="Ldot" unicode="&#x13f;" horiz-adv-x="824" 
d="M519 461v-74h-73v74h73zM597 177v-42h-330v528h50v-486h280z" />
    <glyph glyph-name="ldot" unicode="&#x140;" horiz-adv-x="824" 
d="M512 425v-69h-69v69h69zM370 629v-523h-42v523h42z" />
    <glyph glyph-name="Lslash" unicode="&#x141;" horiz-adv-x="824" 
d="M612 148v-43h-330v223l-98 -98l-30 27l128 124v253h50v-208q41 43 67 70.5t42 43.5l26 -30l-135 -139v-223h280z" />
    <glyph glyph-name="lslash" unicode="&#x142;" horiz-adv-x="824" 
d="M489 487l23 -22l-81 -85v-284h-46v243l-65 -66l-23 22l88 85v238h46v-195z" />
    <glyph glyph-name="napostrophe" unicode="&#x149;" horiz-adv-x="824" 
d="M604 133h-45v242q0 41 -23.5 72t-73.5 37q-52 -5 -82 -41.5t-30 -85.5v-224h-46v377h46v-58q24 28 30.5 34t15.5 12q35 23 70 23q73 0 105.5 -39.5t32.5 -107.5v-241zM269 610v-78q0 -33 -24 -62.5t-52 -35.5v30q19 7 30 22t13 48h-43v76h76z" />
    <glyph glyph-name="Eng" unicode="&#x14a;" horiz-adv-x="824" 
d="M612 663v-520q0 -30 -6.5 -52.5t-19.5 -37.5q-15 -17 -37.5 -26t-56.5 -9q-59 0 -87.5 32.5t-28.5 83.5h46q0 -33 17.5 -53.5t52.5 -20.5q33 0 51 18.5t19 51.5q-40 59 -74.5 111t-68.5 104l-70 104t-91 135v-449h-46v528h54l296 -454v454h50z" />
    <glyph glyph-name="eng" unicode="&#x14b;" horiz-adv-x="824" 
d="M558 140q0 -56 -31 -84.5t-83 -30.5q-46 -2 -76 22.5t-36 73.5h45q4 -26 22 -42t44 -16q27 -3 48 14.5t21 55.5v240q0 43 -22 74t-70 37q-56 -4 -86 -40.5t-30 -86.5v-224h-46v377h46v-58q24 28 30.5 34t15.5 12q35 23 74 23q70 0 102 -39.5t32 -108.5v-233z" />
    <glyph glyph-name="OE" unicode="&#x152;" horiz-adv-x="824" 
d="M698 138v-42h-344q-231 0 -231 264t231 264h336v-42h-245v-191h230v-42h-230v-211h253zM399 138v444h-16q-121 0 -167.5 -53t-42.5 -169q-4 -116 42.5 -169t167.5 -53h16z" />
    <glyph glyph-name="oe" unicode="&#x153;" horiz-adv-x="824" 
d="M439 344q2 -69 26.5 -108t81.5 -39q46 0 71 27.5t32 64.5h46q-10 -60 -47 -95t-102 -39q-46 4 -75 20.5t-55 66.5q-52 -81 -139 -87q-81 4 -123.5 57t-42.5 143q0 45 11 82t32 64q20 25 50.5 39.5t71.5 14.5q43 0 76.5 -21t63.5 -70q25 52 53 71.5t77 19.5q85 -5 119 -65
q34 -62 30 -146h-257zM652 382q-3 33 -10 54.5t-20 38.5t-32 28.5t-44 13.5q-58 -7 -80 -44q-11 -19 -17.5 -38t-9.5 -53h213zM397 355q0 72 -31 114.5t-89 47.5q-63 -5 -91 -47.5t-28 -114.5t28.5 -115t90.5 -43q59 0 89.5 43t30.5 115z" />
    <glyph glyph-name="Tbar" unicode="&#x166;" horiz-adv-x="824" 
d="M609 624v-42h-176v-215h102v-30h-102v-241h-46v241h-105v30h105v215h-175v42h397z" />
    <glyph glyph-name="tbar" unicode="&#x167;" horiz-adv-x="824" 
d="M493 125h-46q-45 0 -61.5 17t-16.5 74v151h-58v44h58v56h-66v48h66v115h55v-115h69v-48h-69v-56h65v-44h-65v-163q0 -36 27 -36q18 0 42 6v-49z" />
    <glyph glyph-name="caron" unicode="&#x2c7;" horiz-adv-x="824" 
d="M543 704l23 -36l-161 -84l-172 84l30 34l140 -66z" />
    <glyph glyph-name="uni02D0" unicode="&#x2d0;" horiz-adv-x="824" 
d="M498 541l-95 -105l-99 105h194zM499 186h-198l102 102z" />
    <glyph glyph-name="breve" unicode="&#x2d8;" horiz-adv-x="824" 
d="M568 677q-70 -97 -163 -92q-31 -2 -55 3.5t-45 18.5q-23 13 -42 33t-31 37l42 27q24 -35 56 -55.5t74 -20.5q36 0 69 21t54 56z" />
    <glyph glyph-name="dotaccent" unicode="&#x2d9;" horiz-adv-x="824" 
d="M460 614q0 -29 -16.5 -44.5t-40.5 -15.5q-28 0 -45.5 16t-17.5 44t17.5 44t45.5 16q24 0 40.5 -15.5t16.5 -44.5z" />
    <glyph glyph-name="ring" unicode="&#x2da;" horiz-adv-x="824" 
d="M486 614q0 -40 -23.5 -63.5t-59.5 -27.5q-40 5 -65.5 28.5t-25.5 62.5q0 42 25 66.5t66 24.5q37 0 60 -24.5t23 -66.5zM443 614q0 18 -9.5 33t-29.5 15q-22 0 -35.5 -14t-13.5 -34t13.5 -34t35.5 -14q20 0 29.5 15t9.5 33z" />
    <glyph glyph-name="ogonek" unicode="&#x2db;" horiz-adv-x="824" 
d="M459 -27l-137 139l137 134v-63l-74 -73l41 -41t33 -34v-62z" />
    <glyph glyph-name="hungarumlaut" unicode="&#x2dd;" horiz-adv-x="824" 
d="M289 564q0 4 1 7q-2 -2 -3 -3.5t-2 -2.5zM380 689q-25 -41 -52 -72.5t-38 -45.5q3 18 16.5 56.5t30.5 87.5q5 14 14.5 28.5t14.5 25.5q8 11 19 14.5t18 -2.5q21 -12 8 -38q-6 -15 -12 -28.5t-19 -25.5v0zM400 563q0 2 2 8l-6 -6zM494 689q-28 -40 -54.5 -71.5
t-37.5 -46.5q3 20 16.5 59t28.5 85q5 14 15 28.5t14 25.5q8 11 19.5 14t19.5 -2h-1q22 -12 7 -38q-6 -15 -12 -28.5t-15 -25.5v0z" />
    <glyph glyph-name="Alpha" unicode="&#x391;" horiz-adv-x="824" 
d="M533 319q-22 56 -34 89l-24 66q-13 33 -25.5 66.5t-39.5 109.5q-28 -76 -41 -109t-25 -65q-13 -33 -26 -66.5t-35 -90.5h250zM668 89h-48l-75 191h-273q-22 -58 -41.5 -106t-33.5 -85h-48l232 596h54z" />
    <glyph glyph-name="Beta" unicode="&#x392;" horiz-adv-x="824" 
d="M610 256q0 64 -45.5 95.5t-123.5 31.5h-203v-251h203q36 0 64.5 5.5t55.5 18.5q20 20 34.5 43t14.5 57zM586 529q0 117 -141 117h-207v-228h205q73 0 105 32q17 16 27.5 38t10.5 41zM631 538q0 -41 -17.5 -72t-89.5 -60q81 -32 108 -66t27 -81q0 -44 -15.5 -75t-46.5 -54
q-27 -18 -65.5 -29.5t-88.5 -11.5h-250v596h250q39 0 111 -22t77 -125z" />
    <glyph glyph-name="Gamma" unicode="&#x393;" horiz-adv-x="824" 
d="M619 646h-353v-557h-49v596h402v-39z" />
    <glyph glyph-name="Delta" unicode="&#x394;" horiz-adv-x="824" 
d="M601 132q-31 78 -52.5 132.5t-42.5 108.5t-42 108.5t-58 148.5q-59 -149 -101.5 -256t-96.5 -242h393zM665 89h-517l238 596h41z" />
    <glyph glyph-name="Epsilon" unicode="&#x395;" horiz-adv-x="824" 
d="M623 89h-406v596h398v-39h-349v-228h330v-35h-330v-251h357v-43z" />
    <glyph glyph-name="Zeta" unicode="&#x396;" horiz-adv-x="824" 
d="M639 89h-462v46l402 511h-374v39h427v-42l-402 -511h409v-43z" />
    <glyph glyph-name="Eta" unicode="&#x397;" horiz-adv-x="824" 
d="M643 89h-48v298h-373v-298h-45v596h45v-263h373v263h48v-596z" />
    <glyph glyph-name="Theta" unicode="&#x398;" horiz-adv-x="824" 
d="M564 371h-319v35h319v-35zM633 389q0 54 -15.5 104.5t-48.5 86.5q-28 38 -71.5 57.5t-91.5 19.5t-91 -19.5t-71 -58.5q-29 -36 -47 -86t-18 -104q0 -58 19 -108.5t46 -89.5q29 -34 72 -54t90 -20q48 0 91.5 20t71.5 58q33 38 48.5 86.5t15.5 107.5zM683 389
q0 -75 -21 -133.5t-61 -94.5q-40 -42 -90 -62.5t-105 -20.5q-54 0 -104 20.5t-90 62.5q-40 36 -61 94.5t-21 133.5t21 131t61 94q40 41 90 61.5t104 20.5q55 0 105 -20.5t90 -61.5q40 -38 61 -94t21 -131z" />
    <glyph glyph-name="Iota" unicode="&#x399;" horiz-adv-x="824" 
d="M425 89h-42v596h42v-596z" />
    <glyph glyph-name="Kappa" unicode="&#x39a;" horiz-adv-x="824" 
d="M662 89h-56l-243 316q-38 -34 -62 -57.5t-55 -51.5v-207h-45v596h45v-327q63 60 104 99t83 79q42 39 83 78t75 71h57l-245 -246z" />
    <glyph glyph-name="Lambda" unicode="&#x39b;" horiz-adv-x="824" 
d="M668 89h-47l-211 560q-65 -170 -115.5 -304t-97.5 -256h-48l232 596h54z" />
    <glyph glyph-name="Mu" unicode="&#x39c;" horiz-adv-x="824" 
d="M699 89h-45v547q-78 -192 -128 -314t-95 -233h-41l-223 546v-546h-45v596h75l213 -540q65 163 116 292.5t98 247.5h75v-596z" />
    <glyph glyph-name="Nu" unicode="&#x39d;" horiz-adv-x="824" 
d="M647 89h-59l-362 523v-523h-45v596h55l363 -523v523h48v-596z" />
    <glyph glyph-name="Xi" unicode="&#x39e;" horiz-adv-x="824" 
d="M655 89h-501v43h501v-43zM560 383h-307v35h307v-35zM647 646h-489v39h489v-39z" />
    <glyph glyph-name="Omicron" unicode="&#x39f;" horiz-adv-x="824" 
d="M633 389q0 54 -15.5 104.5t-48.5 86.5q-28 38 -71.5 57.5t-91.5 19.5t-91 -19.5t-71 -58.5q-29 -36 -47 -86t-18 -104q0 -58 19 -108.5t46 -89.5q29 -34 72 -54t90 -20q48 0 91.5 20t71.5 58q33 38 48.5 86.5t15.5 107.5zM683 389q0 -75 -21 -133.5t-61 -94.5
q-40 -42 -90 -62.5t-105 -20.5q-54 0 -104 20.5t-90 62.5q-40 36 -61 94.5t-21 133.5t21 131t61 94q40 41 90 61.5t104 20.5q55 0 105 -20.5t90 -61.5q40 -38 61 -94t21 -131z" />
    <glyph glyph-name="Pi" unicode="&#x3a0;" horiz-adv-x="824" 
d="M619 89h-49v557h-331v-557h-49v596h429v-596z" />
    <glyph glyph-name="Rho" unicode="&#x3a1;" horiz-adv-x="824" 
d="M594 515q0 67 -39.5 99t-104.5 32h-196v-262h196q66 0 105 33.5t39 97.5zM644 515q0 -78 -47.5 -120t-139.5 -42h-203v-264h-49v596h261q38 0 70.5 -11.5t55.5 -35.5q24 -19 38 -51t14 -72z" />
    <glyph glyph-name="Sigma" unicode="&#x3a3;" horiz-adv-x="824" 
d="M620 89h-439v47l220 265q-61 67 -117 128t-103 114v42h426v-39h-366q66 -75 111.5 -126.5t84.5 -97.5v-36l-205 -254h388v-43z" />
    <glyph glyph-name="Tau" unicode="&#x3a4;" horiz-adv-x="824" 
d="M640 646h-212v-557h-41v557h-206v39h459v-39z" />
    <glyph glyph-name="Upsilon" unicode="&#x3a5;" horiz-adv-x="824" 
d="M667 685l-231 -343v-253h-36v253q-61 90 -124.5 184.5t-105.5 158.5h54l194 -306q59 92 106.5 167t87.5 139h55z" />
    <glyph glyph-name="Phi" unicode="&#x3a6;" horiz-adv-x="824" 
d="M383 556q-56 -3 -92.5 -14.5t-61.5 -30.5q-30 -19 -46 -50.5t-16 -71.5q0 -36 17 -65.5t46 -49.5q25 -18 61 -29.5t92 -14.5v326zM646 389q0 39 -18.5 71.5t-48.5 50.5q-26 20 -62 31t-92 14v-326q56 3 92 15t62 28q29 20 48 50t19 66zM687 389q0 -40 -19.5 -77.5
t-54.5 -63.5q-33 -21 -77.5 -36t-110.5 -21v-102h-42v102q-64 6 -109.5 21.5t-74.5 35.5q-32 26 -54.5 64t-22.5 77q0 48 21 84.5t98 87.5h-9q-3 -3 40.5 10.5t110.5 19.5v94h42v-94q67 -6 111.5 -19.5t41.5 -10.5h-7q77 -50 96.5 -87t19.5 -85z" />
    <glyph glyph-name="Chi" unicode="&#x3a7;" horiz-adv-x="824" 
d="M654 89h-58l-186 272q-56 -84 -101 -149.5t-85 -122.5h-58l222 304q-58 83 -114 163t-91 129h54l173 -251q54 77 95 137t79 114h54l-202 -291z" />
    <glyph glyph-name="Psi" unicode="&#x3a8;" horiz-adv-x="824" 
d="M696 641q-49 -28 -49 -77v-144q-6 -153 -214 -160v-171h-42v171q-47 3 -81 12t-86 41v-2q-9 6 -26 36.5t-17 70.5v138q-1 55 -52 88l38 16q30 -16 50 -52q9 -16 9 -48v-149q0 -23 14 -47t38 -36q23 -15 49 -21t64 -8v386h42v-386q41 2 67 7.5t49 20.5q20 12 35 36t15 48
v151q0 59 60 100z" />
    <glyph glyph-name="Omega" unicode="&#x3a9;" horiz-adv-x="824" 
d="M663 468q0 -82 -39.5 -138t-126.5 -78v-120h109v95h49v-134h-203v189q68 18 115 63.5t47 123.5q0 41 -16.5 73t-44.5 57q-30 28 -66 43.5t-73 15.5q-41 0 -76.5 -15.5t-65.5 -43.5q-28 -25 -44.5 -57t-16.5 -73q0 -79 49.5 -124t116.5 -63v-189h-207v134h48v-95h114v120
q-91 22 -130.5 78t-39.5 138q0 49 21 90t52 71q35 30 81.5 47t97.5 17q50 0 94.5 -17t80.5 -47q31 -30 52.5 -71.5t21.5 -89.5z" />
    <glyph glyph-name="alpha" unicode="&#x3b1;" horiz-adv-x="824" 
d="M484 289q0 83 -26 132.5t-74 49.5q-47 0 -73 -49.5t-26 -132.5q0 -38 6 -71.5t17 -57.5q12 -26 31 -42t45 -16q48 0 74 52t26 135zM614 135q-7 -36 -19.5 -51.5t-36.5 -15.5q-35 0 -68 74q-27 -51 -50.5 -62.5t-55.5 -11.5q-71 0 -107 55t-36 166q0 57 11.5 99t31.5 70
q19 26 45.5 39t57.5 13q27 0 48 -13t40 -32q9 -10 15 -23.5t26 -80.5q20 77 28 103.5t10 36.5l41 -10l-71 -264q0 -55 8 -88t27 -33q17 0 20.5 20t3.5 23z" />
    <glyph glyph-name="beta" unicode="&#x3b2;" horiz-adv-x="824" 
d="M551 244q0 60 -29 99q-13 13 -31.5 22t-34.5 9q-9 0 -15.5 -0.5t-14.5 -1.5t-18.5 -1.5t-13.5 -0.5v38q3 0 14 -0.5t19 -0.5q7 -1 13.5 -1.5t15.5 -0.5q31 0 51.5 30.5t20.5 85.5q0 50 -29 83.5t-78 33.5q-53 0 -80.5 -24t-27.5 -71v-380q16 -20 27 -28l20 -16
q19 -5 34 -7t39 -2q23 0 47.5 10t37.5 26q21 19 27 45t6 53zM600 244q0 -34 -10 -64.5t-33 -56.5q-46 -51 -122 -51q-27 0 -53 5t-69 30v-144h-49v573q0 32 11.5 57.5t29.5 42.5q27 18 53.5 27t61.5 9q33 0 62 -10.5t47 -33.5q25 -18 36 -47t11 -61q0 -45 -12 -71.5
t-53 -57.5q29 -19 39 -28.5t19 -24.5q16 -22 23.5 -44t7.5 -50z" />
    <glyph glyph-name="gamma" unicode="&#x3b3;" horiz-adv-x="824" 
d="M512 62q0 42 -56 119l-32 43q-81 -112 -87 -155q-8 -75 87 -89q103 14 88 82zM594 472l-149 -211q16 -23 25.5 -35t19.5 -25q30 -40 48 -76t18 -62q0 -28 -9 -51.5t-28 -37.5q-19 -13 -45.5 -20.5t-49.5 -7.5t-49.5 7.5t-44.5 19.5q-15 15 -26.5 38.5t-11.5 52.5
q0 25 18 61t48 76q10 14 19 25.5t25 34.5q-24 34 -43 61.5t-39 57.5q-20 28 -39 55.5t-25 34.5l40 14l128 -187q41 64 73 108.5t55 78.5z" />
    <glyph glyph-name="delta" unicode="&#x3b4;" horiz-adv-x="824" 
d="M539 271q-2 142 -123 145q-124 -2 -127 -145q0 -65 32.5 -108.5t94.5 -43.5q58 0 90.5 40t32.5 112zM592 271q0 -44 -12.5 -79.5t-35.5 -60.5q-23 -24 -55.5 -37.5t-72.5 -13.5q-43 0 -76 16t-58 40q-42 48 -42 135q0 36 12.5 71t34.5 58q16 22 35.5 35.5t79.5 23.5
q-62 45 -80 70.5t-18 55.5q0 22 9.5 41.5t27.5 30.5q16 12 38.5 18.5t40.5 6.5q27 0 49 -5.5t41 -23.5q15 -12 24.5 -34t9.5 -32h-44q0 21 -22 38.5t-59 17.5q-27 0 -47 -16.5t-20 -45.5q0 -18 10.5 -33t25.5 -30q5 -5 9 -8.5t-17 17.5h-4q40 -36 50 -43t21 -13
q79 -38 114 -89q10 -15 20.5 -45t10.5 -66z" />
    <glyph glyph-name="epsilon" unicode="&#x3b5;" horiz-adv-x="824" 
d="M579 185q-5 -20 -21 -46.5t-38 -41.5q-21 -15 -49 -22t-59 -7q-30 0 -63.5 8t-56.5 23q-18 18 -33 41t-15 51q1 74 86 108q-46 28 -57.5 49.5t-11.5 46.5q2 111 155 115q62 0 103 -28t47 -74h-44q-7 33 -33 48t-72 15q-20 0 -36 -1q-21 -3 -40 -14q-11 -13 -20 -24
q-12 -16 -12 -32q0 -29 12 -48.5t33 -22.5q20 -8 45 -10t43 -2v-38q-148 0 -150 -87q-2 -84 121 -86q44 0 75.5 21.5t41.5 57.5h49z" />
    <glyph glyph-name="zeta" unicode="&#x3b6;" horiz-adv-x="824" 
d="M579 48q0 -47 -28.5 -70t-80.5 -23q-25 0 -51 6t-43 17l14 32q-9 4 -2 1.5t10 -5.5q17 -5 32.5 -10.5t42.5 -5.5t42.5 15t15.5 46q0 12 -3.5 24t-21.5 23q-16 4 -39 10t-51 9q-35 0 -65 11t-49 29q-8 7 -17 20t-17 27l-4 14q-2 10 -4.5 21.5t-2.5 24.5q0 47 18.5 95
t46.5 97q25 38 52 72t52 64q3 3 4.5 3.5t25.5 34.5h-176v34h219l16 -42q-31 -28 -69.5 -69t-46.5 -52v5q-58 -93 -78 -142.5t-20 -101.5q0 -19 8.5 -42.5t27.5 -35.5q19 -21 48 -27t62 -9q76 -8 104 -32t28 -68z" />
    <glyph glyph-name="eta" unicode="&#x3b7;" horiz-adv-x="824" 
d="M595 33q-6 -19 -20 -30t-41 -11q-37 0 -51 16.5t-14 59.5v290q0 112 -75 112q-53 0 -81 -38t-28 -96v-265h-41v419h41v-75q31 47 35.5 52t8.5 9q15 15 29.5 20t38.5 5q64 0 94 -35q11 -20 16.5 -48t5.5 -71v-283q0 -14 1 -26t16 -12q20 0 27 14l8 16z" />
    <glyph glyph-name="theta" unicode="&#x3b8;" horiz-adv-x="824" 
d="M285 367q0 -251 131 -251q31 0 55 20t37 47q14 31 22 75t13 109h-258zM543 402q-5 65 -13 108.5t-22 72.5q-12 30 -36.5 48.5t-55.5 18.5q-129 0 -132 -248h259zM592 385q0 -152 -42.5 -229.5t-133.5 -77.5q-50 0 -81.5 19.5t-55.5 59.5q-19 36 -29 94t-10 134
q0 150 39 224q24 40 55.5 60t81.5 20q91 0 133.5 -75.5t42.5 -228.5z" />
    <glyph glyph-name="iota" unicode="&#x3b9;" horiz-adv-x="824" 
d="M540 155q0 -39 -21.5 -65t-71.5 -26q-96 0 -96 105v333h44v-356q0 -44 52 -44q53 0 53 53h40z" />
    <glyph glyph-name="kappa" unicode="&#x3ba;" horiz-adv-x="824" 
d="M586 76h-54l-145 240q-34 -29 -52 -45.5t-43 -37.5v-157h-40v426h40v-221q76 72 131.5 124.5t100.5 96.5h51l-158 -156z" />
    <glyph glyph-name="lambda" unicode="&#x3bb;" horiz-adv-x="824" 
d="M599 138q0 -34 -24 -57t-57 -23q-22 0 -37 8t-27 22q-25 84 -45 153q-5 15 -9.5 31t-21.5 87q-35 -109 -53.5 -166t-33.5 -105h-45l109 350q-11 39 -21 73t-18 68q-5 24 -12 38.5t-15 17.5q-7 10 -23.5 14.5t-17.5 4.5v38q43 0 71 -21q26 -21 42 -69l108 -427
q9 -31 18.5 -54.5t29.5 -23.5t29 13.5t12 27.5h41z" />
    <glyph glyph-name="mu" unicode="&#x3bc;" horiz-adv-x="824" 
d="M571 66h-44v44q-58 -60 -134 -58q-20 0 -39 4t-53 24v-138h-44v547h44v-283q0 -53 23 -86.5t84 -33.5q29 0 51.5 14t39.5 37q16 24 22 53t6 60v239h44v-423z" />
    <glyph glyph-name="nu" unicode="&#x3bd;" horiz-adv-x="824" 
d="M597 502l-137 -426h-52l-113 348q-5 28 -27 36q-9 7 -27 7v35q3 0 14.5 -0.5t19.5 -1.5q8 -2 15 -3.5t14 -4.5q10 -6 17.5 -20t16.5 -34l95 -322q41 136 68.5 222.5t51.5 163.5h44z" />
    <glyph glyph-name="xi" unicode="&#x3be;" horiz-adv-x="824" 
d="M570 48q0 -22 -9 -39t-24 -30t-33.5 -18.5t-40.5 -5.5q-42 0 -76 22l15 34q2 -2 21 -9.5t41 -7.5q24 0 43.5 14t19.5 45q0 24 -30 38t-77 22q-31 4 -59.5 13t-46.5 27q-20 19 -33 44.5t-13 57.5q0 59 32.5 99t112.5 77q-31 23 -39 28.5t-12 10.5q-16 21 -16 52
q0 14 8 28.5t18 28.5l13 13t44 38h-141v34h204l5 -26q-7 -7 -13 -9.5t-14 -8.5q-77 -32 -79 -100q0 -56 65 -68q5 -3 11 -5t-1 2v-35l-11 -4q-24 -10 -46 -20.5t-44 -28.5q-25 -20 -39.5 -44t-14.5 -54q0 -95 132 -124q124 -41 127 -91z" />
    <glyph glyph-name="omicron" unicode="&#x3bf;" horiz-adv-x="824" 
d="M547 285q0 42 -10 76.5t-25 57.5q-16 25 -41 40.5t-55 15.5t-55 -15.5t-41 -40.5q-15 -23 -25 -57.5t-10 -76.5q0 -37 10 -72t13 -40h-3q50 -74 111 -74q63 0 110 74h-2q3 5 13 40t10 72zM592 285q0 -49 -12.5 -89.5t-10.5 -38.5v7q-47 -68 -79 -84t-74 -16t-74 16
t-55 45q-22 31 -34.5 71t-12.5 89t12.5 89t34.5 70q23 33 54.5 47.5t74.5 14.5t74.5 -14.5t51.5 -46.5q25 -30 37.5 -70.5t12.5 -89.5z" />
    <glyph glyph-name="pi" unicode="&#x3c0;" horiz-adv-x="824" 
d="M598 146q-2 -15 -7 -33.5t-14 -27.5q-8 -10 -22 -15.5t-33 -5.5q-30 0 -49.5 16.5t-19.5 68.5v314h-78v-295q0 -30 -5.5 -47.5t-19.5 -31.5q-12 -11 -38 -18t-51 -7v42q7 0 26.5 1.5t29.5 10.5l2 2q12 15 12 41v302h-90v39h351v-39h-95v-323q0 -18 8 -26t20 -8
q7 0 14.5 2t14.5 15q2 6 5 17.5t3 13.5z" />
    <glyph glyph-name="rho" unicode="&#x3c1;" horiz-adv-x="824" 
d="M547 272q0 194 -131 194q-129 0 -131 -194q0 -37 10 -72t13 -40h-3q50 -74 111 -74q63 0 110 74h-2q3 5 13 40t10 72zM592 272q0 -47 -12.5 -87.5t-37.5 -67.5q-20 -29 -52.5 -47t-73.5 -18q-32 0 -58.5 11.5t-72.5 53.5v-183h-45v342q0 49 12.5 91.5t34.5 70.5
q22 26 54.5 42.5t74.5 16.5q176 -2 176 -225z" />
    <glyph glyph-name="sigma" unicode="&#x3c3;" horiz-adv-x="824" 
d="M547 289q0 36 -6.5 70t-25.5 55q-18 30 -41 45.5t-54 15.5q-123 -1 -131 -186q0 -42 8 -76t20 -63q21 -20 47 -35.5t56 -15.5t52 14t39 37q20 28 28 62.5t8 76.5zM599 478q-2 0 -21.5 4t-70.5 8q51 -59 68 -104.5t17 -96.5q0 -48 -13 -91t-33 -72q-24 -29 -56 -45.5
t-70 -16.5q-46 0 -78 16t-55 45q-18 30 -30.5 72.5t-12.5 91.5q0 38 9 73.5t22 59.5q21 33 47 53t52 31q44 15 110 15q37 0 69.5 -2t45.5 -4v-37z" />
    <glyph glyph-name="tau" unicode="&#x3c4;" horiz-adv-x="824" 
d="M592 463h-185v-325q0 -18 10 -25t22 -7q19 0 30 14t14 34l37 -8q-6 -41 -26 -61.5t-59 -20.5q-15 0 -28.5 4.5t-24.5 14.5q-10 10 -16.5 25t-6.5 41v314h-119v39h352v-39z" />
    <glyph glyph-name="upsilon" unicode="&#x3c5;" horiz-adv-x="824" 
d="M571 242q0 -174 -164 -174q-35 0 -63 5.5t-45 18.5q-21 19 -31.5 44t-10.5 63v303h48v-313q0 -42 29.5 -62.5t69.5 -20.5q61 0 90 32t29 99q0 59 -3 131q-4 72 -25 121l40 18l8 -21.5t14 -39.5q10 -32 12 -104q0 -12 0.5 -22.5t0.5 -20.5q1 -17 1 -33v-24z" />
    <glyph glyph-name="phi" unicode="&#x3c6;" horiz-adv-x="824" 
d="M402 478q-70 -22 -93.5 -71.5t-23.5 -117.5t23.5 -117t93.5 -73v379zM555 289q0 68 -24 117.5t-93 72.5v-380q69 24 93 72.5t24 117.5zM596 289q0 -46 -10.5 -84.5t-28.5 -66.5q-20 -26 -45 -45.5t-74 -25.5v-119h-36v119q-47 7 -73.5 26.5t-45.5 44.5q-18 28 -28.5 66.5
t-10.5 84.5q0 40 10.5 81t28.5 70q21 29 45.5 45.5t73.5 26.5v152h36v-152q47 -11 73 -27.5t45 -44.5q19 -29 29.5 -70t10.5 -81z" />
    <glyph glyph-name="chi" unicode="&#x3c7;" horiz-adv-x="824" 
d="M600 493l-154 -261q18 -55 33.5 -103t24.5 -76h-4q17 -39 24.5 -48t20.5 -9h54v-35h-45q-38 0 -56.5 15t-31.5 52l-41 160q-47 -81 -78 -132.5t-56 -94.5h-47l162 274l-57 182q-3 15 -14 28.5t-21 13.5h-57v34h49q19 0 33 -2.5t23 -8.5q10 -7 16.5 -18.5t13.5 -30.5
l37 -149q46 76 74 123.5t50 85.5h47z" />
    <glyph glyph-name="psi" unicode="&#x3c8;" horiz-adv-x="824" 
d="M605 475q-3 -10 -10.5 -33t-11.5 -44t-6 -43t-2 -48v-126q0 -37 -9.5 -56t-28.5 -34q-13 -12 -34.5 -18t-60.5 -8v-131h-36v131q-39 2 -61 8t-40 19q-15 13 -24 32t-9 57v126q0 26 -2 48t-5 43q-4 21 -11.5 44t-11.5 34l33 8q17 -34 25.5 -78t8.5 -107v-127
q0 -29 18.5 -47.5t78.5 -25.5v390h36v-390q59 8 76 26t17 48v126q0 63 11 108t23 77z" />
    <glyph glyph-name="omega" unicode="&#x3c9;" horiz-adv-x="824" 
d="M603 238q0 -41 -3 -74.5t-17 -54.5q-21 -49 -80 -49q-22 0 -39.5 10.5t-41.5 49.5q-23 -43 -38.5 -51.5t-38.5 -8.5q-60 0 -81 50q-16 22 -19.5 59.5t-3.5 81.5q0 22 2 45t5 48q1 8 2 16.5t2 14.5q0 1 1 4.5t2 4.5q12 30 28.5 63.5t31.5 52.5l31 -24q-16 -21 -29 -47.5
t-24 -52.5q-11 -63 -12 -121q0 -39 3 -63.5t6 -45.5q1 -3 1 -5t3 -11q14 -17 24.5 -22.5t26.5 -5.5q31 0 46 23.5t15 51.5v193h37l4 -198q0 -28 14.5 -51.5t45.5 -23.5q62 3 56 158q-5 140 -61 221l28 24q21 -23 37.5 -58t24.5 -65q8 -32 9.5 -63.5t1.5 -62.5v-13z" />
    <glyph glyph-name="afii10023" unicode="&#x401;" horiz-adv-x="824" 
d="M513 753v-53h-54v53h54zM382 753v-53h-59v53h59zM605 187v-41h-358v518h354v-41h-303v-187h283v-42h-283v-207h307z" />
    <glyph glyph-name="afii10017" unicode="&#x410;" horiz-adv-x="824" 
d="M450 664l201 -519h-50l-64 161h-235q-16 -47 -32 -87.5t-28 -73.5h-54l206 519h56zM318 347h205q-18 44 -28 72.5t-20 57.5q-11 27 -21.5 55t-31.5 85z" />
    <glyph glyph-name="afii10018" unicode="&#x411;" horiz-adv-x="824" 
d="M636 290q0 -76 -46.5 -110.5t-135.5 -34.5h-222v519h349v-42h-302v-187h168q96 0 142.5 -34t46.5 -111zM589 290q0 53 -36.5 78t-99.5 25h-174v-206h174q55 0 96 23q40 24 40 80z" />
    <glyph glyph-name="afii10019" unicode="&#x412;" horiz-adv-x="824" 
d="M640 290q-5 -76 -51 -110.5t-135 -34.5h-222v519h221q32 2 63 -4.5t53 -19.5q22 -15 36 -42.5t16 -67.5q0 -34 -17 -60.5t-68 -53.5q104 -33 104 -126zM570 526q0 50 -31 73t-85 23h-175v-187h175q59 0 87.5 27t28.5 64zM589 290q0 53 -36 78t-99 25h-175v-206h175
q54 0 95 23q40 24 40 80z" />
    <glyph glyph-name="afii10020" unicode="&#x413;" horiz-adv-x="824" 
d="M601 664v-42h-298v-477h-52v519h350z" />
    <glyph glyph-name="afii10021" unicode="&#x414;" horiz-adv-x="824" 
d="M684 185v-136h-35v95h-466v-95h-34v138q45 4 78.5 27.5t47.5 60.5q14 39 21.5 85t7.5 94v209h309v-478h71zM565 187v434h-214v-160q0 -73 -18 -141.5t-59 -132.5h291z" />
    <glyph glyph-name="afii10022" unicode="&#x415;" horiz-adv-x="824" 
d="M609 187v-42h-358v519h349v-42h-298v-187h282v-42h-282v-206h307z" />
    <glyph glyph-name="afii10024" unicode="&#x416;" horiz-adv-x="824" 
d="M716 135q-95 3 -154.5 65.5t-68.5 192.5h-47v-248h-47v248h-57q-6 -132 -67.5 -193.5t-149.5 -64.5v41q79 0 122.5 63.5t43.5 165.5t-43 163.5t-123 65.5v41q89 0 147.5 -59t69.5 -185h57v233h47v-233h47q12 125 71 184.5t152 59.5v-41q-83 -4 -129 -65.5t-46 -163.5
t46 -165.5t129 -63.5v-41z" />
    <glyph glyph-name="afii10025" unicode="&#x417;" horiz-adv-x="824" 
d="M601 290q0 -75 -54 -112q-55 -36 -125 -36q-38 0 -70 11t-54 33t-34.5 56t-12.5 71h47q0 -60 34.5 -98.5t88.5 -38.5q59 0 96 30.5t41 83.5q-5 53 -38.5 80t-78.5 27h-43v41h42q34 0 65.5 24.5t31.5 71.5q0 41 -28 70t-82 30q-56 -4 -86 -43t-30 -91h-47q0 71 42.5 119
t116.5 48q80 0 120.5 -36t40.5 -98q-3 -34 -18.5 -60.5t-60.5 -52.5q55 -20 75.5 -50t20.5 -80z" />
    <glyph glyph-name="afii10026" unicode="&#x418;" horiz-adv-x="824" 
d="M628 664v-519h-51v401q-92 -105 -163 -188t-147 -171v-42h-51v519h51v-405q92 106 163.5 190.5t146.5 172.5v42h51z" />
    <glyph glyph-name="afii10027" unicode="&#x419;" horiz-adv-x="824" 
d="M529 741q-13 -25 -42 -45t-65 -20q-44 0 -70.5 19.5t-43.5 45.5l19 15q9 -19 34 -38t61 -19q33 0 53.5 18.5t30.5 38.5zM628 665v-519h-51v401q-92 -105 -163 -188t-147 -171v-42h-51v519h51v-405q92 106 163.5 190.5t146.5 171.5v43h51z" />
    <glyph glyph-name="afii10028" unicode="&#x41a;" horiz-adv-x="824" 
d="M418 450q62 -82 124 -164.5t106 -140.5h-59l-210 268q-28 -26 -50.5 -46.5t-45.5 -41.5v-180h-51v519h51v-275q86 81 155 147t135 128h63z" />
    <glyph glyph-name="afii10029" unicode="&#x41b;" horiz-adv-x="824" 
d="M612 663v-518h-47v477h-214v-161q0 -59 -7 -108.5t-20 -88.5q-23 -83 -116 -133l-23 34q83 46 102 117q9 32 13 67t4 75v17t-1 17v205h309z" />
    <glyph glyph-name="afii10030" unicode="&#x41c;" horiz-adv-x="824" 
d="M668 664v-519h-47v453q-59 -151 -98.5 -254.5t-77.5 -198.5h-46l-176 453v-453h-47v519h76l170 -454q50 132 91 242.5t80 211.5h75z" />
    <glyph glyph-name="afii10031" unicode="&#x41d;" horiz-adv-x="824" 
d="M613 664v-519h-51v248h-283v-248h-47v519h47v-226h283v226h51z" />
    <glyph glyph-name="afii10032" unicode="&#x41e;" horiz-adv-x="824" 
d="M656 405q-5 -135 -70 -202q-64 -68 -164 -68q-105 3 -173 69q-65 68 -65 201q0 63 17 113t48 86q33 32 78 51.5t95 19.5q47 0 89.5 -19t74.5 -52q31 -35 49.5 -85t20.5 -114zM605 405q-4 101 -52 162.5t-131 66.5q-85 -7 -136 -67.5t-51 -161.5q0 -51 12.5 -93t36.5 -72
q25 -31 59.5 -47.5t78.5 -16.5q42 0 75.5 16.5t56.5 47.5q23 30 36 71.5t15 93.5z" />
    <glyph glyph-name="afii10033" unicode="&#x41f;" horiz-adv-x="824" 
d="M616 664v-519h-51v477h-298v-477h-47v519h396z" />
    <glyph glyph-name="afii10034" unicode="&#x420;" horiz-adv-x="824" 
d="M613 516q0 -73 -41.5 -109t-119.5 -36h-150v-226h-51v519h207q72 0 113.5 -37.5t41.5 -110.5zM566 516q0 53 -32 79.5t-84 26.5h-148v-218h148q52 0 84 29t32 83z" />
    <glyph glyph-name="afii10035" unicode="&#x421;" horiz-adv-x="824" 
d="M641 339q-9 -90 -66 -145.5t-145 -58.5q-117 3 -181 77q-61 74 -61 193q0 115 61 190q62 75 181 80q77 0 133 -44q58 -44 69 -123h-47q-7 23 -22.5 47.5t-36.5 42.5q-21 17 -45.5 26.5t-50.5 9.5q-104 -4 -147 -74q-44 -65 -44 -155q0 -93 62 -187v1q27 -39 129 -43
q68 0 110 48.5t50 114.5h51z" />
    <glyph glyph-name="afii10036" unicode="&#x422;" horiz-adv-x="824" 
d="M616 664v-42h-170v-477h-47v477h-175v42h392z" />
    <glyph glyph-name="afii10037" unicode="&#x423;" horiz-adv-x="824" 
d="M550 664h42l-175 -471h2q-5 -17 -24 -34.5t-60 -17.5q-10 0 -15.5 1t-9.5 2t-6.5 1h-4.5v39q17 -4 33 -4q39 -8 54 46l29 71q-41 95 -81.5 192.5t-73.5 174.5h51l123 -318z" />
    <glyph glyph-name="afii10038" unicode="&#x424;" horiz-adv-x="824" 
d="M652 404q-2 -38 -19 -71.5t-46 -58.5q-55 -48 -141 -60v-69h-47v68q-53 6 -88 21t-62 39q-57 52 -61 132q5 80 61 131q56 50 150 60v68h47v-69q87 -12 141 -59q62 -53 65 -130v-2zM446 252q74 13 114 49t45 104q-5 62 -45 101.5t-114 47.5v-302zM399 554
q-78 -8 -121 -47.5t-47 -101.5q3 -63 47 -101.5t121 -51.5v302z" />
    <glyph glyph-name="afii10039" unicode="&#x425;" horiz-adv-x="824" 
d="M454 409q49 -71 100.5 -143.5t85.5 -120.5h-59l-159 225q-44 -63 -85 -120.5t-74 -104.5h-58l194 264q-49 69 -99 138.5t-84 116.5h59l147 -214q43 63 79 115t68 99h59z" />
    <glyph glyph-name="afii10040" unicode="&#x426;" horiz-adv-x="824" 
d="M684 187v-138h-35v95h-422v519h51v-476h287v476h47v-476h72z" />
    <glyph glyph-name="afii10041" unicode="&#x427;" horiz-adv-x="824" 
d="M569 664v-519h-44v203q-35 -43 -62 -56t-60 -13q-39 0 -65 10.5t-43 29.5q-16 18 -23.5 43.5t-7.5 57.5v244h47v-237q-3 -45 20 -77.5t76 -32.5t84 36t34 91v220h44z" />
    <glyph glyph-name="afii10042" unicode="&#x428;" horiz-adv-x="824" 
d="M648 664v-519h-464v519h47v-477h164v477h51v-477h155v477h47z" />
    <glyph glyph-name="afii10043" unicode="&#x429;" horiz-adv-x="824" 
d="M711 187v-138h-30v95h-504v519h51v-476h159v476h47v-476h155v476h51v-476h71z" />
    <glyph glyph-name="afii10044" unicode="&#x42a;" horiz-adv-x="824" 
d="M660 290q0 -76 -46 -110.5t-139 -34.5h-192v477h-122v42h173v-229h134q100 0 146 -34t46 -111zM613 290q0 53 -36.5 78t-103.5 25h-139v-206h139q59 0 99.5 23t40.5 80z" />
    <glyph glyph-name="afii10045" unicode="&#x42b;" horiz-adv-x="824" 
d="M660 664v-519h-47v519h47zM544 290q0 -76 -48 -110.5t-136 -34.5h-176v519h47v-229h122q95 0 143 -34t48 -111zM493 290q0 53 -34 78t-101 25h-127v-206h127q59 0 97 23t38 80z" />
    <glyph glyph-name="afii10046" unicode="&#x42c;" horiz-adv-x="824" 
d="M640 290q0 -76 -48.5 -110.5t-136.5 -34.5h-223v519h51v-229h165q95 0 143.5 -34t48.5 -111zM589 290q0 53 -36 78t-99 25h-171v-206h171q54 0 95 23q40 24 40 80z" />
    <glyph glyph-name="afii10047" unicode="&#x42d;" horiz-adv-x="824" 
d="M656 405q0 -117 -60 -193q-61 -74 -174 -77q-96 3 -155 53t-71 137h51q9 -65 54 -107t121 -42q95 0 140 62q42 62 43 151h-278v39h278q-4 47 -15 80t-32 60q-45 62 -136 66q-59 0 -105.5 -28.5t-60.5 -85.5h-48q10 78 75 117q62 38 139 38q120 -5 176 -80q58 -75 58 -190
z" />
    <glyph glyph-name="afii10048" unicode="&#x42e;" horiz-adv-x="824" 
d="M703 405q0 -136 -52 -201.5t-141 -68.5q-81 3 -133.5 63t-57.5 191h-112v-244h-46v519h46v-236h112q11 129 62 188t129 59q90 0 141.5 -69.5t51.5 -200.5zM657 405q-5 100 -43 160.5t-104 68.5q-31 -3 -56.5 -21.5t-43.5 -48.5q-19 -29 -29.5 -69.5t-10.5 -89.5
q0 -106 39 -167q40 -62 101 -62q69 0 105.5 63.5t41.5 165.5z" />
    <glyph glyph-name="afii10049" unicode="&#x42f;" horiz-adv-x="824" 
d="M612 664v-519h-51v230h-190q-93 0 -105 -230h-56q18 177 36 208q8 10 17 18t47 22q-59 26 -76.5 57.5t-17.5 75.5q5 70 50 103q23 18 50.5 26.5t57.5 8.5h238zM561 416v206h-184q-54 0 -82 -28.5t-28 -74.5q0 -50 32 -76.5t78 -26.5h184z" />
    <glyph glyph-name="afii10065" unicode="&#x430;" horiz-adv-x="824" 
d="M608 147q1 0 -5.5 -0.5t-10.5 -1.5q-7 -2 -15 -2q-42 0 -55 50q-30 -35 -62 -47t-75 -15q-53 0 -87 23t-39 75q2 36 18.5 60t42.5 36q27 10 65.5 20.5t78.5 15.5q24 2 39.5 14t15.5 29q0 43 -26.5 62.5t-68.5 19.5q-39 0 -69 -23t-33 -64h-43q0 23 11 48t31 41
q21 17 49 26t62 9q50 0 90 -26q38 -22 43 -95v-204q0 -18 30 -18q3 0 8.5 2t4.5 2v-37zM519 345q-21 -12 -27 -13.5t-12 -3.5q-81 -15 -128 -34t-47 -61q0 -34 24 -49.5t66 -15.5q56 4 90 32.5t34 92.5v52z" />
    <glyph glyph-name="afii10066" unicode="&#x431;" horiz-adv-x="824" 
d="M589 329q0 -88 -47 -140t-126 -56q-83 4 -130 56t-51 143q5 92 42 164q38 74 245 171l16 -22q-75 -41 -121 -67.5t-54 -35.5q-1 -1 -2 -1l-7 -7q0 -1 -25 -26q57 16 87 16q78 0 112 -38h-1q62 -70 62 -157zM542 329q0 71 -35 112.5t-91 45.5q-64 -3 -99 -45t-35 -113
q0 -72 35 -113.5t99 -41.5q56 0 91 41.5t35 113.5z" />
    <glyph glyph-name="afii10067" unicode="&#x432;" horiz-adv-x="824" 
d="M608 251q0 -60 -36 -84t-120 -24h-197v369h196q77 0 107 -20.5t30 -70.5q0 -26 -6.5 -43t-46.5 -34q42 -22 57.5 -43t15.5 -50zM542 414q4 31 -17.5 44t-74.5 17h-149v-118h150q53 0 74 15t17 42v0zM562 252q0 34 -25 51t-87 17h-149v-140h149q52 0 82 16.5t30 55.5z" />
    <glyph glyph-name="afii10068" unicode="&#x433;" horiz-adv-x="824" 
d="M580 512v-37h-255v-332h-46v369h301z" />
    <glyph glyph-name="afii10069" unicode="&#x434;" horiz-adv-x="824" 
d="M671 179v-131h-31v94h-436v-94h-31v132q41 7 70.5 30t41.5 61q9 35 14 72.5t5 77.5q0 7 -0.5 14t-0.5 14v62h301v-332h67zM558 179v295h-213v-15q0 -89 -12 -163q-10 -63 -52 -117h277z" />
    <glyph glyph-name="afii10070" unicode="&#x435;" horiz-adv-x="824" 
d="M301 316q4 -69 36.5 -106.5t90.5 -37.5q47 0 77 27t37 63h46q-13 -58 -55 -92.5t-104 -38.5q-79 4 -124 52t-49 144q0 83 42 138q44 54 130 58q85 -5 125 -64q19 -31 29 -68.5t10 -74.5h-291zM547 353q-6 33 -14.5 52.5t-22.5 36.5q-14 19 -35.5 30.5t-45.5 13.5
q-57 -3 -88 -44q-27 -34 -39 -89h245z" />
    <glyph glyph-name="afii10072" unicode="&#x436;" horiz-adv-x="824" 
d="M663 131q-71 4 -119.5 48.5t-56.5 132.5h-43v-169h-47v169h-47q-8 -87 -55 -131.5t-122 -48.5v40q52 0 90.5 42t43.5 113q-5 72 -43 114.5t-91 44.5v37q31 0 63 -12t55 -32q23 -22 37 -52t21 -74h48v159h47v-159h43q7 82 55.5 126t120.5 44v-36q-58 -3 -96 -45.5
t-38 -114.5q0 -71 38.5 -113t95.5 -42v-41z" />
    <glyph glyph-name="afii10073" unicode="&#x437;" horiz-adv-x="824" 
d="M596 248q0 -65 -53 -89q-26 -11 -58 -17t-64 -7q-32 -2 -62.5 4t-53.5 20q-49 28 -49 103h38q4 -55 41 -75q19 -8 40 -13.5t45 -5.5q51 0 91 17q19 9 29 25t14 37q-5 40 -39 54.5t-83 10.5h-36v41h42q36 0 66 16.5t30 49.5q-5 36 -38 52q-31 15 -72 15q-37 0 -73 -21
q-38 -19 -45 -73h-39q0 64 47 95q46 32 105 32q34 2 63.5 -4t51.5 -19q20 -13 31.5 -33t11.5 -45q0 -23 -9.5 -41t-52.5 -38q50 -18 65.5 -36.5t15.5 -54.5z" />
    <glyph glyph-name="afii10074" unicode="&#x438;" horiz-adv-x="824" 
d="M584 512v-369h-46v267q-74 -70 -125 -119.5t-111 -106.5v-41h-46v369h46v-271q74 70 125 119t111 107v45h46z" />
    <glyph glyph-name="afii10075" unicode="&#x439;" horiz-adv-x="824" 
d="M525 622q-13 -29 -41.5 -48t-63.5 -19q-44 0 -70 18.5t-44 48.5l19 12q9 -18 34.5 -35.5t60.5 -17.5q32 0 52.5 17.5t29.5 35.5zM584 513v-369h-46v270q-71 -70 -124.5 -121.5t-111.5 -107.5v-41h-46v369h46v-271q74 70 125 119t111 107v45h46z" />
    <glyph glyph-name="afii10076" unicode="&#x43a;" horiz-adv-x="824" 
d="M443 376q46 -64 91 -128t74 -105h-54l-145 199q-25 -21 -40.5 -34t-34.5 -30v-135h-47v369h47v-178q63 56 110.5 98t89.5 80h62z" />
    <glyph glyph-name="afii10077" unicode="&#x43b;" horiz-adv-x="824" 
d="M604 512v-369h-46v332h-209v-36q0 -11 0.5 -19t0.5 -16q0 -44 -5 -82t-14 -69q-11 -34 -38 -68t-62 -57l-26 30q66 39 85 99q11 32 15.5 77t4.5 99v79h294z" />
    <glyph glyph-name="afii10078" unicode="&#x43c;" horiz-adv-x="824" 
d="M648 512v-369h-43v305q-54 -104 -91.5 -173.5t-69.5 -131.5h-47l-166 306v-306h-47v369h59l177 -317q50 94 88.5 169.5t76.5 147.5h63z" />
    <glyph glyph-name="afii10079" unicode="&#x43d;" horiz-adv-x="824" 
d="M597 512v-369h-47v169h-264v-169h-43v369h43v-159h264v159h47z" />
    <glyph glyph-name="afii10080" unicode="&#x43e;" horiz-adv-x="824" 
d="M597 327q-5 -87 -51.5 -139t-125.5 -57q-82 4 -129.5 56.5t-47.5 139.5q0 86 47 141q48 55 130 55q40 0 71.5 -14t53.5 -40q23 -26 36.5 -62.5t15.5 -79.5zM550 327q0 71 -35.5 113t-94.5 46q-59 -4 -95 -46t-39 -113q4 -71 39.5 -113t94.5 -42t94.5 42t35.5 113z" />
    <glyph glyph-name="afii10081" unicode="&#x43f;" horiz-adv-x="824" 
d="M584 512v-369h-42v332h-252v-332h-46v369h340z" />
    <glyph glyph-name="afii10082" unicode="&#x440;" horiz-adv-x="824" 
d="M608 326q0 -96 -45 -144t-121 -52q-36 3 -65 15t-64 57v-174h-45v483h45v-60q35 45 63 58t67 13q75 0 120 -52.5t45 -143.5zM530 216q31 42 36 109q-2 32 -11 59.5t-24 49.5q-15 21 -37.5 35t-50.5 16q-32 -2 -56.5 -15.5t-40.5 -35.5q-16 -21 -24.5 -49.5t-8.5 -59.5
q-5 -63 28 -109q33 -45 103 -45q53 0 86 45z" />
    <glyph glyph-name="afii10083" unicode="&#x441;" horiz-adv-x="824" 
d="M592 266q-22 -128 -156 -135q-87 4 -129.5 57t-46.5 140q5 82 46 139q43 56 129 56q29 0 55.5 -9.5t46.5 -26.5q20 -18 33.5 -45t17.5 -50h-46q-3 37 -33.5 63.5t-73.5 30.5q-32 -2 -56 -15t-40 -35q-16 -21 -24.5 -49.5t-8.5 -59.5q0 -70 33 -112.5t96 -42.5q43 0 73 27
t37 67h47z" />
    <glyph glyph-name="afii10084" unicode="&#x442;" horiz-adv-x="824" 
d="M597 512v-37h-153v-332h-47v332h-158v37h358z" />
    <glyph glyph-name="afii10085" unicode="&#x443;" horiz-adv-x="824" 
d="M545 511h47l-157 -417q-12 -32 -32 -49t-55 -17h-8q-12 0 -17.5 0.5t-7.5 3.5v36q7 -3 27 -3q19 0 33 10.5t6 -11.5v-9q22 67 25 74t8 19q-39 95 -79 190.5t-71 172.5h50l121 -313z" />
    <glyph glyph-name="afii10086" unicode="&#x444;" horiz-adv-x="824" 
d="M655 327q0 -43 -12.5 -78.5t-34.5 -60.5q-23 -26 -55.5 -40.5t-73.5 -15.5q-12 2 -15 2t-20 7v-103h-47v103l-11 -3v2q-23 -8 -29 -8q-82 3 -129 56t-51 139q2 44 15 80.5t36 61.5q23 26 55 40t74 14q6 0 13 -1t27 -6v139h47v-138q21 6 35 6q41 0 73.5 -14t55.5 -40
q22 -25 34.5 -61.5t12.5 -80.5zM609 327q0 73 -35.5 114.5t-99.5 44.5q-1 -1 0 -1q-8 -1 -15 -1t-15 -8v-303h30q64 0 99.5 41.5t35.5 112.5zM397 477q-12 3 -16 4.5t-9 2.5t-8 1.5t-6 0.5q-64 -2 -99.5 -44t-35.5 -115q0 -71 35 -112.5t99 -41.5h5h12t23 4v300z" />
    <glyph glyph-name="afii10087" unicode="&#x445;" horiz-adv-x="824" 
d="M444 335q37 -50 79 -106t65 -86h-50l-118 159q-36 -49 -65 -87t-53 -72h-54l150 192q-38 50 -78 100t-60 77h54l106 -140q32 43 57 77.5t45 62.5h54z" />
    <glyph glyph-name="afii10088" unicode="&#x446;" horiz-adv-x="824" 
d="M651 179v-131h-31v94h-365v369h43v-332h240v332h47v-332h66z" />
    <glyph glyph-name="afii10089" unicode="&#x447;" horiz-adv-x="824" 
d="M561 512v-369h-39v147q-35 -43 -61 -55.5t-60 -12.5q-38 0 -63.5 10t-40.5 29q-16 19 -23 45t-7 58v148h43v-137q-3 -51 20 -82t74 -31q52 0 83 34.5t35 92.5v123h39z" />
    <glyph glyph-name="afii10090" unicode="&#x448;" horiz-adv-x="824" 
d="M644 512v-369h-456v369h47v-332h162v332h42v-332h158v332h47z" />
    <glyph glyph-name="afii10091" unicode="&#x449;" horiz-adv-x="824" 
d="M706 179v-131h-34v94h-487v369h46v-332h158v332h46v-332h154v332h47v-332h70z" />
    <glyph glyph-name="afii10092" unicode="&#x44a;" horiz-adv-x="824" 
d="M616 251q0 -28 -7 -48.5t-24 -32.5q-17 -14 -47 -20.5t-74 -6.5h-169v332h-98v37h141v-155h119q91 0 125 -26.5t34 -79.5zM569 252q4 35 -21 51.5t-86 16.5h-124v-140h124q54 0 80.5 16.5t26.5 54.5v1z" />
    <glyph glyph-name="afii10093" unicode="&#x44b;" horiz-adv-x="824" 
d="M620 512v-369h-47v369h47zM514 251q0 -28 -7 -48.5t-24 -32.5q-17 -14 -47 -20.5t-74 -6.5h-146v369h43v-155h95q95 0 127.5 -26.5t32.5 -79.5zM467 252q0 36 -21 50q-17 18 -87 18h-100v-140h100q59 0 83.5 17t24.5 55z" />
    <glyph glyph-name="afii10094" unicode="&#x44c;" horiz-adv-x="824" 
d="M437 357q87 0 120.5 -26.5t30.5 -78.5q4 -58 -28 -83.5t-116 -25.5h-173v369h47v-155h119zM546 252q0 34 -23.5 51t-80.5 17h-124v-140h124q51 0 77.5 16.5t26.5 55.5z" />
    <glyph glyph-name="afii10095" unicode="&#x44d;" horiz-adv-x="824" 
d="M596 327q0 -87 -44.5 -139t-124.5 -57q-65 4 -107 38t-52 93h46q3 -40 37 -65t77 -25q49 0 84.5 34.5t36.5 101.5h-192v42h195q-9 34 -18.5 55t-24.5 39q-16 18 -36 29t-45 13q-45 -4 -76 -28.5t-38 -61.5h-46q10 54 53 90.5t107 36.5q82 0 125 -56q20 -28 31.5 -64
t11.5 -76z" />
    <glyph glyph-name="afii10096" unicode="&#x44e;" horiz-adv-x="824" 
d="M679 327q0 -87 -43 -139.5t-126 -56.5q-75 5 -116 49t-52 128h-99v-165h-47v369h47v-162h99q6 44 19 74t35 53q21 22 49.5 34t64.5 12q42 0 73.5 -14t52.5 -39q21 -27 32 -63t11 -80zM632 327q0 70 -31 112.5t-91 46.5q-57 -4 -89.5 -46.5t-32.5 -112.5t33 -112.5
t89 -42.5q60 0 91 42.5t31 112.5z" />
    <glyph glyph-name="afii10097" unicode="&#x44f;" horiz-adv-x="824" 
d="M572 512v-369h-42v159h-135q-82 0 -101 -159h-50q24 133 84 177q-43 16 -57.5 36.5t-14.5 49.5q0 58 34 82t102 24h180zM530 342v133h-133q-45 0 -70 -17t-25 -57q0 -59 93 -59h135z" />
    <glyph glyph-name="afii10071" unicode="&#x451;" horiz-adv-x="824" 
d="M510 638v-56h-54v56h54zM380 638v-56h-58v56h58zM301 317q4 -69 36.5 -106.5t90.5 -37.5q47 0 76.5 27t36.5 64h47q-13 -59 -55 -93.5t-104 -38.5q-79 4 -124 52t-49 144q0 83 42 138q44 54 130 58q41 -2 73 -19t52 -45q19 -31 29 -68.5t10 -74.5h-291zM547 355
q-11 54 -37 89q-16 18 -36.5 29.5t-44.5 13.5q-28 -2 -50 -12.5t-38 -30.5q-27 -34 -39 -89h245z" />
    <glyph glyph-name="afii00208" unicode="&#x2015;" horiz-adv-x="824" 
d="M827 382v-30h-824v30h824z" />
    <glyph glyph-name="quoteleft" unicode="&#x2018;" horiz-adv-x="824" 
d="M714 743q0 10 5.5 16t14.5 6q8 0 14.5 -6.5t6.5 -16.5v-120q0 -10 -6 -15.5t-15 -5.5t-14.5 5.5t-5.5 15.5v121z" />
    <glyph glyph-name="quoteright" unicode="&#x2019;" horiz-adv-x="824" 
d="M74 743q0 10 5.5 16t14.5 6q8 0 14.5 -6.5t6.5 -16.5v-120q0 -10 -6 -15.5t-15 -5.5t-14.5 5.5t-5.5 15.5v121z" />
    <glyph glyph-name="quotedblleft" unicode="&#x201c;" horiz-adv-x="824" 
d="M602 742q0 10 6 16.5t14 6.5t14.5 -6.5t6.5 -16.5v-120q0 -10 -6 -15.5t-15 -5.5q-8 0 -14 5.5t-6 15.5v120zM716 742q0 10 6 16.5t14 6.5t14.5 -6.5t6.5 -16.5v-120q0 -10 -6 -15.5t-15 -5.5q-8 0 -14 5.5t-6 15.5v120z" />
    <glyph glyph-name="quotedblright" unicode="&#x201d;" horiz-adv-x="824" 
d="M92 742q0 10 6 16.5t14 6.5t14.5 -6.5t6.5 -16.5v-120q0 -10 -6 -15.5t-15 -5.5q-8 0 -14 5.5t-6 15.5v120zM206 742q0 10 6 16.5t14 6.5t14.5 -6.5t6.5 -16.5v-120q0 -10 -6 -15.5t-15 -5.5q-8 0 -14 5.5t-6 15.5v120z" />
    <glyph glyph-name="dagger" unicode="&#x2020;" horiz-adv-x="824" 
d="M572 445v-43h-142v-289h-47v289h-147v43h147v166h47v-166h142z" />
    <glyph glyph-name="daggerdbl" unicode="&#x2021;" horiz-adv-x="824" 
d="M572 399v-47h-142v-239h-47v239h-147v47h147v72h-147v47h147v93h47v-93h142v-47h-142v-72h142z" />
    <glyph glyph-name="twodotenleader" unicode="&#x2025;" horiz-adv-x="824" 
d="M655 401v-69h-68v69h68zM243 401v-69h-68v69h68z" />
    <glyph glyph-name="ellipsis" unicode="&#x2026;" horiz-adv-x="824" 
d="M703 401v-69h-63v69h63zM447 401v-69h-66v69h66zM190 401v-69h-66v69h66z" />
    <glyph glyph-name="perthousand" unicode="&#x2030;" horiz-adv-x="824" 
d="M440 589q13 -9 7 -18q-27 -47 -54.5 -92.5t-54.5 -91.5q-38 -65 -76.5 -129.5t-76.5 -130.5q-8 -10 -23 -3q-13 7 184 247l-136 -136q-15 -26 24.5 42t80.5 137q26 44 51 86.5t49 86.5q10 12 25 2zM146 485q1 -20 11.5 -31t33.5 -14q21 1 31.5 13t13.5 33q-3 17 -14 28
t-29 16q-44 -4 -47 -45zM105 486q5 79 86 86q77 -7 86 -86q-7 -80 -86 -86q-81 6 -86 85v1zM369 218q1 -41 44 -45q39 1 46 45q-3 19 -14 29t-29 15q-46 -4 -47 -44zM328 218q7 81 86 87q76 -6 86 -87q-7 -80 -86 -86q-41 3 -62 24.5t-24 62.5v-1zM581 218q1 -41 44 -45
q39 1 46 45q-3 19 -14 29t-29 15q-46 -4 -47 -44zM540 218q5 80 86 87q77 -7 86 -87q-7 -80 -86 -86q-81 6 -86 86v0z" />
    <glyph glyph-name="minute" unicode="&#x2032;" horiz-adv-x="824" 
d="M168 773q-35 -55 -69 -108.5t-69 -109.5q10 30 19.5 57t18.5 52q8 26 17.5 52.5t19.5 56.5h63z" />
    <glyph glyph-name="second" unicode="&#x2033;" horiz-adv-x="824" 
d="M168 773q-35 -55 -69 -108.5t-70 -109.5q10 30 17.5 57t20.5 52q9 26 16.5 52.5t21.5 56.5h63zM258 773q-37 -55 -71 -108.5t-70 -109.5q14 30 23 57t16 52q11 26 19.5 52.5t17.5 56.5h65z" />
    <glyph glyph-name="uni203B" unicode="&#x203b;" horiz-adv-x="824" 
d="M606 406q24 0 35 -14t9 -32q-1 -14 -11 -27t-33 -13q-21 0 -31 14t-10 27q0 18 10 31.5t31 13.5zM405 610q24 0 34 -15.5t7 -34.5q0 -19 -9.5 -29.5t-31.5 -10.5q-25 0 -35 13.5t-10 31.5t10 31.5t35 13.5zM667 134l-24 -31l-242 238l-238 -238l-27 27l242 235
q-67 67 -125.5 127.5t-105.5 107.5l23 23l235 -235l235 235l27 -23l-240 -235zM205 406q24 0 34.5 -14t10.5 -31q-4 -18 -13.5 -29.5t-31.5 -11.5q-21 0 -33 14t-12 28q0 16 12 30t33 14zM405 209q24 0 34 -15.5t7 -37.5q-1 -14 -10.5 -25t-30.5 -11q-25 0 -35 13.5
t-10 31.5t10 31t35 13z" />
    <glyph glyph-name="uni2074" unicode="&#x2074;" horiz-adv-x="824" 
d="M294 638v-20h-32v-52h-24v52h-92v21l91 139h25v-140h32zM161 638h77v121z" />
    <glyph glyph-name="uni207F" unicode="&#x207f;" horiz-adv-x="824" 
d="M296 545h-37v156q0 25 -35 25q-20 0 -29.5 -14t-9.5 -29v-138h-42v211h41q11 8 20.5 10t22.5 2q32 0 50.5 -19t18.5 -52v-152z" />
    <glyph glyph-name="uni2081" unicode="&#x2081;" horiz-adv-x="824" 
d="M238 222v-204h-20v152h-48v20q19 0 34 9.5t21 22.5h13z" />
    <glyph glyph-name="uni2082" unicode="&#x2082;" horiz-adv-x="824" 
d="M286 168q0 -23 -14 -42.5t-37 -31.5q-17 -12 -30 -21.5t-32 -34.5h109v-20h-128q0 28 18.5 52t52.5 43q22 9 31.5 22t9.5 34q0 41 -42 41q-23 0 -34.5 -19.5t-11.5 -36.5h-24q0 30 19.5 53t50.5 23q32 0 47 -17t15 -45z" />
    <glyph glyph-name="uni2083" unicode="&#x2083;" horiz-adv-x="824" 
d="M298 75q0 -26 -19 -45.5t-51 -19.5q-36 0 -55 21t-19 55h24q0 -26 14.5 -41t34.5 -15q25 0 38 12.5t13 33.5q0 20 -13 33t-33 9h-18v16h25q11 0 19 13t8 30q0 15 -9 24t-29 9q-22 0 -34 -15.5t-12 -32.5h-24q4 26 19.5 47t50.5 21q27 0 46.5 -15.5t19.5 -38.5
q0 -11 -5.5 -23.5t-27.5 -28.5q23 -13 30 -23.5t7 -25.5z" />
    <glyph glyph-name="uni2084" unicode="&#x2084;" horiz-adv-x="824" 
d="M294 90v-24h-32v-48h-24v48h-92v27l90 129h26v-132h32zM161 90h77v110z" />
    <glyph glyph-name="Euro" unicode="&#x20ac;" horiz-adv-x="824" 
d="M497 431l-12 -42h-185q-3 -26 -3 -35t3 -23h165l-6 -38h-155q5 -53 16 -77.5t48 -67.5v1q6 -7 34.5 -18.5t50.5 -11.5q43 0 78 11.5t61 30.5v-45q-37 -31 -72 -38.5t-73 -7.5q-36 0 -72 15t-48 29h2q-39 39 -56 74t-31 105h-41v38h42v58h-42v42h43q9 59 27 95t49 70
q27 28 61 45t81 17q38 0 73.5 -8.5t63.5 -26.5l-22 -48q-17 11 -46.5 22.5t-68.5 11.5q-34 0 -59 -11.5t-40 -30.5q-20 -19 -36.5 -45.5t-26.5 -90.5h197z" />
    <glyph glyph-name="uni2103" unicode="&#x2103;" horiz-adv-x="824" 
d="M208 732q21 0 35 -6.5t24 -17.5q8 -11 12.5 -25.5t4.5 -29.5t-5 -28.5t-15 -24.5t-24 -17t-32 -6q-33 0 -56 19t-23 60q0 15 5 28.5t15 24.5q9 11 23.5 17t35.5 6zM208 605q26 0 37 15.5t11 31.5q0 21 -11 36.5t-37 15.5q-25 0 -38 -15t-13 -32q0 -22 13 -37t38 -15z
M686 204q0 -7 -7.5 -16.5t-20.5 -18.5q-12 -10 -23.5 -16.5t-16.5 -8.5q-26 -9 -52.5 -11.5t-52.5 -2.5q-83 0 -159 65q-79 71 -79 173q0 32 8.5 60t30.5 61q30 43 73.5 70t96.5 28q26 0 59 -10.5t62 -24.5q28 -15 48 -32.5t23 -27.5q1 -7 -3.5 -14t-10.5 -6q-2 0 -7 5
q-86 72 -162 72q-73 0 -127 -71q-18 -18 -31.5 -43t-8.5 -55q0 -37 12 -75t37 -69q26 -29 66.5 -48t97.5 -19q55 0 119 46q2 1 16 1q8 0 10 -3t2 -9z" />
    <glyph glyph-name="uni2109" unicode="&#x2109;" horiz-adv-x="824" 
d="M223 732q21 0 35 -6.5t24 -17.5q8 -11 12.5 -25.5t4.5 -29.5t-5 -28.5t-15 -24.5t-24 -17t-32 -6q-33 0 -56 19t-23 60q0 15 5 28.5t15 24.5q9 11 23.5 17t35.5 6zM223 605q26 0 37 15.5t11 31.5q0 21 -11 36.5t-37 15.5q-25 0 -38 -15t-13 -32q0 -22 13 -37t38 -15z
M342 104h27q-6 34 -8 54q-5 47 -9 104q-4 56 -6 117t-2 122q0 20 2 44l-24 14q-11 7 -4 21t19 9l36 -18q23 1 61 1h207q17 0 34 2q7 -1 13 -5.5t8 -14.5q0 -18 -8 -19q-31 -5 -71 -5.5t-84 -0.5q-63 0 -149 4q-3 -24 -3 -32v-128q0 -6 3 -27q36 2 65 2.5t63 0.5t72 -0.5
t82 -1.5q14 -2 14 -21q0 -16 -7 -17q-50 -2 -117 -3t-166 -1q0 -17 1 -34.5t4 -45.5q2 -28 5 -66q2 -19 5 -55h28q8 0 8 -17t-3 -17h-95q-13 1 -13 17.5t12 16.5z" />
    <glyph glyph-name="afii61289" unicode="&#x2113;" horiz-adv-x="824" 
d="M540 537q0 -52 -11.5 -100t-30.5 -91q-20 -43 -45 -80t-56 -72q1 -29 9 -42.5t19 -13.5q22 0 32 18.5t18 33.5q3 6 4 9t2 5l3 9l-2 -5l44 -18q-20 -49 -42.5 -72t-56.5 -23q-23 0 -42 14t-31 50q-23 -17 -34.5 -23t-13.5 -7l-23 37q-6 -2 1 1.5t10 6.5q11 6 25 17t31 26
q-1 21 -1.5 38t-0.5 34q0 48 6 102.5t19 105.5q7 45 35 91q16 23 33.5 36t35.5 15q36 -4 49 -38q14 -33 14 -64zM492 534q0 19 -4.5 32.5t-8.5 13.5q-19 0 -33 -27t-6 2v27q-31 -148 -37.5 -198t-10.5 -125q56 81 76.5 141t23.5 134z" />
    <glyph glyph-name="afii61352" unicode="&#x2116;" horiz-adv-x="824" 
d="M307 660h52q15 -1 15 -21.5t-10 -21.5h-14q4 -54 8.5 -125t6.5 -189q0 -26 -0.5 -54t-1.5 -57q0 -16 -10.5 -28t-23.5 -18q-9 3 -106 141q-49 68 -84 122t-78 133q5 -122 7 -203t3 -192h16q15 -1 15 -21.5t-10 -21.5h-57q-20 2 -20 22q0 17 21 22q0 46 -1 99
q-1 59 -3 141v72q0 94 2 113q0 11 5 18.5t12 4.5q12 -7 18 -14q68 -81 127 -166.5t135 -224.5q-8 187 -13 288q-4 81 -7 136q-24 6 -24 24q0 20 20 21zM669 236q0 -64 -35 -105q-32 -43 -102 -39q-99 9 -107 148q0 48 13 91q11 29 35 52t47 23q53 4 85 -25q67 -59 64 -145z
M631 228q5 70 -37 105q-25 25 -50 25q-33 0 -53 -16q-31 -30 -31 -91q0 -62 32 -91q24 -20 50 -20q82 0 89 88zM795 177q0 -24 -10.5 -37t-26.5 -13q-17 0 -29 13.5t-12 36.5q0 24 11.5 37t29.5 13q16 0 26.5 -13t10.5 -37z" />
    <glyph glyph-name="uni2121" unicode="&#x2121;" horiz-adv-x="824" 
d="M621 299q0 -18 -2.5 -28.5t-9.5 -18.5q-6 -7 -20 -13.5t-39 -12.5q-27 -8 -49 -8q-27 0 -56 3t-75 16q5 -45 15.5 -64.5t25.5 -30.5q16 -11 34.5 -15t37.5 -4q38 0 84 19q9 6 20.5 6t17.5 -7q5 -7 5 -18t-11 -19q-13 -10 -32.5 -16.5t-42.5 -10.5q-23 -3 -41 -3
q-55 0 -86.5 23t-48.5 56t-22.5 68.5t-5.5 59.5q0 23 5.5 53t22.5 57q16 25 44.5 42.5t76.5 17.5q33 0 60.5 -11.5t48.5 -31.5q20 -21 31.5 -48.5t11.5 -60.5zM141 153h19q0 49 -2 87q-1 40 -1 80q0 60 1.5 118.5t6.5 125.5q-34 6 -87 13q-49 13 -49 36t25 23
q34 -10 108 -16q47 -6 97.5 -9.5t98.5 -6.5q12 -3 12 -19q-1 -19 -19 -21t-26 -2h-117q0 -53 2 -153q2 -96 5 -256h18q15 -1 15 -21.5t-10 -21.5h-97q-20 2 -20 22t20 21zM678 658h43q23 0 24 -18q7 -32 12 -103q7 -199 0 -419h23q15 -1 15 -21.5t-10 -21.5h-97
q-20 2 -20 22t20 21h24q-2 71 -5 221q-3 159 0 276h-29q-20 2 -20 22t20 21zM576 312q0 21 -10.5 38.5t-27.5 30.5t-37.5 20.5t-44.5 7.5q-23 0 -40 -12t-26 -29q-9 -18 -13.5 -36.5t-4.5 -36.5q12 -15 43.5 -22t83.5 -7q77 0 77 46z" />
    <glyph glyph-name="trademark" unicode="&#x2122;" horiz-adv-x="824" 
d="M701 324h25q0 106 4 198q4 99 8 225q-42 -78 -67 -134.5t-46 -120.5q-32 -71 -61 -71q-50 0 -190 332q21 -246 21 -309v-83q0 -20 -2 -46h30q15 -1 15 -21.5t-10 -21.5h-97q-20 2 -20 22t20 21h30q-1 119 -3 198q-2 92 -8 164q-4 70 0.5 91.5t9.5 26.5q4 3 12 3
q6 0 20 -21.5t36 -62.5q23 -41 52.5 -97t70.5 -124q19 0 36 27.5t42 83.5q25 57 44.5 97t34.5 65q15 24 25.5 34t15.5 10q6 0 11 -3t6 -5q4 -37 5.5 -86.5t1.5 -107.5q0 -73 -2 -148q-1 -61 -4 -136h26q15 -1 15 -21.5t-10 -21.5h-97q-20 2 -20 22t20 21zM93 323h28
q0 50 -2 88q-1 40 -1 80q0 60 1.5 118.5t4.5 125.5q-28 6 -72 8q-37 12 -37 36q0 23 17 23q49 -6 88 -11q37 -6 76 -9.5t76 -6.5q8 -2 8 -19q0 -19 -13.5 -21t-19.5 -2h-93q0 -53 1 -153q2 -96 4 -257h26q15 -1 15 -21.5t-10 -21.5h-97q-20 2 -20 22t20 21z" />
    <glyph glyph-name="uni2126" unicode="&#x2126;" horiz-adv-x="824" 
d="M619 433q-4 -81 -40.5 -131.5t-99.5 -71.5v-96h77v93h48v-133h-177v172q64 18 100 58.5t40 109.5q-3 34 -14 62.5t-34 52.5q-44 47 -111 47q-66 0 -113 -47q-45 -45 -49 -117q0 -68 36 -108t100 -58v-172h-177v133h48v-93h81v96q-62 20 -100 69q-17 25 -28.5 60t-11.5 74
q0 91 60 150q61 57 155 61q85 -4 146 -61q59 -59 64 -150z" />
    <glyph glyph-name="uni212B" unicode="&#x212b;" horiz-adv-x="824" 
d="M239 114h26q11 34 20 65q22 94 53 187t65 180q13 34 32 34q11 0 26 -40q54 -152 88 -260q27 -87 46 -166h26q10 0 10 -16.5t-5 -16.5h-96q-16 2 -16 17t15 16h34q-17 43 -29 95q-81 0 -200 3q-6 -24 -28 -98h25q10 0 10 -16.5t-5 -16.5h-96q-16 2 -16 17t15 16zM399 790
q23 0 38.5 -7.5t24.5 -21.5q10 -12 13.5 -26t3.5 -29q0 -14 -5 -28t-14 -25q-10 -10 -25 -16.5t-36 -6.5q-19 0 -35 7.5t-27 18.5q-7 9 -10.5 24t-3.5 30q0 16 4 30.5t14 25.5q9 11 23 17.5t35 6.5zM513 254q-24 95 -84 294l-88 -300zM403 658q25 0 38.5 17.5t13.5 34.5
q0 18 -13.5 35t-38.5 17q-26 0 -37 -16t-11 -33q-4 -20 10 -37.5t38 -17.5z" />
    <glyph glyph-name="onethird" unicode="&#x2153;" horiz-adv-x="824" 
d="M306 676v-272h-28v192h-56v24q23 0 39.5 14.5t20.5 41.5h24zM608 591l21 -17l-409 -426l-18 18zM638 142q0 -20 -7.5 -35t-19.5 -26q-12 -10 -29 -15.5t-34 -5.5q-44 0 -69 24.5t-25 67.5h32q0 -25 14.5 -46.5t47.5 -21.5q24 0 43 14.5t19 44.5q0 21 -17 35t-39 14h-28
v24h27q15 0 30 10.5t15 35.5t-15 35.5t-35 10.5q-29 0 -45 -21.5t-13 -46.5h-28q0 38 21.5 65t64.5 27q33 0 55.5 -17t26.5 -52q0 -14 -4.5 -26.5t-29.5 -30.5q29 -17 35.5 -31.5t6.5 -32.5z" />
    <glyph glyph-name="twothirds" unicode="&#x2154;" horiz-adv-x="824" 
d="M354 440v-24h-176q0 45 26 69q24 23 61 48q10 6 20.5 12.5t21.5 16.5q7 12 11 22t4 27q0 24 -14.5 36.5t-35.5 12.5q-34 0 -48 -23.5t-14 -48.5h-28q0 38 21 69t69 31q36 0 59 -19.5t23 -58.5t-30 -64q-14 -13 -30.5 -25t-31.5 -22q-15 -12 -27 -20.5t-28 -38.5h147z
M616 600l18 -18l-409 -425l-15 17zM634 150q0 -39 -25 -60.5t-65 -21.5q-44 0 -67 24.5t-23 67.5h28q0 -25 14.5 -46.5t47.5 -21.5q24 0 43 14.5t19 44.5q0 21 -17 35t-35 14h-28v24h27q11 0 28 10t17 36t-17 36t-38 10q-28 0 -42.5 -21.5t-14.5 -46.5h-28q0 38 21.5 65
t64.5 27q33 0 55.5 -17t26.5 -52q0 -14 -4.5 -26.5t-26.5 -30.5q26 -17 32.5 -31.5t6.5 -32.5z" />
    <glyph glyph-name="oneeighth" unicode="&#x215b;" horiz-adv-x="824" 
d="M306 679v-272h-28v192h-56v24q23 0 39.5 14.5t20.5 41.5h24zM608 594l21 -17l-409 -426l-18 18zM642 144q0 -42 -27 -63.5t-68 -21.5q-93 6 -93 85q0 14 9 30.5t36 35.5q-24 17 -28.5 29.5t-4.5 25.5q0 20 7 33t18 22q10 8 25 11.5t32 3.5t32 -3.5t26 -11.5
q10 -8 17 -21.5t7 -33.5q0 -13 -4.5 -25.5t-25.5 -30.5q24 -17 33 -32.5t9 -32.5zM602 264q0 26 -15.5 36.5t-38.5 10.5q-20 0 -35 -10t-19 -36q4 -25 19 -33.5t35 -8.5q23 0 38.5 9.5t15.5 31.5zM614 146q0 21 -21 35t-45 14t-43 -12.5t-19 -36.5q0 -30 19 -44.5t43 -14.5
q27 0 46.5 14.5t19.5 44.5z" />
    <glyph glyph-name="threeeighths" unicode="&#x215c;" horiz-adv-x="824" 
d="M374 488q-4 -43 -29.5 -64t-60.5 -21q-47 0 -70.5 27t-23.5 69h32q-3 -25 13 -46.5t44 -21.5t47.5 13t19.5 41q0 25 -19 39.5t-37 14.5h-28v24h28q15 0 29.5 12t14.5 34q0 25 -15.5 35.5t-39.5 10.5q-28 0 -42.5 -21.5t-14.5 -42.5h-24q0 34 21.5 63t60.5 29
q32 0 57.5 -17.5t28.5 -51.5q0 -17 -6 -28.5t-29 -30.5q27 -17 35 -33t8 -34zM608 594l21 -17l-409 -426l-18 18zM642 144q0 -42 -27 -63.5t-68 -21.5q-93 6 -93 85q0 14 9 30.5t36 35.5q-24 17 -28.5 29.5t-4.5 25.5q0 20 7 33t18 22q10 8 25 11.5t32 3.5t32 -3.5t26 -11.5
q10 -8 17 -21.5t7 -33.5q0 -13 -4.5 -25.5t-25.5 -30.5q24 -17 33 -32.5t9 -32.5zM602 264q0 26 -15.5 36.5t-38.5 10.5q-20 0 -35 -10t-19 -36q4 -25 19 -33.5t35 -8.5q23 0 38.5 9.5t15.5 31.5zM614 146q0 21 -21 35t-45 14t-43 -12.5t-19 -36.5q0 -30 19 -44.5t43 -14.5
q27 0 46.5 14.5t19.5 44.5z" />
    <glyph glyph-name="fiveeighths" unicode="&#x215d;" horiz-adv-x="824" 
d="M374 494q0 -38 -27 -61.5t-67 -28.5q-39 0 -64.5 25t-25.5 63h32q0 -22 16.5 -41t40.5 -19q29 0 48 19t19 47t-19 47t-47 19q-33 0 -57 -32h-25l27 144h137v-24h-116q-3 -24 -5 -33.5t-8 -43.5q25 8 34 10.5t17 2.5q40 0 65 -25t25 -69zM608 595l21 -17l-409 -426l-18 18
zM642 145q0 -42 -27 -63.5t-68 -21.5q-93 6 -93 85q0 14 9 30.5t36 35.5q-24 17 -28.5 29.5t-4.5 25.5q0 20 7 33t18 22q10 8 25 11.5t32 3.5t32 -3.5t26 -11.5q10 -8 17 -21.5t7 -33.5q0 -13 -4.5 -25.5t-25.5 -30.5q24 -17 33 -32.5t9 -32.5zM602 265q0 26 -15.5 36.5
t-38.5 10.5q-20 0 -35 -10t-19 -36q4 -25 19 -33.5t35 -8.5q23 0 38.5 9.5t15.5 31.5zM614 147q0 21 -21 35t-45 14t-43 -12.5t-19 -36.5q0 -30 19 -44.5t43 -14.5q27 0 46.5 14.5t19.5 44.5z" />
    <glyph glyph-name="seveneighths" unicode="&#x215e;" horiz-adv-x="824" 
d="M390 674v-25q-31 -28 -66 -88t-42 -155h-31q4 59 26.5 115t82.5 125h-146v28h176zM608 594l18 -18l-409 -425l-15 17zM642 143q0 -42 -27 -63.5t-68 -21.5q-93 6 -93 85q0 14 9 30.5t36 35.5q-24 17 -28.5 29.5t-4.5 25.5q0 20 7 33t18 22q10 8 25 11.5t32 3.5t32 -3.5
t26 -11.5q10 -8 17 -21.5t7 -33.5q0 -13 -4.5 -25.5t-25.5 -30.5q24 -17 33 -32.5t9 -32.5zM602 263q0 26 -15.5 36.5t-38.5 10.5q-20 0 -35 -10t-19 -36q4 -25 19 -33.5t35 -8.5q23 0 38.5 9.5t15.5 31.5zM614 145q0 21 -21 35t-45 14t-43 -12.5t-19 -36.5q0 -30 19 -44.5
t43 -14.5q27 0 46.5 14.5t19.5 44.5z" />
    <glyph glyph-name="uni2160" unicode="&#x2160;" horiz-adv-x="824" 
d="M425 77h-39v601h39v-601z" />
    <glyph glyph-name="uni2161" unicode="&#x2161;" horiz-adv-x="824" 
d="M317 77h-47v601h47v-601zM540 77h-47v601h47v-601z" />
    <glyph glyph-name="uni2162" unicode="&#x2162;" horiz-adv-x="824" 
d="M244 77h-47v601h47v-601zM425 77h-39v601h39v-601zM614 77h-47v601h47v-601z" />
    <glyph glyph-name="uni2163" unicode="&#x2163;" horiz-adv-x="824" 
d="M218 77h-47v601h47v-601zM717 678l-174 -601h-66l-174 601h52l153 -556q51 180 89 309.5t72 246.5h48z" />
    <glyph glyph-name="uni2164" unicode="&#x2164;" horiz-adv-x="824" 
d="M646 678l-212 -601h-53l-213 601h50l189 -560q59 174 105 306.5t88 253.5h46z" />
    <glyph glyph-name="uni2165" unicode="&#x2165;" horiz-adv-x="824" 
d="M535 678l-174 -601h-66l-178 601h52l157 -555q50 179 87.5 309t69.5 246h52zM667 77h-47v601h47v-601z" />
    <glyph glyph-name="uni2166" unicode="&#x2166;" horiz-adv-x="824" 
d="M447 678l-137 -601h-64l-144 601h51l123 -559q44 191 73 318t55 241h43zM567 77h-43v601h43v-601zM702 77h-47v601h47v-601z" />
    <glyph glyph-name="uni2167" unicode="&#x2167;" horiz-adv-x="824" 
d="M378 678l-114 -601h-65l-109 601h47l92 -565q38 209 60.5 332t41.5 233h47zM483 77h-43v601h43v-601zM606 77h-43v601h43v-601zM725 77h-43v601h43v-601z" />
    <glyph glyph-name="uni2168" unicode="&#x2168;" horiz-adv-x="824" 
d="M183 77h-43v601h43v-601zM720 77h-52l-168 273q-51 -85 -89.5 -151t-71.5 -122h-55l192 305q-51 83 -100.5 163.5t-81.5 132.5h57l153 -256q47 81 83 143t66 113h53l-179 -296z" />
    <glyph glyph-name="uni2169" unicode="&#x2169;" horiz-adv-x="824" 
d="M639 77h-55l-181 274q-56 -84 -99 -150.5t-81 -123.5h-55l215 307q-57 83 -112 162.5t-89 131.5h53l168 -255q53 79 94.5 140.5t78.5 114.5h52l-200 -295z" />
    <glyph glyph-name="uni2170" unicode="&#x2170;" horiz-adv-x="824" 
d="M425 77h-36v428h36v-428zM425 600h-36v78h36v-78z" />
    <glyph glyph-name="uni2171" unicode="&#x2171;" horiz-adv-x="824" 
d="M317 77h-43v428h43v-428zM537 77h-44v428h44v-428zM317 600h-43v78h43v-78zM537 600h-44v78h44v-78z" />
    <glyph glyph-name="uni2172" unicode="&#x2172;" horiz-adv-x="824" 
d="M240 77h-43v428h43v-428zM425 77h-36v428h36v-428zM240 600h-43v78h43v-78zM614 77h-44v428h44v-428zM425 600h-36v78h36v-78zM614 600h-44v78h44v-78z" />
    <glyph glyph-name="uni2173" unicode="&#x2173;" horiz-adv-x="824" 
d="M256 77h-43v428h43v-428zM663 505l-135 -428h-55l-132 428h44l115 -389q41 136 68.5 224.5t50.5 164.5h44zM256 600h-43v78h43v-78z" />
    <glyph glyph-name="uni2174" unicode="&#x2174;" horiz-adv-x="824" 
d="M587 493l-157 -428h-42l-158 428h46l135 -393q45 132 75 222.5t56 170.5h45z" />
    <glyph glyph-name="uni2175" unicode="&#x2175;" horiz-adv-x="824" 
d="M477 505l-135 -428h-51l-139 428h43l124 -389q38 136 63 225t47 164h48zM601 77h-43v428h43v-428zM601 600h-43v78h43v-78z" />
    <glyph glyph-name="uni2176" unicode="&#x2176;" horiz-adv-x="824" 
d="M412 505l-120 -428h-51l-124 428h47l104 -392q37 143 59 230.5t42 161.5h43zM528 77h-39v428h39v-428zM659 77h-43v428h43v-428zM528 600h-39v78h39v-78zM659 600h-43v78h43v-78z" />
    <glyph glyph-name="uni2177" unicode="&#x2177;" horiz-adv-x="824" 
d="M389 505l-116 -428h-55l-116 428h43l100 -392q36 143 59.5 230.5t41.5 161.5h43zM486 77h-35v428h35v-428zM602 77h-39v428h39v-428zM710 77h-36v428h36v-428zM490 600h-39v78h39v-78zM602 600h-39v78h39v-78zM710 600h-40v78h40v-78z" />
    <glyph glyph-name="uni2178" unicode="&#x2178;" horiz-adv-x="824" 
d="M249 77h-44v428h44v-428zM674 77h-48l-118 196q-39 -64 -68 -112.5t-50 -83.5h-46l141 226q-37 59 -76 117t-57 85h54l102 -166q36 59 60.5 97.5t41.5 68.5h53l-132 -203zM249 600h-44v78h44v-78z" />
    <glyph glyph-name="uni2179" unicode="&#x2179;" horiz-adv-x="824" 
d="M590 65h-49l-134 198q-42 -64 -74.5 -112t-59.5 -86h-48l163 222q-26 34 -47 62.5t-42 57.5t-41.5 57t-21.5 29h49l122 -173q40 56 68 98.5t51 74.5h48l-145 -206z" />
    <glyph glyph-name="arrowleft" unicode="&#x2190;" horiz-adv-x="824" 
d="M804 346h-586q40 -36 52 -48t14 -13l-2 -4l-231 82l229 78l2 -5l-64 -56h586v-34z" />
    <glyph glyph-name="arrowup" unicode="&#x2191;" horiz-adv-x="824" 
d="M389 -37v630q-38 -48 -47.5 -60.5t-11.5 -14.5l-5 2l77 248l82 -248l-5 -2l-59 75v-630h-31z" />
    <glyph glyph-name="arrowright" unicode="&#x2192;" horiz-adv-x="824" 
d="M25 380h587q-44 36 -56 45.5t-13 10.5l3 4l227 -77l-228 -82l-2 6l66 59h-584v34z" />
    <glyph glyph-name="arrowdown" unicode="&#x2193;" horiz-adv-x="824" 
d="M479 210l4 -2l-81 -248l-77 248l4 1l60 -77v633h31v-628z" />
    <glyph glyph-name="arrowboth" unicode="&#x2194;" horiz-adv-x="824" 
d="M262 280l-1 -3l-213 86l214 86l1 -3l-70 -66h424q-41 38 -54.5 50.5t-16.5 15.5l2 3l222 -86l-220 -86l-2 3l68 66h-422z" />
    <glyph glyph-name="arrowupdn" unicode="&#x2195;" horiz-adv-x="824" 
d="M326 526l-6 3l82 247l86 -247l-5 -2l-62 73v-476q36 43 48 57t14 16l5 -2l-85 -243l-82 241l6 3l62 -71v476z" />
    <glyph glyph-name="uni2196" unicode="&#x2196;" horiz-adv-x="824" 
d="M753 -30l-618 654v-126l-5 -1l-100 265l244 -113l-1 -5h-116q174 -180 328.5 -341.5t293.5 -306.5z" />
    <glyph glyph-name="uni2197" unicode="&#x2197;" horiz-adv-x="824" 
d="M27 -14l621 654h-122l-1 4l252 109l-106 -259l-4 1v117q-175 -183 -329 -345t-291 -305z" />
    <glyph glyph-name="uni2198" unicode="&#x2198;" horiz-adv-x="824" 
d="M50 757l621 -650v122l4 1l104 -262l-247 111l1 5h116q-176 185 -325.5 342.5t-292.5 307.5z" />
    <glyph glyph-name="uni2199" unicode="&#x2199;" horiz-adv-x="824" 
d="M778 731l-624 -655h124l1 -4l-248 -108l101 258l5 -1v-118q175 186 325 345.5t289 306.5z" />
    <glyph glyph-name="arrowdblright" unicode="&#x21d2;" horiz-adv-x="824" 
d="M604 447q-62 44 -86.5 61.5t-34.5 24.5l25 28l276 -199l-277 -201l-23 28l127 90h-586v33h628q18 14 28 21t40 30q-28 21 -41 29.5t-29 20.5h-626v34h579z" />
    <glyph glyph-name="arrowdblboth" unicode="&#x21d4;" horiz-adv-x="824" 
d="M604 447q-59 44 -85.5 63t-33.5 25l23 28l276 -199l-276 -201l-25 28l122 88h-403q60 -44 86 -63t35 -26l-18 -27l-275 200l275 200l19 -28l-123 -88h403zM653 312q18 14 27.5 21t39.5 30q-27 20 -39.5 29.5t-27.5 20.5h-495q-19 -13 -28.5 -20t-38.5 -30
q26 -21 39.5 -31t26.5 -20h496z" />
    <glyph glyph-name="universal" unicode="&#x2200;" horiz-adv-x="824" 
d="M582 651h37l-191 -513h-47l-195 513h41l62 -166h230zM409 167q33 96 52 151.5t47 135.5h-212z" />
    <glyph glyph-name="partialdiff" unicode="&#x2202;" horiz-adv-x="824" 
d="M508 371q-31 0 -68 -6.5t-75 -36.5q-22 -14 -33 -31t-15 -37q-4 -17 -1.5 -32t10.5 -26q18 -24 52 -11q35 14 61 38q18 19 28.5 37t18.5 35q12 20 17 37t7 29zM398 508q-44 -7 -68 -35q-23 -27 -32 -19q1 -1 33 41q35 43 107 40q68 -3 97 -60q14 -31 14 -73q0 -31 -8 -68
q-19 -58 -55 -98.5t-84 -56.5q-32 -10 -50 -10q-59 0 -73 65q-2 10 2 28.5t12 39.5q26 49 109 72q30 9 56 10t44 1h8q1 21 -1.5 44t-12.5 45q-12 17 -29 27.5t-37 10.5q-19 0 -32 -4v0z" />
    <glyph glyph-name="existential" unicode="&#x2203;" horiz-adv-x="824" 
d="M576 651v-513h-336v32h297v218h-277v32h277v199h-297v32h336z" />
    <glyph glyph-name="gradient" unicode="&#x2207;" horiz-adv-x="824" 
d="M732 616l-328 -506l-328 506h656zM646 569h-483q69 -105 121 -186t120 -184z" />
    <glyph glyph-name="element" unicode="&#x2208;" horiz-adv-x="824" 
d="M145 352q2 -35 16 -67.5t35 -65.5q51 -64 158 -64h346v-29h-337q-116 0 -183 67q-68 72 -68 174q0 101 68 171q67 70 183 70h337v-30h-346q-106 0 -158 -64q-21 -34 -35 -66t-16 -66h554v-30h-554z" />
    <glyph glyph-name="suchthat" unicode="&#x220b;" horiz-adv-x="824" 
d="M132 352v30h556q-3 64 -57 132q-48 64 -153 64h-347v30h340q112 0 182 -70q67 -69 67 -171t-67 -174q-70 -67 -182 -67h-340v29h347q105 0 153 64q24 31 40 64.5t17 68.5h-556z" />
    <glyph glyph-name="product" unicode="&#x220f;" horiz-adv-x="824" 
d="M634 657v-38h-104v-481h-36v481h-176v-481h-39v481h-108v38h463z" />
    <glyph glyph-name="summation" unicode="&#x2211;" horiz-adv-x="824" 
d="M587 170v-38h-370v30l205 236q-57 63 -107 116.5t-94 101.5v41h363v-38h-303q66 -75 114 -128t83 -93l-201 -228h310z" />
    <glyph glyph-name="radical" unicode="&#x221a;" horiz-adv-x="824" 
d="M82 243q20 13 36.5 25.5t31.5 24.5l78 -156q23 118 43.5 239t37.5 240h424v-30h-402l-86 -525q-1 -2 -5.5 -2t-5.5 2l-93 189q-9 -7 -21 -16t-21 -17z" />
    <glyph glyph-name="proportional" unicode="&#x221d;" horiz-adv-x="824" 
d="M139 367q0 -63 42 -106q40 -43 100 -43q84 0 121 72q19 35 27.5 53.5t8.5 23.5q0 4 -8.5 22.5t-27.5 53.5q-37 72 -121 72q-60 0 -100 -43q-23 -24 -32.5 -49.5t-9.5 -55.5v0zM710 495q-18 12 -35 16t-44 4q-90 0 -123 -72q-34 -69 -34 -76q0 -8 34 -77q33 -72 123 -72
q26 0 44 5.5t35 15.5q5 -8 9 -13.5t8 -11.5q-23 -13 -44 -20.5t-52 -7.5q-46 0 -79.5 17t-50.5 50q-21 30 -31 52t-12 28q-2 -7 -13.5 -26.5t-33.5 -53.5q-40 -67 -130 -67q-71 0 -124 53q-47 52 -47 128q0 74 47 127q54 53 124 53q89 0 129 -67q41 -69 42 -72h9q0 2 9.5 20
t32.5 52q18 33 51 50t77 17q30 0 52.5 -7.5t43.5 -20.5z" />
    <glyph glyph-name="infinity" unicode="&#x221e;" horiz-adv-x="824" 
d="M416 404q0 -2 7 8.5t16 29.5q4 4 7 10.5t10 12.5q17 26 46 40.5t67 14.5q56 0 105 -44q43 -45 43 -109q0 -66 -43 -110q-49 -45 -105 -45q-38 0 -67 15t-46 38q-6 9 -10 15.5t-7 10.5q-8 19 -15.5 27.5t-7.5 10.5h-5q1 2 -4 -8.5t-16 -29.5q-3 -5 -8 -10t-9 -16
q-36 -53 -113 -53q-56 0 -105 45q-43 44 -43 110q0 64 43 109q49 44 105 44q38 0 68.5 -14.5t44.5 -40.5q3 -5 8.5 -12t8.5 -11q11 -18 15.5 -27t4.5 -11h5zM149 367q0 -50 34 -86q33 -36 78 -36q69 0 101 57q29 58 32 65q-2 2 -11 18t-21 44q-32 60 -101 60q-45 0 -78 -36
q-34 -36 -34 -86v0zM685 367q0 51 -35 86q-33 36 -81 36q-67 0 -98 -60q-15 -28 -24 -44t-9 -18q0 -4 9 -19.5t24 -45.5q31 -57 98 -57q48 0 81 36q35 35 35 86v0z" />
    <glyph glyph-name="angle" unicode="&#x2220;" horiz-adv-x="824" 
d="M680 100h-531q-7 0 -18 1t-14 3q-4 4 -2 11t6 12l510 487l26 -27l-480 -452h503v-35z" />
    <glyph glyph-name="uni2225" unicode="&#x2225;" horiz-adv-x="824" 
d="M328 782h28v-829h-28v829zM474 782h30v-829h-30v829z" />
    <glyph glyph-name="logicaland" unicode="&#x2227;" horiz-adv-x="824" 
d="M414 610q-59 -133 -123 -267.5t-123 -267.5q-10 4 -14.5 6t-9.5 8q65 138 128.5 278.5t129.5 278.5q1 4 5 9.5t7 5.5q7 0 10 -4t6 -11q65 -140 127.5 -278.5t130.5 -278.5q-6 -6 -12.5 -8t-13.5 -6z" />
    <glyph glyph-name="logicalor" unicode="&#x2228;" horiz-adv-x="824" 
d="M414 125q61 133 125 267.5t123 267.5q7 -4 13.5 -7t12.5 -7q-67 -138 -130 -278.5t-128 -278.5q-3 -6 -8.5 -11t-7.5 -5q-3 0 -7 5t-5 11q-67 140 -129.5 278.5t-128.5 278.5q5 4 9.5 7t14.5 7z" />
    <glyph glyph-name="intersection" unicode="&#x2229;" horiz-adv-x="824" 
d="M410 654q-60 0 -128 -52q-66 -51 -66 -168v-369h-31v359q0 121 69 192q66 70 160 70q97 0 165 -70q66 -71 66 -192v-359h-28v369q0 57 -17.5 99.5t-52.5 68.5q-32 24 -65.5 38t-60.5 14h-11z" />
    <glyph glyph-name="union" unicode="&#x222a;" horiz-adv-x="824" 
d="M407 79q31 0 65 13.5t67 38.5q32 26 49.5 68.5t17.5 99.5v370h25v-359q0 -122 -63 -193q-67 -69 -165 -69q-96 0 -160 69q-66 71 -66 193v359h28v-370q0 -118 63 -168q67 -52 133 -52h6z" />
    <glyph glyph-name="integral" unicode="&#x222b;" horiz-adv-x="824" 
d="M402 476q3 53 13.5 96t22.5 75t31 51.5t42 25.5q25 5 36 -13t3 -32q-10 -23 -28 -15q-16 16 -29 12q-43 -15 -45 -84q-1 -31 -2.5 -63t-3.5 -62q-2 -27 -3 -48t-1 -36v-24v-15q-1 -14 -2.5 -35.5t-4.5 -50.5q-15 -105 -40.5 -171t-70.5 -76q-27 -6 -39 13q-4 7 -4.5 15.5
t3.5 15.5q13 23 27 13v1q23 -14 30 -10q22 9 31 30t11 52q2 33 5 64.5t4 59.5q2 37 3.5 64t2.5 43v9.5v8.5q1 27 8 86v0z" />
    <glyph glyph-name="uni222C" unicode="&#x222c;" horiz-adv-x="824" 
d="M510 476q10 106 39 172t72 76q27 5 36 -13q11 -19 4 -32q-10 -22 -29 -13v-2q-15 16 -29 12q-42 -15 -45 -84q-1 -31 -2.5 -63t-3.5 -62q-1 -33 -2.5 -59.5t-2.5 -44.5q-1 -5 -1 -10.5v-8.5q0 -28 -5 -86q-11 -105 -39 -171t-73 -76q-26 -6 -36 13q-16 17 -3 31
q13 24 26 14q22 -14 31 -10q21 9 31 30t11 52q5 33 6 64.5t3 59.5q2 37 3 64t2 43q0 2 0.5 8.5t0.5 9.5q2 27 6 86v0zM289 476q4 53 14.5 96t23.5 75q11 32 30 51.5t44 25.5q22 5 36 -13q8 -18 1 -32q-11 -22 -29 -13v-2q-15 16 -32 12q-40 -17 -41 -84q-1 -31 -3 -63
t-3 -62q0 -27 -0.5 -48t-1.5 -36t-1.5 -24t-0.5 -15q-1 -14 -2.5 -36t-4.5 -50q-6 -50 -16.5 -94t-23.5 -78q-17 -30 -35 -49.5t-37 -25.5q-25 -6 -39 13q-7 7 -7.5 15.5t2.5 15.5q19 23 31 13v1q22 -14 30 -10q21 9 30.5 30t11.5 52q2 33 3 64.5t3 59.5q7 99 8 125v-1
q1 4 1 8t1 9q2 13 3 30.5t4 39.5v0z" />
    <glyph glyph-name="uni222E" unicode="&#x222e;" horiz-adv-x="824" 
d="M526 628q-4 8 -13.5 16.5t-28.5 14.5q-22 -10 -34.5 -50t-24.5 -124q45 -12 69 -37.5t24 -65.5q-3 -19 -12 -36.5t-22 -31.5q-13 -13 -28 -21.5t-41 -12.5q-7 -47 -15 -80.5t-18 -57.5q-14 -25 -30 -39.5t-34 -14.5q-42 0 -61 36l23 14q-8 8 -4 3.5t5 -5.5
q8 -11 16.5 -19.5t27.5 -8.5q21 0 35.5 45t19.5 126q-42 12 -62 37t-20 67q4 33 28 58.5t66 37.5q5 17 6 26t3 17q5 29 9.5 53t14.5 45q11 26 27 42t38 16q42 0 61 -39zM490 382q5 25 -6.5 47t-57.5 42q0 -41 -1 -55.5t-3 -32.5q0 -16 -1.5 -35.5t-7.5 -59.5q46 19 60.5 42
t16.5 52zM390 472q-61 -38 -68 -89q0 -64 60 -94q4 30 4.5 40.5t0.5 18.5q1 8 1.5 17.5t1.5 17.5v89z" />
    <glyph glyph-name="therefore" unicode="&#x2234;" horiz-adv-x="824" 
d="M622 192q18 0 28 -11t10 -28q0 -16 -10 -28t-28 -12q-12 0 -24.5 12t-12.5 28q0 17 12.5 28t24.5 11v0zM208 192q13 0 25.5 -11t12.5 -28q0 -16 -12.5 -28t-25.5 -12q-18 0 -28 12t-10 28q0 17 10 28t28 11v0zM414 610q17 0 27 -12t10 -28q0 -17 -10 -28.5t-27 -11.5
q-12 0 -25 11.5t-13 28.5q0 16 13 28t25 12v0z" />
    <glyph glyph-name="uni2235" unicode="&#x2235;" horiz-adv-x="824" 
d="M622 539q-12 0 -24.5 12t-12.5 28q0 14 12.5 27t24.5 13q18 0 28 -13t10 -27q0 -16 -10 -28t-28 -12v0zM208 539q-18 0 -28 12t-10 28q0 14 10 27t28 13q13 0 25.5 -13t12.5 -27q0 -16 -12.5 -28t-25.5 -12v0zM414 120q-12 0 -25 13t-13 30t13 28.5t25 11.5
q17 0 27 -11.5t10 -28.5t-10 -30t-27 -13v0z" />
    <glyph glyph-name="similar" unicode="&#x223c;" horiz-adv-x="824" 
d="M72 322q4 76 59 136q53 61 134 51q89 -10 134 -97q46 -85 130 -91q74 -4 109 45q38 46 50 114h30q-7 -39 -22 -72.5t-41 -63.5q-36 -52 -109 -52q-6 0 -14.5 0.5t-15.5 0.5q-42 7 -76.5 31.5t-59.5 65.5v-1q-50 87 -121 94q-38 0 -70 -11.5t-47 -41.5q-20 -27 -29 -54.5
t-12 -53.5h-29z" />
    <glyph glyph-name="uni223D" unicode="&#x223d;" horiz-adv-x="824" 
d="M605 557q27 -2 56 -12t55 -33q48 -46 48 -138q-1 -64 -45 -114q-43 -48 -116 -48q-23 0 -41.5 3.5t-31.5 10.5q-7 3 -11 5.5t-7 4.5q-2 1 -3.5 2t-2.5 2q3 7 5 14.5t6 12.5q1 -2 3 -2t11 -2q3 -2 6 -3.5l7 -3.5q9 -6 25.5 -9.5t37.5 -3.5q50 0 86 39t38 89q2 66 -34 109
q-36 45 -94 49q-82 4 -119 -56q-38 -57 -55 -101q-8 -17 -23 -42.5t-40 -56.5q-44 -66 -137 -59q-56 4 -111 49q-20 23 -33.5 57t-12.5 75q1 62 43 114q43 52 116 52q49 0 72 -15q15 -6 20.5 -9t6.5 -5q-4 -7 -6 -12.5t-6 -12.5q-3 1 -10 4t-15 8q-26 12 -65 12
q-49 0 -87 -37q-39 -37 -40 -94q-1 -68 35 -111.5t95 -46.5q78 -5 123 60q17 35 31.5 58t18.5 33q12 23 28 49t39 56q40 64 134 59v0z" />
    <glyph glyph-name="uni2252" unicode="&#x2252;" horiz-adv-x="824" 
d="M703 423h-590v36h590v-36zM703 265h-590v36h590v-36zM231 620q21 0 33 -15.5t16 -32.5q0 -17 -12 -31t-37 -14q-21 0 -32.5 11.5t-12.5 28.5q-1 9 2 18.5t9 17.5q5 7 14 12t20 5zM581 193q12 0 21 -5t15 -13q7 -7 10 -17t3 -17q-4 -18 -14 -29.5t-35 -11.5
q-20 0 -31.5 11.5t-12.5 29.5q-2 8 1 17.5t9 17.5q5 7 14 12t20 5z" />
    <glyph glyph-name="notequal" unicode="&#x2260;" horiz-adv-x="824" 
d="M425 472q13 49 31 102t32 104q11 -1 17.5 -3.5t14.5 -4.5l-58 -198h258v-33h-273l-45 -149h318v-34h-327q-21 -50 -38.5 -101t-31.5 -101q-9 2 -19 4.5t-16 3.5l67 194h-224v34h235l45 149h-280v33h294z" />
    <glyph glyph-name="equivalence" unicode="&#x2261;" horiz-adv-x="824" 
d="M699 473h-590v36h590v-36zM699 335h-590v35h590v-35zM699 200h-590v35h590v-35z" />
    <glyph glyph-name="lessequal" unicode="&#x2264;" horiz-adv-x="824" 
d="M197 454q126 -55 251 -110.5t245 -109.5q-2 -9 -5 -16.5t-7 -15.5q-133 57 -271.5 118.5t-265.5 118.5q-4 2 -10.5 5.5t-6.5 9.5q0 4 6.5 7.5t11.5 7.5h-1q136 60 269 118.5t269 119.5q4 -10 7 -17t4 -16zM112 136h607v-35h-607v35z" />
    <glyph glyph-name="greaterequal" unicode="&#x2265;" horiz-adv-x="824" 
d="M642 454q-126 54 -251 109.5t-245 110.5q3 9 5 16t5 17q134 -58 272 -119.5t265 -118.5q6 -4 12 -7.5t6 -7.5q0 -6 -6.5 -9.5t-11.5 -5.5q-135 -60 -267.5 -119t-267.5 -118q-4 8 -6.5 15.5l-5.5 16.5zM727 136v-35h-608v35h608z" />
    <glyph glyph-name="uni226A" unicode="&#x226a;" horiz-adv-x="824" 
d="M518 678q5 -6 10.5 -12t9.5 -12l-393 -287q100 -73 196.5 -145t198.5 -144q-5 -7 -11 -11.5t-11 -10.5q-97 74 -197 147.5t-203 147.5q-2 1 -3.5 2t-2.5 2q-7 6 -7 12q0 4 4 6.5t8 8.5zM720 678q4 -6 6.5 -12t6.5 -12l-392 -287q98 -73 198 -145t196 -144
q-5 -7 -7.5 -11.5t-7.5 -10.5q-101 74 -202.5 147.5t-197.5 147.5l-4 2t-2 2q-13 6 -13 12q0 4 6.5 6.5t11.5 8.5z" />
    <glyph glyph-name="uni226B" unicode="&#x226b;" horiz-adv-x="824" 
d="M712 383q4 -4 9.5 -9t5.5 -7q0 -4 -2.5 -6.5t-6.5 -5.5q-1 0 -3 -1.5t-3 -2.5q-101 -74 -201.5 -147.5t-201.5 -147.5q-5 5 -9.5 10.5t-6.5 11.5l395 289q-102 71 -198 143t-197 144q4 7 7.5 12t8.5 12zM511 383q4 -4 11 -9t7 -7q0 -4 -4.5 -6.5t-7.5 -5.5q-1 0 -3 -1.5
t-3 -2.5q-100 -74 -198.5 -147.5t-200.5 -147.5q-3 5 -8 10.5t-9 11.5l391 289q-94 71 -194 143t-195 144q4 7 8 12t7 12z" />
    <glyph glyph-name="propersubset" unicode="&#x2282;" horiz-adv-x="824" 
d="M144 362q0 -68 46 -137q52 -70 164 -70h346v-29h-337q-116 0 -183 67q-68 72 -68 174q0 101 68 171q67 70 183 70h337v-30h-346q-111 0 -164 -70q-46 -70 -46 -137v-9z" />
    <glyph glyph-name="propersuperset" unicode="&#x2283;" horiz-adv-x="824" 
d="M689 371q0 66 -49 137q-53 70 -162 70h-347v30h340q112 0 182 -70q67 -69 67 -171t-67 -174q-70 -67 -182 -67h-340v29h347q110 0 162 70q49 70 49 137v9z" />
    <glyph glyph-name="reflexsubset" unicode="&#x2286;" horiz-adv-x="824" 
d="M112 120h607v-29h-607v29zM143 436q0 -67 47 -121q52 -56 163 -56h346v-30h-337q-131 0 -189 62q-61 60 -61 145q0 84 61 146q58 61 189 61h337v-30h-346q-112 0 -164 -58q-46 -52 -46 -119v0z" />
    <glyph glyph-name="reflexsuperset" unicode="&#x2287;" horiz-adv-x="824" 
d="M719 120v-29h-607v29h607zM690 436q0 67 -49 119q-52 58 -163 58h-351v30h344q124 0 185 -61q63 -62 63 -146t-62 -145q-61 -62 -186 -62h-344v30h351q110 0 163 56q49 54 49 121v0z" />
    <glyph glyph-name="uni2299" unicode="&#x2299;" horiz-adv-x="824" 
d="M415 719q138 0 239 -103q99 -103 99 -250t-99 -250q-102 -104 -239 -104t-237 103q-101 103 -101 251t101 250q101 103 237 103v0zM415 684q-123 0 -216 -93q-87 -93 -87 -225q0 -131 87 -226q93 -92 216 -92q128 0 212 92q93 94 93 226q0 65 -23 121t-70 103
q-44 45 -97.5 69.5t-114.5 24.5v0zM415 505q-51 0 -90 -42q-39 -41 -39 -98q0 -55 39 -100q38 -39 90 -39q57 0 95 39q36 45 36 100q0 57 -36 98q-39 42 -95 42v0z" />
    <glyph glyph-name="perpendicular" unicode="&#x22a5;" horiz-adv-x="824" 
d="M677 115h-547v36h257v461h36v-461h254v-36z" />
    <glyph glyph-name="uni2312" unicode="&#x2312;" horiz-adv-x="824" 
d="M405 625q57 0 106.5 -19.5t89.5 -52.5q40 -35 68.5 -86t35.5 -95h-46q-2 24 -22.5 64t-53.5 73q-33 35 -76.5 57t-101.5 22q-59 0 -105 -26t-80 -60q-31 -35 -50 -74.5t-22 -55.5h-42q6 42 33.5 92t65.5 84q43 35 93 56t107 21z" />
    <glyph glyph-name="uni2460" unicode="&#x2460;" horiz-adv-x="824" 
d="M361 165h45q10 176 -2 389q-58 -82 -77 -110q-9 -14 -15 -13l-13 7q-22 13 -18 21q60 85 102 127q33 33 43 32q16 -1 21 -9q8 -21 8 -199q2 -155 -1 -245h37q12 -1 12 -22t-8 -22h-134q-17 1 -17 22t17 22zM758 368q-4 -148 -103 -247t-243 -99q-152 0 -251 99t-103 247
q4 148 103 247t251 99q144 0 243 -99t103 -247zM720 368q-4 132 -92 220t-216 92q-136 -4 -224 -92t-88 -220t88 -220t224 -92q128 4 216 92t92 220z" />
    <glyph glyph-name="uni2461" unicode="&#x2461;" horiz-adv-x="824" 
d="M585 152q-3 -16 -16 -17l-221 3q-50 0 -67 15q-15 13 -11 50q4 25 21 34q174 73 195 206q3 29 -34 69t-82 51q-72 13 -82 15q-3 0 -6 7.5t-1 14.5t14 13q24 13 83 -4q64 -19 95 -43t57 -66q19 -29 14 -61q-8 -51 -48 -111.5t-185 -141.5l266 -3q11 -2 8 -31zM758 368
q-4 -148 -103 -247t-243 -99q-152 0 -251 99t-103 247q4 148 103 247t251 99q144 0 243 -99t103 -247zM720 368q-4 132 -92 220t-216 92q-136 -4 -224 -92t-88 -220t88 -220t224 -92q128 4 216 92t92 220z" />
    <glyph glyph-name="uni2462" unicode="&#x2462;" horiz-adv-x="824" 
d="M573 210q-5 -32 -26.5 -58.5t-42.5 -41.5q-54 -31 -162 -10q-24 7 -23 28q1 13 6 16q20 8 89 -2.5t106 69.5q-1 30 -25 48.5t-83 38.5q-84 22 -82 47q1 22 22 32q145 48 148 106q1 36 -16 45q-50 36 -141 57q-33 9 -31 39q1 18 18 17q18 -1 49 -9t99 -37q81 -38 77 -105
q-1 -82 -107 -116l-48 -24q54 -18 89 -28q37 -12 62 -37t22 -75zM758 368q-4 -148 -103 -247t-243 -99q-152 0 -251 99t-103 247q4 148 103 247t251 99q144 0 243 -99t103 -247zM720 368q-4 132 -92 220t-216 92q-136 -4 -224 -92t-88 -220t88 -220t224 -92q128 4 216 92
t92 220z" />
    <glyph glyph-name="uni2463" unicode="&#x2463;" horiz-adv-x="824" 
d="M399 170h40q0 29 5 81q-95 -13 -119 -11q-43 4 -61.5 23.5t-7.5 61.5q21 181 69 281q9 16 35.5 13.5t19.5 -16.5q-58 -100 -73 -281q-3 -38 37 -35q44 0 98 8q0 47 20 198q2 40 28 38q18 -1 17 -24q-13 -71 -21 -212q51 5 106 8q10 1 8 -23q-1 -21 -21 -22.5t-93 -7.5
q-3 -42 -3 -80h45q13 -1 13 -22t-8 -22h-134q-17 1 -17 22t17 22zM758 368q-4 -148 -103 -247t-243 -99q-152 0 -251 99t-103 247q4 148 103 247t251 99q144 0 243 -99t103 -247zM720 368q-4 132 -92 220t-216 92q-136 -4 -224 -92t-88 -220t88 -220t224 -92q128 4 216 92
t92 220z" />
    <glyph glyph-name="uni2464" unicode="&#x2464;" horiz-adv-x="824" 
d="M316 584q43 -8 193 -14q63 -4 56 -33t-29 -22q-26 7 -202 16q2 -63 5 -171q25 3 115 2q31 -2 59 -15t42 -43q14 -31 9.5 -62.5t-38.5 -68.5q-36 -37 -157 -41q-20 -6 -36 15.5t-5 24.5q123 6 156 29.5t29 55.5q-4 39 -57 52q-66 6 -96 2q-21 -2 -34 0q-21 1 -22 15
q-18 167 -14 245q0 6 6 9q9 5 20 4zM758 368q-4 -148 -103 -247t-243 -99q-152 0 -251 99t-103 247q4 148 103 247t251 99q144 0 243 -99t103 -247zM720 368q-4 132 -92 220t-216 92q-136 -4 -224 -92t-88 -220t88 -220t224 -92q128 4 216 92t92 220z" />
    <glyph glyph-name="uni2465" unicode="&#x2465;" horiz-adv-x="824" 
d="M568 255q0 -41 -22 -72.5t-44 -41.5q-49 -20 -118 -20q-24 0 -51 9q-22 12 -38.5 34.5t-20.5 61.5q0 78 15 130q24 71 74 160q62 117 100 117q18 0 23 -14q4 -11 3 -11q-38 -34 -79 -100q-36 -59 -61 -134q47 18 74 18t46 -10q99 -37 99 -127zM523 255q0 64 -79 92
q-44 12 -104 -12q-26 -43 -21 -109q0 -22 21 -43t45 -21q138 0 138 93zM758 368q-4 -148 -103 -247t-243 -99q-152 0 -251 99t-103 247q4 148 103 247t251 99q144 0 243 -99t103 -247zM720 368q-4 132 -92 220t-216 92q-136 -4 -224 -92t-88 -220t88 -220t224 -92
q128 4 216 92t92 220z" />
    <glyph glyph-name="uni2466" unicode="&#x2466;" horiz-adv-x="824" 
d="M461 179h28q-4 48 -4 121q2 130 23 224q-59 24 -197 19q-13 -26 -15 -56.5t2 -89.5q-2 -12 -16.5 -12t-12.5 -2q-22 61 -6 181q5 24 26 24q26 0 124 -9.5t126 -21.5q11 -5 10 -40q0 -17 -13 -56q-10 -63 -13 -101q-3 -36 -1 -181h24q11 -1 11 -19t-7 -19h-88
q-15 2 -15 19.5t14 18.5zM758 368q-4 -148 -103 -247t-243 -99q-152 0 -251 99t-103 247q4 148 103 247t251 99q144 0 243 -99t103 -247zM720 368q-4 132 -92 220t-216 92q-136 -4 -224 -92t-88 -220t88 -220t224 -92q128 4 216 92t92 220z" />
    <glyph glyph-name="uni2467" unicode="&#x2467;" horiz-adv-x="824" 
d="M590 240q0 -36 -16 -63t-43 -44q-26 -17 -59 -24.5t-66 -7.5q-32 0 -57 10.5t-42 24.5q-17 13 -27.5 26.5t-21.5 43.5q-13 27 -13 77q0 68 86 131q-35 27 -43.5 51.5t-8.5 52.5q0 20 8.5 41t24.5 39q17 18 42 29t60 11q32 -4 63.5 -21t49.5 -40q10 -14 19 -62
q0 -68 -54 -118q87 -48 98 -157zM510 505q-9 44 -32 67.5t-69 23.5q-43 0 -66.5 -23.5t-23.5 -62.5q0 -14 5.5 -29t17.5 -26q11 -13 30.5 -21t45.5 -8q11 0 25.5 1.5t29.5 9.5t26 23t11 45zM507 343q-28 25 -55.5 33.5t-50.5 8.5q-21 0 -41.5 -5.5t-35.5 -18.5
q-17 -14 -27 -33.5t-10 -45.5q0 -28 9 -53t27 -45q17 -20 41 -32t55 -12q22 0 46 7t42 21q18 13 29.5 34t11.5 49q0 11 -4 23.5t-9 26.5q-6 13 -13.5 24.5t-14.5 17.5zM758 368q-4 -148 -103 -247t-243 -99q-152 0 -251 99t-103 247q4 148 103 247t251 99q144 0 243 -99
t103 -247zM720 368q-4 132 -92 220t-216 92q-136 -4 -224 -92t-88 -220t88 -220t224 -92q128 4 216 92t92 220z" />
    <glyph glyph-name="uni2468" unicode="&#x2468;" horiz-adv-x="824" 
d="M574 521q8 -36 9 -84.5t-13 -135.5q-14 -88 -80 -209q-9 -16 -40 -10.5t-20 24.5q70 83 85 206q-50 -12 -63 -16.5t-27 -6.5q-39 -9 -70 -2.5t-53 22.5q-25 16 -39 40.5t-20 53.5q-10 55 -3 94t26 66q18 28 43 43t49 20q48 10 86 5.5t63 -19.5q26 -15 42.5 -38t24.5 -53z
M531 509q-6 24 -20 41t-34 27t-43 13t-47 -2q-121 -24 -91 -182q6 -24 19.5 -41t33.5 -26t42.5 -10.5t48.5 3.5q33 7 54.5 24t31.5 42q10 23 10 51.5t-5 59.5zM758 368q-4 -148 -103 -247t-243 -99q-152 0 -251 99t-103 247q4 148 103 247t251 99q144 0 243 -99t103 -247z
M720 368q-4 132 -92 220t-216 92q-136 -4 -224 -92t-88 -220t88 -220t224 -92q128 4 216 92t92 220z" />
    <glyph glyph-name="uni2469" unicode="&#x2469;" horiz-adv-x="824" 
d="M665 361q0 -78 -49 -121q-44 -38 -107 -38q-64 0 -106 37q-47 44 -47 122q0 77 47 118q40 37 106 37q63 0 107 -40q49 -44 49 -115zM624 363q0 57 -35 92q-33 32 -80 32q-48 0 -77 -29q-36 -35 -36 -95q0 -65 36 -100q29 -32 77 -32q47 0 80 32q35 35 35 100zM236 202h28
q8 145 -2 322q-50 -71 -65 -94q-6 -9 -9 -9q-1 0 -11 6q-17 9 -14 14q49 69 82 102q27 27 34 26q12 -1 15 -6q6 -17 6 -161q2 -126 -1 -200h23q18 0 18 -15.5t-6 -16.5h-108q-12 1 -12 16.5t22 15.5zM758 368q-4 -148 -103 -247t-243 -99q-152 0 -251 99t-103 247
q4 148 103 247t251 99q144 0 243 -99t103 -247zM720 368q-4 132 -92 220t-216 92q-136 -4 -224 -92t-88 -220t88 -220t224 -92q128 4 216 92t92 220z" />
    <glyph glyph-name="uni246A" unicode="&#x246a;" horiz-adv-x="824" 
d="M271 202h28q8 145 -2 322q-50 -71 -65 -94q-6 -9 -9 -9q-1 0 -11 6q-17 9 -14 14q49 69 82 102q27 27 34 26q12 -1 15 -6q6 -17 6 -161q2 -126 -1 -200h23q18 0 18 -15.5t-6 -16.5h-108q-12 1 -12 16.5t22 15.5zM496 202h28q8 145 -2 322q-50 -71 -65 -94q-6 -9 -9 -9
q-1 0 -11 6q-17 9 -14 14q49 69 82 102q27 27 34 26q12 -1 15 -6q6 -17 6 -161q2 -126 -1 -200h23q18 0 18 -15.5t-6 -16.5h-108q-12 1 -12 16.5t22 15.5zM758 368q-4 -148 -103 -247t-243 -99q-152 0 -251 99t-103 247q4 148 103 247t251 99q144 0 243 -99t103 -247z
M720 368q-4 132 -92 220t-216 92q-136 -4 -224 -92t-88 -220t88 -220t224 -92q128 4 216 92t92 220z" />
    <glyph glyph-name="uni246B" unicode="&#x246b;" horiz-adv-x="824" 
d="M236 202h28q8 145 -2 322q-50 -71 -65 -94q-6 -9 -9 -9q-1 0 -11 6q-17 9 -14 14q49 69 82 102q27 27 34 26q12 -1 15 -6q6 -17 6 -161q2 -126 -1 -200h23q18 0 18 -15.5t-6 -16.5h-108q-12 1 -12 16.5t22 15.5zM633 186q-2 -12 -11 -12l-179 2q-40 0 -53 11
q-12 11 -8 39q3 19 16 26q141 60 159 169q2 25 -28.5 57.5t-67.5 41.5q-58 10 -66 12q-2 0 -4 5t-1 11q2 5 11 9q19 10 66 -3q51 -16 76 -35t47 -52q14 -23 10 -49q-7 -40 -39 -89t-155 -118l222 -2q7 -2 5 -23zM758 368q-4 -148 -103 -247t-243 -99q-152 0 -251 99
t-103 247q4 148 103 247t251 99q144 0 243 -99t103 -247zM720 368q-4 132 -92 220t-216 92q-136 -4 -224 -92t-88 -220t88 -220t224 -92q128 4 216 92t92 220z" />
    <glyph glyph-name="uni246C" unicode="&#x246c;" horiz-adv-x="824" 
d="M256 202h28q8 145 -2 322q-50 -71 -65 -94q-6 -9 -9 -9q-1 0 -11 6q-17 9 -14 14q49 69 82 102q27 27 34 26q12 -1 15 -6q6 -17 6 -161q2 -126 -1 -200h23q18 0 18 -15.5t-6 -16.5h-108q-12 1 -12 16.5t22 15.5zM626 239q-4 -25 -21 -46.5t-34 -33.5q-43 -25 -130 -8
q-18 5 -17 21q1 9 5 12q15 6 71.5 -2.5t86.5 57.5q-1 25 -20.5 40.5t-68.5 32.5q-66 17 -65 35t16 25q120 40 122 88q1 30 -14 38q-41 29 -115 47q-25 6 -23 29q1 13 12 12q14 -1 39.5 -7.5t79.5 -29.5q65 -30 62 -84q-1 -65 -86 -91q-7 -4 -45 -22q51 -16 79 -24
q29 -10 49 -29.5t17 -59.5zM758 368q-4 -148 -103 -247t-243 -99q-152 0 -251 99t-103 247q4 148 103 247t251 99q144 0 243 -99t103 -247zM720 368q-4 132 -92 220t-216 92q-136 -4 -224 -92t-88 -220t88 -220t224 -92q128 4 216 92t92 220z" />
    <glyph glyph-name="uni246D" unicode="&#x246d;" horiz-adv-x="824" 
d="M246 202h28q8 145 -2 322q-50 -71 -65 -94q-6 -9 -9 -9q-1 0 -11 6q-17 9 -14 14q49 69 82 102q27 27 34 26q12 -1 15 -6q6 -17 6 -161q2 -126 -1 -200h23q18 0 18 -15.5t-6 -16.5h-108q-12 1 -12 16.5t22 15.5zM511 201h25q0 26 4 70q-79 -11 -98 -10q-34 4 -48.5 19
t-5.5 48q17 147 56 227q7 12 26 10.5t14 -10.5q-47 -82 -58 -229q-3 -33 31 -30q36 0 81 6q0 40 16 162q2 31 21 29q13 -1 13 -17q-11 -57 -18 -174q44 4 88 7q6 0 4 -16q-1 -16 -16 -17t-75 -7q-3 -35 -3 -68h29q18 0 18 -15.5t-5 -16.5h-109q-11 1 -11 16.5t21 15.5z
M758 368q-4 -148 -103 -247t-243 -99q-152 0 -251 99t-103 247q4 148 103 247t251 99q144 0 243 -99t103 -247zM720 368q-4 132 -92 220t-216 92q-136 -4 -224 -92t-88 -220t88 -220t224 -92q128 4 216 92t92 220z" />
    <glyph glyph-name="uni246E" unicode="&#x246e;" horiz-adv-x="824" 
d="M421 551q37 -6 167 -12q52 -3 46.5 -26.5t-22.5 -18.5q-23 7 -176 13q1 -54 3 -152q26 9 103 12q25 5 49 -9t36 -40q12 -27 7.5 -53t-32.5 -59q-32 -32 -119 -43q-16 -5 -29.5 12.5t-5.5 20.5q91 12 119 33t26 54q-3 37 -52 41q-56 1 -83 -3q-18 -4 -29 -3q-15 1 -16 13
q-17 143 -13 210q0 5 5 8q7 3 16 2zM246 202h28q8 145 -2 322q-50 -71 -65 -94q-6 -9 -9 -9q-1 0 -11 6q-17 9 -14 14q49 69 82 102q27 27 34 26q12 -1 15 -6q6 -17 6 -161q2 -126 -1 -200h23q18 0 18 -15.5t-6 -16.5h-108q-12 1 -12 16.5t22 15.5zM758 368
q-4 -148 -103 -247t-243 -99q-152 0 -251 99t-103 247q4 148 103 247t251 99q144 0 243 -99t103 -247zM720 368q-4 132 -92 220t-216 92q-136 -4 -224 -92t-88 -220t88 -220t224 -92q128 4 216 92t92 220z" />
    <glyph glyph-name="uni2474" unicode="&#x2474;" horiz-adv-x="824" 
d="M361 165h45q10 176 -2 389q-58 -82 -77 -110q-9 -14 -15 -13l-13 7q-22 13 -18 21q60 85 102 127q33 33 43 32q16 -1 21 -9q8 -21 8 -199q2 -155 -1 -245h37q12 -1 12 -22t-8 -22h-134q-17 1 -17 22t17 22zM153 706q18 38 39.5 26.5t8.5 -34.5q-91 -164 -89 -326
q4 -181 105 -349q9 -17 -9.5 -30t-27.5 5q-114 206 -114 374q0 156 87 334zM668 706q87 -178 87 -334q0 -168 -114 -374q-9 -18 -27.5 -5t-9.5 30q101 168 105 349q2 162 -89 326q-13 23 8.5 34.5t39.5 -26.5z" />
    <glyph glyph-name="uni2475" unicode="&#x2475;" horiz-adv-x="824" 
d="M585 152q-3 -16 -16 -17l-221 3q-50 0 -67 15q-15 13 -11 50q4 25 21 34q174 73 195 206q3 29 -34 69t-82 51q-72 13 -82 15q-3 0 -6 7.5t-1 14.5t14 13q24 13 83 -4q64 -19 95 -43t57 -66q19 -29 14 -61q-8 -51 -48 -111.5t-185 -141.5l266 -3q11 -2 8 -31zM153 706
q18 38 39.5 26.5t8.5 -34.5q-91 -164 -89 -326q4 -181 105 -349q9 -17 -9.5 -30t-27.5 5q-114 206 -114 374q0 156 87 334zM668 706q87 -178 87 -334q0 -168 -114 -374q-9 -18 -27.5 -5t-9.5 30q101 168 105 349q2 162 -89 326q-13 23 8.5 34.5t39.5 -26.5z" />
    <glyph glyph-name="uni2476" unicode="&#x2476;" horiz-adv-x="824" 
d="M573 210q-5 -32 -26.5 -58.5t-42.5 -41.5q-54 -31 -162 -10q-24 7 -23 28q1 13 6 16q20 8 89 -2.5t106 69.5q-1 30 -25 48.5t-83 38.5q-84 22 -82 47q1 22 22 32q145 48 148 106q1 36 -16 45q-50 36 -141 57q-33 9 -31 39q1 18 18 17q18 -1 49 -9t99 -37q81 -38 77 -105
q-1 -82 -107 -116l-48 -24q54 -18 89 -28q37 -12 62 -37t22 -75zM153 706q18 38 39.5 26.5t8.5 -34.5q-91 -164 -89 -326q4 -181 105 -349q9 -17 -9.5 -30t-27.5 5q-114 206 -114 374q0 156 87 334zM668 706q87 -178 87 -334q0 -168 -114 -374q-9 -18 -27.5 -5t-9.5 30
q101 168 105 349q2 162 -89 326q-13 23 8.5 34.5t39.5 -26.5z" />
    <glyph glyph-name="uni2477" unicode="&#x2477;" horiz-adv-x="824" 
d="M399 170h40q0 29 5 81q-95 -13 -119 -11q-43 4 -61.5 23.5t-7.5 61.5q21 181 69 281q9 16 35.5 13.5t19.5 -16.5q-58 -100 -73 -281q-3 -38 37 -35q44 0 98 8q0 47 20 198q2 40 28 38q18 -1 17 -24q-13 -71 -21 -212q51 5 106 8q10 1 8 -23q-1 -21 -21 -22.5t-93 -7.5
q-3 -42 -3 -80h45q13 -1 13 -22t-8 -22h-134q-17 1 -17 22t17 22zM153 706q18 38 39.5 26.5t8.5 -34.5q-91 -164 -89 -326q4 -181 105 -349q9 -17 -9.5 -30t-27.5 5q-114 206 -114 374q0 156 87 334zM668 706q87 -178 87 -334q0 -168 -114 -374q-9 -18 -27.5 -5t-9.5 30
q101 168 105 349q2 162 -89 326q-13 23 8.5 34.5t39.5 -26.5z" />
    <glyph glyph-name="uni2478" unicode="&#x2478;" horiz-adv-x="824" 
d="M316 584q43 -8 193 -14q63 -4 56 -33t-29 -22q-26 7 -202 16q2 -63 5 -171q25 3 115 2q31 -2 59 -15t42 -43q14 -31 9.5 -62.5t-38.5 -68.5q-36 -37 -157 -41q-20 -6 -36 15.5t-5 24.5q123 6 156 29.5t29 55.5q-4 39 -57 52q-66 6 -96 2q-21 -2 -34 0q-21 1 -22 15
q-18 167 -14 245q0 6 6 9q9 5 20 4zM153 706q18 38 39.5 26.5t8.5 -34.5q-91 -164 -89 -326q4 -181 105 -349q9 -17 -9.5 -30t-27.5 5q-114 206 -114 374q0 156 87 334zM668 706q87 -178 87 -334q0 -168 -114 -374q-9 -18 -27.5 -5t-9.5 30q101 168 105 349q2 162 -89 326
q-13 23 8.5 34.5t39.5 -26.5z" />
    <glyph glyph-name="uni2479" unicode="&#x2479;" horiz-adv-x="824" 
d="M568 255q0 -41 -22 -72.5t-44 -41.5q-49 -20 -118 -20q-24 0 -51 9q-22 12 -38.5 34.5t-20.5 61.5q0 78 15 130q24 71 74 160q62 117 100 117q18 0 23 -14q4 -11 3 -11q-38 -34 -79 -100q-36 -59 -61 -134q47 18 74 18t46 -10q99 -37 99 -127zM523 255q0 64 -79 92
q-44 12 -104 -12q-26 -43 -21 -109q0 -22 21 -43t45 -21q138 0 138 93zM153 706q18 38 39.5 26.5t8.5 -34.5q-91 -164 -89 -326q4 -181 105 -349q9 -17 -9.5 -30t-27.5 5q-114 206 -114 374q0 156 87 334zM668 706q87 -178 87 -334q0 -168 -114 -374q-9 -18 -27.5 -5
t-9.5 30q101 168 105 349q2 162 -89 326q-13 23 8.5 34.5t39.5 -26.5z" />
    <glyph glyph-name="uni247A" unicode="&#x247a;" horiz-adv-x="824" 
d="M461 179h28q-4 48 -4 121q2 130 23 224q-59 24 -197 19q-13 -26 -15 -56.5t2 -89.5q-2 -12 -16 -12q-13 0 -13 -1q-22 61 -6 180q5 24 26 24q26 0 124 -9.5t126 -21.5q11 -5 10 -40q0 -17 -13 -56q-10 -63 -13 -101q-3 -36 -1 -181h24q11 -1 11 -19t-7 -19h-88
q-15 2 -15 19.5t14 18.5zM153 706q18 38 39.5 26.5t8.5 -34.5q-91 -164 -89 -326q4 -181 105 -349q9 -17 -9.5 -30t-27.5 5q-114 206 -114 374q0 156 87 334zM668 706q87 -178 87 -334q0 -168 -114 -374q-9 -18 -27.5 -5t-9.5 30q101 168 105 349q2 162 -89 326
q-13 23 8.5 34.5t39.5 -26.5z" />
    <glyph glyph-name="uni247B" unicode="&#x247b;" horiz-adv-x="824" 
d="M590 240q0 -36 -16 -63t-43 -44q-26 -17 -59 -24.5t-66 -7.5q-32 0 -57 10.5t-42 24.5q-17 13 -27.5 26.5t-21.5 43.5q-13 27 -13 77q0 68 86 131q-35 27 -43.5 51.5t-8.5 52.5q0 20 8.5 41t24.5 39q17 18 42 29t60 11q32 -4 63.5 -21t49.5 -40q10 -14 19 -62
q0 -68 -54 -118q87 -48 98 -157zM510 505q-9 44 -32 67.5t-69 23.5q-43 0 -66.5 -23.5t-23.5 -62.5q0 -14 5.5 -29t17.5 -26q11 -13 30.5 -21t45.5 -8q11 0 25.5 1.5t29.5 9.5t26 23t11 45zM507 343q-28 25 -55.5 33.5t-50.5 8.5q-21 0 -41.5 -5.5t-35.5 -18.5
q-17 -14 -27 -33.5t-10 -45.5q0 -28 9 -53t27 -45q17 -20 41 -32t55 -12q22 0 46 7t42 21q18 13 29.5 34t11.5 49q0 11 -4 23.5t-9 26.5q-6 13 -13.5 24.5t-14.5 17.5zM153 706q18 38 39.5 26.5t8.5 -34.5q-91 -164 -89 -326q4 -181 105 -349q9 -17 -9.5 -30t-27.5 5
q-114 206 -114 374q0 156 87 334zM668 706q87 -178 87 -334q0 -168 -114 -374q-9 -18 -27.5 -5t-9.5 30q101 168 105 349q2 162 -89 326q-13 23 8.5 34.5t39.5 -26.5z" />
    <glyph glyph-name="uni247C" unicode="&#x247c;" horiz-adv-x="824" 
d="M574 521q8 -36 9 -84.5t-13 -135.5q-14 -88 -80 -209q-9 -16 -40 -10.5t-20 24.5q70 83 85 206q-50 -12 -63 -16.5t-27 -6.5q-39 -9 -70 -2.5t-53 22.5q-25 16 -39 40.5t-20 53.5q-10 55 -3 94t26 66q18 28 43 43t49 20q48 10 86 5.5t63 -19.5q26 -15 42.5 -38t24.5 -53z
M531 509q-6 24 -20 41t-34 27t-43 13t-47 -2q-121 -24 -91 -182q6 -24 19.5 -41t33.5 -26t42.5 -10.5t48.5 3.5q33 7 54.5 24t31.5 42q10 23 10 51.5t-5 59.5zM153 706q18 38 39.5 26.5t8.5 -34.5q-91 -164 -89 -326q4 -181 105 -349q9 -17 -9.5 -30t-27.5 5
q-114 206 -114 374q0 156 87 334zM668 706q87 -178 87 -334q0 -168 -114 -374q-9 -18 -27.5 -5t-9.5 30q101 168 105 349q2 162 -89 326q-13 23 8.5 34.5t39.5 -26.5z" />
    <glyph glyph-name="uni247D" unicode="&#x247d;" horiz-adv-x="824" 
d="M665 361q0 -78 -49 -121q-44 -38 -107 -38q-64 0 -106 37q-47 44 -47 122q0 77 47 118q40 37 106 37q63 0 107 -40q49 -44 49 -115zM624 363q0 57 -35 92q-33 32 -80 32q-48 0 -77 -29q-36 -35 -36 -95q0 -65 36 -100q29 -32 77 -32q47 0 80 32q35 35 35 100zM236 202h28
q8 145 -2 322q-50 -71 -65 -94q-6 -9 -9 -9q-1 0 -11 6q-17 9 -14 14q49 69 82 102q27 27 34 26q12 -1 15 -6q6 -17 6 -161q2 -126 -1 -200h23q18 0 18 -15.5t-6 -16.5h-108q-12 1 -12 16.5t22 15.5zM153 706q18 38 39.5 26.5t8.5 -34.5q-91 -164 -89 -326q4 -181 105 -349
q9 -17 -9.5 -30t-27.5 5q-114 206 -114 374q0 156 87 334zM668 706q87 -178 87 -334q0 -168 -114 -374q-9 -18 -27.5 -5t-9.5 30q101 168 105 349q2 162 -89 326q-13 23 8.5 34.5t39.5 -26.5z" />
    <glyph glyph-name="uni247E" unicode="&#x247e;" horiz-adv-x="824" 
d="M271 202h28q8 145 -2 322q-50 -71 -65 -94q-6 -9 -9 -9q-1 0 -11 6q-17 9 -14 14q49 69 82 102q27 27 34 26q12 -1 15 -6q6 -17 6 -161q2 -126 -1 -200h23q18 0 18 -15.5t-6 -16.5h-108q-12 1 -12 16.5t22 15.5zM496 202h28q8 145 -2 322q-50 -71 -65 -94q-6 -9 -9 -9
q-1 0 -11 6q-17 9 -14 14q49 69 82 102q27 27 34 26q12 -1 15 -6q6 -17 6 -161q2 -126 -1 -200h23q18 0 18 -15.5t-6 -16.5h-108q-12 1 -12 16.5t22 15.5zM153 706q18 38 39.5 26.5t8.5 -34.5q-91 -164 -89 -326q4 -181 105 -349q9 -17 -9.5 -30t-27.5 5q-114 206 -114 374
q0 156 87 334zM668 706q87 -178 87 -334q0 -168 -114 -374q-9 -18 -27.5 -5t-9.5 30q101 168 105 349q2 162 -89 326q-13 23 8.5 34.5t39.5 -26.5z" />
    <glyph glyph-name="uni247F" unicode="&#x247f;" horiz-adv-x="824" 
d="M236 202h28q8 145 -2 322q-50 -71 -65 -94q-6 -9 -9 -9q-1 0 -11 6q-17 9 -14 14q49 69 82 102q27 27 34 26q12 -1 15 -6q6 -17 6 -161q2 -126 -1 -200h23q18 0 18 -15.5t-6 -16.5h-108q-12 1 -12 16.5t22 15.5zM633 186q-2 -12 -11 -12l-179 2q-40 0 -53 11
q-12 11 -8 39q3 19 16 26q141 60 159 169q2 25 -28.5 57.5t-67.5 41.5q-58 10 -66 12q-2 0 -4 5t-1 11q2 5 11 9q19 10 66 -3q51 -16 76 -35t47 -52q14 -23 10 -49q-7 -40 -39 -89t-155 -118l222 -2q7 -2 5 -23zM153 706q18 38 39.5 26.5t8.5 -34.5q-91 -164 -89 -326
q4 -181 105 -349q9 -17 -9.5 -30t-27.5 5q-114 206 -114 374q0 156 87 334zM668 706q87 -178 87 -334q0 -168 -114 -374q-9 -18 -27.5 -5t-9.5 30q101 168 105 349q2 162 -89 326q-13 23 8.5 34.5t39.5 -26.5z" />
    <glyph glyph-name="uni2480" unicode="&#x2480;" horiz-adv-x="824" 
d="M256 202h28q8 145 -2 322q-50 -71 -65 -94q-6 -9 -9 -9q-1 0 -11 6q-17 9 -14 14q49 69 82 102q27 27 34 26q12 -1 15 -6q6 -17 6 -161q2 -126 -1 -200h23q18 0 18 -15.5t-6 -16.5h-108q-12 1 -12 16.5t22 15.5zM626 239q-4 -25 -21 -46.5t-34 -33.5q-43 -25 -130 -8
q-18 5 -17 21q1 9 5 12q15 6 71.5 -2.5t86.5 57.5q-1 25 -20.5 40.5t-68.5 32.5q-66 17 -65 35t16 25q120 40 122 88q1 30 -14 38q-41 29 -115 47q-25 6 -23 29q1 13 12 12q14 -1 39.5 -7.5t79.5 -29.5q65 -30 62 -84q-1 -65 -86 -91q-7 -4 -45 -22q51 -16 79 -24
q29 -10 49 -29.5t17 -59.5zM153 706q18 38 39.5 26.5t8.5 -34.5q-91 -164 -89 -326q4 -181 105 -349q9 -17 -9.5 -30t-27.5 5q-114 206 -114 374q0 156 87 334zM668 706q87 -178 87 -334q0 -168 -114 -374q-9 -18 -27.5 -5t-9.5 30q101 168 105 349q2 162 -89 326
q-13 23 8.5 34.5t39.5 -26.5z" />
    <glyph glyph-name="uni2481" unicode="&#x2481;" horiz-adv-x="824" 
d="M246 202h28q8 145 -2 322q-50 -71 -65 -94q-6 -9 -9 -9q-1 0 -11 6q-17 9 -14 14q49 69 82 102q27 27 34 26q12 -1 15 -6q6 -17 6 -161q2 -126 -1 -200h23q18 0 18 -15.5t-6 -16.5h-108q-12 1 -12 16.5t22 15.5zM511 201h25q0 26 4 70q-79 -11 -98 -10q-34 4 -48.5 19
t-5.5 48q17 147 56 227q7 12 26 10.5t14 -10.5q-47 -82 -58 -229q-3 -33 31 -30q36 0 81 6q0 40 16 162q2 31 21 29q13 -1 13 -17q-11 -57 -18 -174q44 4 88 7q6 0 4 -16q-1 -16 -16 -17t-75 -7q-3 -35 -3 -68h29q18 0 18 -15.5t-5 -16.5h-109q-11 1 -11 16.5t21 15.5z
M153 706q18 38 39.5 26.5t8.5 -34.5q-91 -164 -89 -326q4 -181 105 -349q9 -17 -9.5 -30t-27.5 5q-114 206 -114 374q0 156 87 334zM668 706q87 -178 87 -334q0 -168 -114 -374q-9 -18 -27.5 -5t-9.5 30q101 168 105 349q2 162 -89 326q-13 23 8.5 34.5t39.5 -26.5z" />
    <glyph glyph-name="uni2482" unicode="&#x2482;" horiz-adv-x="824" 
d="M421 551q37 -6 167 -12q52 -3 46.5 -26.5t-22.5 -18.5q-23 7 -176 13q1 -54 3 -152q26 9 103 12q25 5 49 -9t36 -40q12 -27 7.5 -53t-32.5 -59q-32 -32 -119 -43q-16 -5 -29.5 12.5t-5.5 20.5q91 12 119 33t26 54q-3 37 -52 41q-56 1 -83 -3q-18 -4 -29 -3q-15 1 -16 13
q-17 143 -13 210q0 5 5 8q7 3 16 2zM246 202h28q8 145 -2 322q-50 -71 -65 -94q-6 -9 -9 -9q-1 0 -11 6q-17 9 -14 14q49 69 82 102q27 27 34 26q12 -1 15 -6q6 -17 6 -161q2 -126 -1 -200h23q18 0 18 -15.5t-6 -16.5h-108q-12 1 -12 16.5t22 15.5zM153 706q18 38 39.5 26.5
t8.5 -34.5q-91 -164 -89 -326q4 -181 105 -349q9 -17 -9.5 -30t-27.5 5q-114 206 -114 374q0 156 87 334zM668 706q87 -178 87 -334q0 -168 -114 -374q-9 -18 -27.5 -5t-9.5 30q101 168 105 349q2 162 -89 326q-13 23 8.5 34.5t39.5 -26.5z" />
    <glyph glyph-name="uni249C" unicode="&#x249c;" horiz-adv-x="824" 
d="M619 231q-12 -25 -25 -26t-63 90q-12 -35 -41 -56q-50 -35 -128 -32q-21 0 -66 45q-30 28 -26 105q1 43 15 87q13 35 49.5 63t65.5 27q66 -13 122 -78q37 -74 37 -89q0 -24 58 -123q7 -7 2 -13zM506 336q0 32 -18 70q-34 63 -92 77q-42 -6 -66 -57q-16 -36 -17 -79
q0 -36 18 -68q16 -26 51 -28q43 -1 83.5 27.5t40.5 57.5zM153 706q18 38 39.5 26.5t8.5 -34.5q-91 -164 -89 -326q4 -181 105 -349q9 -17 -9.5 -30t-27.5 5q-114 206 -114 374q0 156 87 334zM668 706q87 -178 87 -334q0 -168 -114 -374q-9 -18 -27.5 -5t-9.5 30
q101 168 105 349q2 162 -89 326q-13 23 8.5 34.5t39.5 -26.5z" />
    <glyph glyph-name="uni249D" unicode="&#x249d;" horiz-adv-x="824" 
d="M250 606h58q12 -1 12 -22q1 -94 4 -207q35 43 59.5 54.5t43.5 11.5q18 0 42 -5t50 -21q24 -14 47 -51t20 -80t-4 -53q-10 -58 -48.5 -93t-98.5 -35q-39 0 -65 6.5t-42 17.5q-17 11 -26 26.5t-13 31.5q-1 13 -2 43.5t-3 71.5q-3 38 -5 82.5t-4 88.5v89h-25q-17 1 -17 22
t17 22zM460 392q-46 3 -73 -17.5t-43 -43.5q-8 -13 -10.5 -30.5t-2.5 -40.5q0 -52 25.5 -78.5t87.5 -26.5q55 0 78.5 38t23.5 94q0 27 -21.5 60.5t-64.5 44.5zM153 706q18 38 39.5 26.5t8.5 -34.5q-91 -164 -89 -326q4 -181 105 -349q9 -17 -9.5 -30t-27.5 5
q-114 206 -114 374q0 156 87 334zM668 706q87 -178 87 -334q0 -168 -114 -374q-9 -18 -27.5 -5t-9.5 30q101 168 105 349q2 162 -89 326q-13 23 8.5 34.5t39.5 -26.5z" />
    <glyph glyph-name="uni249E" unicode="&#x249e;" horiz-adv-x="824" 
d="M535 464q2 -9 -4 -17t-37 6q-37 21 -94 20q-33 0 -51.5 -11t-27.5 -25q-8 -15 -9 -29t-1 -19q0 -34 13.5 -61.5t32.5 -46.5q19 -20 40 -31.5t37 -11.5q12 0 23.5 3.5t34.5 19.5q18 13 27 15.5t16 3.5q7 0 16.5 -6t9.5 -19q0 -7 -11 -16.5t-26 -17.5q-16 -10 -31.5 -17
t-22.5 -10q-4 -2 -24 -2q-36 0 -69 16t-56 45q-25 26 -40 64t-15 79q0 48 25 78t56 41q61 10 96 4t59 -18q25 -13 33 -37zM153 706q18 38 39.5 26.5t8.5 -34.5q-91 -164 -89 -326q4 -181 105 -349q9 -17 -9.5 -30t-27.5 5q-114 206 -114 374q0 156 87 334zM668 706
q87 -178 87 -334q0 -168 -114 -374q-9 -18 -27.5 -5t-9.5 30q101 168 105 349q2 162 -89 326q-13 23 8.5 34.5t39.5 -26.5z" />
    <glyph glyph-name="uni249F" unicode="&#x249f;" horiz-adv-x="824" 
d="M442 605h58q13 -1 13 -29q0 -128 1 -186.5t4 -112.5q2 -55 4 -105q3 -30 -10 -33t-39 -6q-28 -5 -88 -10q-35 0 -63.5 17t-52.5 68q-5 9 -7.5 25t-2.5 45t11 61.5t31 55.5q19 23 44 35t53 12q25 0 61 -24l5 143h-21q-18 2 -18 22.5t17 21.5zM472 242q-5 113 -14.5 128.5
t-39.5 20.5q-29 3 -52 -7.5t-37 -27.5q-13 -16 -18.5 -38t-5.5 -57q0 -37 27 -64.5t81 -27.5q25 0 42.5 8t17.5 21zM153 706q18 38 39.5 26.5t8.5 -34.5q-91 -164 -89 -326q4 -181 105 -349q9 -17 -9.5 -30t-27.5 5q-114 206 -114 374q0 156 87 334zM668 706
q87 -178 87 -334q0 -168 -114 -374q-9 -18 -27.5 -5t-9.5 30q101 168 105 349q2 162 -89 326q-13 23 8.5 34.5t39.5 -26.5z" />
    <glyph glyph-name="uni24A0" unicode="&#x24a0;" horiz-adv-x="824" 
d="M562 397q0 -18 -2 -28.5t-9 -18.5q-6 -7 -20 -13.5t-39 -12.5q-27 -8 -50 -8q-27 0 -56 3t-73 16q3 -45 13.5 -64.5t26.5 -30.5q15 -10 34 -14.5t38 -4.5q38 0 84 19q9 7 20.5 7t16.5 -7q5 -8 5 -19t-10 -19q-13 -9 -33 -16t-42 -10q-24 -4 -41 -4q-55 0 -86.5 23.5
t-48.5 56.5q-17 32 -22.5 68t-5.5 59t5.5 53t21.5 57q17 25 45.5 42.5t75.5 17.5q33 0 61 -11t48 -32t31.5 -48.5t11.5 -60.5zM517 410q0 21 -10.5 38.5t-27.5 31.5q-16 12 -37 20t-45 8q-22 0 -39 -12.5t-26 -29.5t-13.5 -36t-4.5 -37q12 -15 43 -22t84 -7q76 0 76 46z
M153 706q18 38 39.5 26.5t8.5 -34.5q-91 -164 -89 -326q4 -181 105 -349q9 -17 -9.5 -30t-27.5 5q-114 206 -114 374q0 156 87 334zM668 706q87 -178 87 -334q0 -168 -114 -374q-9 -18 -27.5 -5t-9.5 30q101 168 105 349q2 162 -89 326q-13 23 8.5 34.5t39.5 -26.5z" />
    <glyph glyph-name="uni24A1" unicode="&#x24a1;" horiz-adv-x="824" 
d="M356 130h8q-10 77 -24 171q-39 0 -57.5 2.5t-28.5 7.5q-7 3 -9.5 10t-2.5 15q0 7 2 10t15 2q12 -1 27 -2.5t49 -4.5q-23 217 49.5 255t120.5 12q52 -29 63.5 -41.5t15.5 -20.5q4 -9 4 -15q0 -11 -10 -15t-15 0l-51 34q-46 30 -96 7q-53 -24 -29 -215h150q18 0 18 -22
q0 -19 -1 -19q-52 -2 -89.5 -3t-72.5 -1q7 -86 18 -167h10q22 0 22 -21.5t-7 -21.5h-90q-17 1 -17 22t28 21zM153 706q18 38 39.5 26.5t8.5 -34.5q-91 -164 -89 -326q4 -181 105 -349q9 -17 -9.5 -30t-27.5 5q-114 206 -114 374q0 156 87 334zM668 706q87 -178 87 -334
q0 -168 -114 -374q-9 -18 -27.5 -5t-9.5 30q101 168 105 349q2 162 -89 326q-13 23 8.5 34.5t39.5 -26.5z" />
    <glyph glyph-name="uni24A2" unicode="&#x24a2;" horiz-adv-x="824" 
d="M563 290q0 -79 -35 -116t-118 -37q-39 0 -63.5 6.5t-37.5 16.5t-17.5 19t-4.5 16q0 30 15 30q14 -12 43 -28q28 -12 66 -12q20 0 40.5 4.5t37.5 17.5q17 15 27 40.5t8 134.5q-47 -90 -117 -90q-25 0 -46 11t-36 32q-16 20 -25 48.5t-9 63.5q0 41 7.5 67.5t21.5 44.5
q13 16 39 29t59 15q50 0 78 -25t44 -67q14 -44 18.5 -101.5t4.5 -119.5zM503 451q-3 48 -26 75t-48 27q-16 0 -32.5 -4t-30.5 -14q-16 -12 -25 -34t-9 -57q0 -20 6 -40t17 -36q10 -15 24 -25t31 -10q24 0 42.5 9.5t29.5 25.5q11 14 16 33t5 38v12zM153 706q18 38 39.5 26.5
t8.5 -34.5q-91 -164 -89 -326q4 -181 105 -349q9 -17 -9.5 -30t-27.5 5q-114 206 -114 374q0 156 87 334zM668 706q87 -178 87 -334q0 -168 -114 -374q-9 -18 -27.5 -5t-9.5 30q101 168 105 349q2 162 -89 326q-13 23 8.5 34.5t39.5 -26.5z" />
    <glyph glyph-name="uni24A3" unicode="&#x24a3;" horiz-adv-x="824" 
d="M501 153h20q8 35 8 59q0 27 -4.5 54t-16.5 49q-13 23 -33.5 37t-48.5 14q-54 -3 -68 -44q-2 -69 -2 -119q-1 -22 -1 -50h18q12 -1 12 -22t-8 -22h-88q-18 2 -18 22.5t17 21.5h16q-2 53 -1 122q1 119 -21 343h-14q-18 2 -18 22.5t17 21.5h48q14 -1 14 -22q9 -60 13.5 -118
t4.5 -133q35 22 53 26t40 4q35 0 61.5 -17t44.5 -44q18 -30 26.5 -67.5t8.5 -78.5q0 -28 -6 -58q24 -2 24 -23t-9 -22h-88q-18 2 -18 22.5t17 21.5zM153 706q18 38 39.5 26.5t8.5 -34.5q-91 -164 -89 -326q4 -181 105 -349q9 -17 -9.5 -30t-27.5 5q-114 206 -114 374
q0 156 87 334zM668 706q87 -178 87 -334q0 -168 -114 -374q-9 -18 -27.5 -5t-9.5 30q101 168 105 349q2 162 -89 326q-13 23 8.5 34.5t39.5 -26.5z" />
    <glyph glyph-name="uni24A4" unicode="&#x24a4;" horiz-adv-x="824" 
d="M460 559q0 -51 -46 -51q-41 0 -41 50q0 12 18.5 32t29.5 20q18 0 28.5 -19.5t10.5 -31.5zM376 147h21q1 47 3 86q2 68 -1 111q-3 22 -5 46h-19q-18 2 -18 22.5t17 21.5q60 3 61 -19q3 -14 8 -73q4 -59 1 -142l-4 -53h21q12 -1 12 -22t-8 -22h-88q-18 2 -18 22.5t17 21.5z
M153 706q18 38 39.5 26.5t8.5 -34.5q-91 -164 -89 -326q4 -181 105 -349q9 -17 -9.5 -30t-27.5 5q-114 206 -114 374q0 156 87 334zM668 706q87 -178 87 -334q0 -168 -114 -374q-9 -18 -27.5 -5t-9.5 30q101 168 105 349q2 162 -89 326q-13 23 8.5 34.5t39.5 -26.5z" />
    <glyph glyph-name="uni24A5" unicode="&#x24a5;" horiz-adv-x="824" 
d="M509 572q0 -51 -46 -51q-41 0 -41 50q0 12 18.5 31.5t28.5 19.5q18 0 29 -19.5t11 -30.5zM421 449h58q12 -2 12 -21q10 -132 1.5 -201t-16.5 -82q-20 -26 -85 -30q-86 -5 -123 59q-14 28 -10 41t12 13q8 1 18 -14q7 -12 20.5 -30.5t38.5 -22.5q51 -11 80 15q12 17 16 34
q10 56 1 195h-22q-18 2 -18 22.5t17 21.5zM153 706q18 38 39.5 26.5t8.5 -34.5q-91 -164 -89 -326q4 -181 105 -349q9 -17 -9.5 -30t-27.5 5q-114 206 -114 374q0 156 87 334zM668 706q87 -178 87 -334q0 -168 -114 -374q-9 -18 -27.5 -5t-9.5 30q101 168 105 349
q2 162 -89 326q-13 23 8.5 34.5t39.5 -26.5z" />
    <glyph glyph-name="uni24A6" unicode="&#x24a6;" horiz-adv-x="824" 
d="M291 164h17q-1 304 -10 414h-14q-18 2 -18 22.5t17 21.5h50q16 -1 16 -21l2 -255q124 80 205 93q28 4 35 -25q-1 -12 -8 -13q-85 -28 -222 -100q78 -71 123 -88.5t103 -40.5q4 -2 -6 -27q-3 -7 -20 -7q-80 10 -208 106q4 -48 4 -80h19q12 -1 12 -22t-8 -22h-89
q-17 1 -17 22t17 22zM153 706q18 38 39.5 26.5t8.5 -34.5q-91 -164 -89 -326q4 -181 105 -349q9 -17 -9.5 -30t-27.5 5q-114 206 -114 374q0 156 87 334zM668 706q87 -178 87 -334q0 -168 -114 -374q-9 -18 -27.5 -5t-9.5 30q101 168 105 349q2 162 -89 326q-13 23 8.5 34.5
t39.5 -26.5z" />
    <glyph glyph-name="uni24A7" unicode="&#x24a7;" horiz-adv-x="824" 
d="M367 628h59q13 -1 13 -21q6 -249 -2 -470h10q22 0 22 -21.5t-7 -21.5h-90q-17 1 -17 22t27 21h11q-3 72 -5 222q-4 159 1 225h-21q-18 2 -18 22.5t17 21.5zM153 706q18 38 39.5 26.5t8.5 -34.5q-91 -164 -89 -326q4 -181 105 -349q9 -17 -9.5 -30t-27.5 5
q-114 206 -114 374q0 156 87 334zM668 706q87 -178 87 -334q0 -168 -114 -374q-9 -18 -27.5 -5t-9.5 30q101 168 105 349q2 162 -89 326q-13 23 8.5 34.5t39.5 -26.5z" />
    <glyph glyph-name="uni24A8" unicode="&#x24a8;" horiz-adv-x="824" 
d="M214 252h18q-24 129 -25 213h-17q-18 2 -18 22.5t17 21.5h49q11 -1 12 -18l9 -39q52 50 98 47q69 -4 99 -75q42 68 76 65q59 -3 73 -41q31 -72 26 -163l-2 -22h20q13 -1 13 -22.5t-7 -21.5h-90q-17 1 -17 22t17 22h19q0 58 -4 117q-6 53 -39 61q-27 1 -47 -24.5
t-21 -57.5q-7 -50 -13 -99q-3 -16 -23 -15q-23 1 -22 16q3 47 6 108q-1 48 -13 61q-12 19 -53 21q-47 3 -93 -34q10 -76 24 -165q25 -1 25 -22t-8 -22h-88q-18 2 -18 22.5t17 21.5zM153 706q18 38 39.5 26.5t8.5 -34.5q-91 -164 -89 -326q4 -181 105 -349q9 -17 -9.5 -30
t-27.5 5q-114 206 -114 374q0 156 87 334zM668 706q87 -178 87 -334q0 -168 -114 -374q-9 -18 -27.5 -5t-9.5 30q101 168 105 349q2 162 -89 326q-13 23 8.5 34.5t39.5 -26.5z" />
    <glyph glyph-name="uni24A9" unicode="&#x24a9;" horiz-adv-x="824" 
d="M274 262h18q-5 58 -8 144q-1 48 -1 78h-19q-18 2 -18 22.5t17 21.5h53q15 -2 12 -68q72 57 124 50q24 -3 55 -21q47 -22 53 -98q4 -75 2 -136h20q13 -1 13 -22t-9 -22h-89q-17 1 -17 22t17 22h20q-3 44 -2 110q1 96 -89 100q-32 0 -61 -29q-19 -22 -24 -53q-3 -27 1 -75
q1 -22 3 -46h14q12 -1 12 -22t-8 -22h-88q-18 2 -18 22.5t17 21.5zM153 706q18 38 39.5 26.5t8.5 -34.5q-91 -164 -89 -326q4 -181 105 -349q9 -17 -9.5 -30t-27.5 5q-114 206 -114 374q0 156 87 334zM668 706q87 -178 87 -334q0 -168 -114 -374q-9 -18 -27.5 -5t-9.5 30
q101 168 105 349q2 162 -89 326q-13 23 8.5 34.5t39.5 -26.5z" />
    <glyph glyph-name="uni24AA" unicode="&#x24aa;" horiz-adv-x="824" 
d="M580 351q0 -64 -44 -104q-43 -44 -136 -40q-132 9 -142 148q0 48 17 90q14 29 45.5 52.5t64.5 23.5q69 4 113 -26q86 -59 82 -144zM525 343q8 71 -48 106q-31 24 -62 24q-40 0 -65 -16q-40 -29 -40 -91q0 -63 41 -91q31 -20 63 -20q102 0 111 88zM153 706
q18 38 39.5 26.5t8.5 -34.5q-91 -164 -89 -326q4 -181 105 -349q9 -17 -9.5 -30t-27.5 5q-114 206 -114 374q0 156 87 334zM668 706q87 -178 87 -334q0 -168 -114 -374q-9 -18 -27.5 -5t-9.5 30q101 168 105 349q2 162 -89 326q-13 23 8.5 34.5t39.5 -26.5z" />
    <glyph glyph-name="uni24AB" unicode="&#x24ab;" horiz-adv-x="824" 
d="M565 420q0 -47 -31 -87q-29 -43 -73 -43q-57 0 -100 21q9 -92 6 -157q0 -8 -20 -8q-17 0 -18 4q-7 23 -7 62q-11 183 -15 307l-17 9q-17 9 -9 28t24 13l41 -17q34 17 77 17q41 0 71 -17q40 -20 55.5 -53.5t15.5 -78.5zM516 424q0 20 -11.5 52t-44.5 40q-32 8 -56.5 6
t-41.5 -23q-10 -10 -10 -61q0 -3 8 -85q43 -25 75 -22q81 12 81 93zM153 706q18 38 39.5 26.5t8.5 -34.5q-91 -164 -89 -326q4 -181 105 -349q9 -17 -9.5 -30t-27.5 5q-114 206 -114 374q0 156 87 334zM668 706q87 -178 87 -334q0 -168 -114 -374q-9 -18 -27.5 -5t-9.5 30
q101 168 105 349q2 162 -89 326q-13 23 8.5 34.5t39.5 -26.5z" />
    <glyph glyph-name="uni24AC" unicode="&#x24ac;" horiz-adv-x="824" 
d="M532 171q-2 -14 -24 -15q-9 -1 -9 0q-6 3 -10 50t-1 166q-63 -118 -141 -105q-30 4 -51 26.5t-29 49.5q-8 43 0 84q11 71 53 108.5t105 26.5q34 -6 53 -16t41 -23q15 -11 14 -16q-7 -88 -1 -336zM483 435q4 26 2 47q-25 30 -67 40q-81 -10 -99 -62t-13 -91q14 -48 51 -55
q40 -7 77 19.5t49 101.5zM153 706q18 38 39.5 26.5t8.5 -34.5q-91 -164 -89 -326q4 -181 105 -349q9 -17 -9.5 -30t-27.5 5q-114 206 -114 374q0 156 87 334zM668 706q87 -178 87 -334q0 -168 -114 -374q-9 -18 -27.5 -5t-9.5 30q101 168 105 349q2 162 -89 326
q-13 23 8.5 34.5t39.5 -26.5z" />
    <glyph glyph-name="uni24AD" unicode="&#x24ad;" horiz-adv-x="824" 
d="M322 221h15q0 86 -12 272h-12q-18 2 -18 22.5t17 21.5h17q35 -1 44 -84q74 40 116 33q34 -7 64 -26q32 -22 30 -42.5t-21 -19.5q-1 0 -30 19t-45 20q-15 2 -41 -3q-56 -21 -59 -73q-2 -19 1 -73q2 -39 2 -67h17q12 -1 12 -22t-8 -22h-88q-18 2 -18 22.5t17 21.5zM153 706
q18 38 39.5 26.5t8.5 -34.5q-91 -164 -89 -326q4 -181 105 -349q9 -17 -9.5 -30t-27.5 5q-114 206 -114 374q0 156 87 334zM668 706q87 -178 87 -334q0 -168 -114 -374q-9 -18 -27.5 -5t-9.5 30q101 168 105 349q2 162 -89 326q-13 23 8.5 34.5t39.5 -26.5z" />
    <glyph glyph-name="uni24AE" unicode="&#x24ae;" horiz-adv-x="824" 
d="M254 210v84q1 13 22 13t22 -8v-18q24 -32 38 -35q79 -22 145 -3.5t-9 56.5q-92 33 -148 103q-16 22 -16 60t16 58q16 19 37.5 27t46.5 8t55 -10q21 -8 60 -36q10 4 18 4q23 0 24 -8v-88q-2 -18 -22.5 -18t-21.5 17v33q-75 58 -107 59t-44 -14t-11 -34.5t21 -47.5
q31 -31 69 -50q29 -11 82 -40q31 -15 31 -43q0 -34 -19 -56q-40 -40 -109 -40q-41 0 -72 7q-31 6 -61 20q-10 -17 -25 -17q-21 0 -22 17zM153 706q18 38 39.5 26.5t8.5 -34.5q-91 -164 -89 -326q4 -181 105 -349q9 -17 -9.5 -30t-27.5 5q-114 206 -114 374q0 156 87 334z
M668 706q87 -178 87 -334q0 -168 -114 -374q-9 -18 -27.5 -5t-9.5 30q101 168 105 349q2 162 -89 326q-13 23 8.5 34.5t39.5 -26.5z" />
    <glyph glyph-name="uni24AF" unicode="&#x24af;" horiz-adv-x="824" 
d="M568 399q0 -18 -6 -18l-160 -9q-2 -65 9 -156q8 -30 43 -30h53q17 -2 17 -24q0 -16 -19 -17h-60q-54 0 -69 20q-21 90 -21 212q-74 0 -105 5q-20 3 -20 17.5t6 15.5q37 7 119 -1q0 60 3 112t15 76q1 4 14 4q21 0 22 -6q-13 -110 -8 -185q38 0 89.5 1.5t68.5 0.5
q9 -1 9 -18zM153 706q18 38 39.5 26.5t8.5 -34.5q-91 -164 -89 -326q4 -181 105 -349q9 -17 -9.5 -30t-27.5 5q-114 206 -114 374q0 156 87 334zM668 706q87 -178 87 -334q0 -168 -114 -374q-9 -18 -27.5 -5t-9.5 30q101 168 105 349q2 162 -89 326q-13 23 8.5 34.5
t39.5 -26.5z" />
    <glyph glyph-name="uni24B0" unicode="&#x24b0;" horiz-adv-x="824" 
d="M243 494h32q9 0 13 -6q2 -3 3 -7q-3 -145 26 -207q13 -35 63 -35q45 0 73 23q38 35 42 80q0 66 -3 150h-26q-18 2 -18 23t17 22h44q22 0 28 -39q11 -64 7 -145q-3 -57 6 -79q11 -10 28 -37q6 -16 6 -24q0 -13 -10 -17q-5 -3 -10 -3q-22 0 -54 64q-48 -44 -71 -54
q-27 -10 -75 -10q-13 0 -36.5 8.5t-32.5 18.5q-27 20 -40 71q-18 58 -11 158q-23 5 -23 24q0 21 22 21zM153 706q18 38 39.5 26.5t8.5 -34.5q-91 -164 -89 -326q4 -181 105 -349q9 -17 -9.5 -30t-27.5 5q-114 206 -114 374q0 156 87 334zM668 706q87 -178 87 -334
q0 -168 -114 -374q-9 -18 -27.5 -5t-9.5 30q101 168 105 349q2 162 -89 326q-13 23 8.5 34.5t39.5 -26.5z" />
    <glyph glyph-name="uni24B1" unicode="&#x24b1;" horiz-adv-x="824" 
d="M262 474h75q13 -1 13 -22t-8 -22h-33l21 -35q29 -53 54 -108q7 -11 34 -59q31 41 38 60q31 62 73 142h-21q-18 2 -18 22.5t17 21.5h76q12 -1 12 -22t-22 -23q-14 -47 -68 -141q-71 -123 -81 -123q-20 -5 -41 27q-105 174 -128 238q-10 7 -10 22q0 21 17 22zM153 706
q18 38 39.5 26.5t8.5 -34.5q-91 -164 -89 -326q4 -181 105 -349q9 -17 -9.5 -30t-27.5 5q-114 206 -114 374q0 156 87 334zM668 706q87 -178 87 -334q0 -168 -114 -374q-9 -18 -27.5 -5t-9.5 30q101 168 105 349q2 162 -89 326q-13 23 8.5 34.5t39.5 -26.5z" />
    <glyph glyph-name="uni24B2" unicode="&#x24b2;" horiz-adv-x="824" 
d="M153 472h75q13 -1 13 -22t-8 -22h-19q13 -26 20 -41q12 -29 55 -112q9 -15 31 -44q23 29 34.5 57t22.5 82q11 55 18 79q8 26 28 26q11 0 18 -9l31 -110q15 -55 52 -125q17 27 54 141q9 31 22 63q-20 7 -20 24q0 21 17 22h76q12 -1 12 -22t-8 -22h-22q-13 -40 -38 -111
q-40 -107 -58 -146q-12 -20 -36 -20q-17 0 -43 49q-29 49 -55 166q-35 -128 -49 -160q-22 -41 -56 -41q-31 0 -64 49q-81 140 -100 203q-20 5 -20 24q0 21 17 22zM153 706q18 38 39.5 26.5t8.5 -34.5q-91 -164 -89 -326q4 -181 105 -349q9 -17 -9.5 -30t-27.5 5
q-114 206 -114 374q0 156 87 334zM668 706q87 -178 87 -334q0 -168 -114 -374q-9 -18 -27.5 -5t-9.5 30q101 168 105 349q2 162 -89 326q-13 23 8.5 34.5t39.5 -26.5z" />
    <glyph glyph-name="uni24B3" unicode="&#x24b3;" horiz-adv-x="824" 
d="M231 259h16q7 5 13 9q40 25 132 93q-40 41 -98 106q-2 2 -6 10h-28q-17 1 -17 22t17 22h76q12 -1 12 -23q0 -5 -2 -14l78 -91q47 61 82 104q-13 11 -13 24q0 21 17 22h76q13 -1 13 -22t-9 -22h-24q-14 -27 -42 -62q-29 -40 -64 -78l69 -68q22 -24 38 -41h20q12 -1 12 -22
t-8 -22h-79q-18 2 -18 23q0 5 2 14q-22 22 -75 83q-60 -51 -101 -80v-3q0 -27 -9 -28h-79q-18 2 -18 22.5t17 21.5zM153 706q18 38 39.5 26.5t8.5 -34.5q-91 -164 -89 -326q4 -181 105 -349q9 -17 -9.5 -30t-27.5 5q-114 206 -114 374q0 156 87 334zM668 706
q87 -178 87 -334q0 -168 -114 -374q-9 -18 -27.5 -5t-9.5 30q101 168 105 349q2 162 -89 326q-13 23 8.5 34.5t39.5 -26.5z" />
    <glyph glyph-name="uni24B4" unicode="&#x24b4;" horiz-adv-x="824" 
d="M270 563h76q13 -1 13 -22t-9 -22h-23q33 -52 42 -65q44 -62 103 -114q36 55 59 149q1 4 1 15q-18 6 -18 23q0 21 17 22h76q13 -1 13 -22t-9 -22h-22q-6 -29 -15 -62q-19 -76 -72 -162q-43 -64 -86 -106q-58 -54 -97 -54q-30 0 -30 19q0 10 6 16q14 3 37 19q59 40 96 92
q3 3 13 21q0 18 -25 37t-82 98q-40 57 -54 95q-27 3 -27 23.5t17 21.5zM153 706q18 38 39.5 26.5t8.5 -34.5q-91 -164 -89 -326q4 -181 105 -349q9 -17 -9.5 -30t-27.5 5q-114 206 -114 374q0 156 87 334zM668 706q87 -178 87 -334q0 -168 -114 -374q-9 -18 -27.5 -5
t-9.5 30q101 168 105 349q2 162 -89 326q-13 23 8.5 34.5t39.5 -26.5z" />
    <glyph glyph-name="uni24B5" unicode="&#x24b5;" horiz-adv-x="824" 
d="M605 256v-12q-198 -22 -290 -22q-37 0 -37 17q0 12 29 45q44 47 198 162q-76 10 -155 17q-90 7 -95 12v10t8 16q10 7 27 7q54 0 224 -18q18 -3 33 -15q6 -8 5 -28.5t-16 -34.5q-109 -75 -177 -153q90 11 193 19q32 3 50 -9q3 -3 3 -13zM153 706q18 38 39.5 26.5
t8.5 -34.5q-91 -164 -89 -326q4 -181 105 -349q9 -17 -9.5 -30t-27.5 5q-114 206 -114 374q0 156 87 334zM668 706q87 -178 87 -334q0 -168 -114 -374q-9 -18 -27.5 -5t-9.5 30q101 168 105 349q2 162 -89 326q-13 23 8.5 34.5t39.5 -26.5z" />
    <glyph glyph-name="uni24D0" unicode="&#x24d0;" horiz-adv-x="824" 
d="M618 232q-11 -26 -24 -27t-63 90q-12 -35 -41 -56q-50 -35 -128 -32q-21 0 -66 45q-30 28 -26 105q1 43 15 87q13 35 49.5 63t65.5 27q66 -13 122 -78q37 -74 37 -89q0 -24 57 -123q8 -7 2 -12zM506 336q0 32 -18 70q-34 63 -92 77q-42 -6 -66 -57q-16 -36 -17 -79
q0 -36 18 -68q16 -26 51 -28q43 -1 83.5 27.5t40.5 57.5zM758 368q-4 -148 -103 -247t-243 -99q-152 0 -251 99t-103 247q4 148 103 247t251 99q144 0 243 -99t103 -247zM720 368q-4 132 -92 220t-216 92q-136 -4 -224 -92t-88 -220t88 -220t224 -92q128 4 216 92t92 220z
" />
    <glyph glyph-name="uni24D1" unicode="&#x24d1;" horiz-adv-x="824" 
d="M250 606h58q12 -1 12 -22q1 -94 4 -207q35 43 59.5 54.5t43.5 11.5q18 0 42 -5t50 -21q24 -14 47 -51t20 -80t-4 -53q-10 -58 -48.5 -93t-98.5 -35q-39 0 -65 6.5t-42 17.5q-17 11 -26 26.5t-13 31.5q-1 13 -2 43.5t-3 71.5q-3 38 -5 82.5t-4 88.5v89h-25q-17 1 -17 22
t17 22zM460 392q-46 3 -73 -17.5t-43 -43.5q-8 -13 -10.5 -30.5t-2.5 -40.5q0 -52 25.5 -78.5t87.5 -26.5q55 0 78.5 38t23.5 94q0 27 -21.5 60.5t-64.5 44.5zM758 368q-4 -148 -103 -247t-243 -99q-152 0 -251 99t-103 247q4 148 103 247t251 99q144 0 243 -99t103 -247z
M720 368q-4 132 -92 220t-216 92q-136 -4 -224 -92t-88 -220t88 -220t224 -92q128 4 216 92t92 220z" />
    <glyph glyph-name="uni24D2" unicode="&#x24d2;" horiz-adv-x="824" 
d="M535 464q2 -9 -4 -17t-37 6q-37 21 -94 20q-33 0 -51.5 -11t-27.5 -25q-8 -15 -9 -29t-1 -19q0 -34 13.5 -61.5t32.5 -46.5q19 -20 40 -31.5t37 -11.5q12 0 23.5 3.5t34.5 19.5q18 13 27 15.5t16 3.5q7 0 16.5 -6t9.5 -19q0 -7 -11 -16.5t-26 -17.5q-16 -10 -31.5 -17
t-22.5 -10q-4 -2 -24 -2q-36 0 -69 16t-56 45q-25 26 -40 64t-15 79q0 48 25 78t56 41q61 10 96 4t59 -18q25 -13 33 -37zM758 368q-4 -148 -103 -247t-243 -99q-152 0 -251 99t-103 247q4 148 103 247t251 99q144 0 243 -99t103 -247zM720 368q-4 132 -92 220t-216 92
q-136 -4 -224 -92t-88 -220t88 -220t224 -92q128 4 216 92t92 220z" />
    <glyph glyph-name="uni24D3" unicode="&#x24d3;" horiz-adv-x="824" 
d="M442 605h58q13 -1 13 -29q0 -128 1 -186.5t4 -112.5q2 -55 4 -105q3 -30 -10 -33t-39 -6q-28 -5 -88 -10q-35 0 -63.5 17t-52.5 68q-5 9 -7.5 25t-2.5 45t11 61.5t31 55.5q19 23 44 35t53 12q25 0 61 -24l5 143h-21q-18 2 -18 22.5t17 21.5zM472 242q-5 113 -14.5 128.5
t-39.5 20.5q-29 3 -52 -7.5t-37 -27.5q-13 -16 -18.5 -38t-5.5 -57q0 -37 27 -64.5t81 -27.5q25 0 42.5 8t17.5 21zM758 368q-4 -148 -103 -247t-243 -99q-152 0 -251 99t-103 247q4 148 103 247t251 99q144 0 243 -99t103 -247zM720 368q-4 132 -92 220t-216 92
q-136 -4 -224 -92t-88 -220t88 -220t224 -92q128 4 216 92t92 220z" />
    <glyph glyph-name="uni24D4" unicode="&#x24d4;" horiz-adv-x="824" 
d="M562 397q0 -18 -2 -28.5t-9 -18.5q-6 -7 -20 -13.5t-39 -12.5q-27 -8 -50 -8q-27 0 -56 3t-73 16q3 -45 13.5 -64.5t26.5 -30.5q15 -10 34 -14.5t38 -4.5q38 0 84 19q9 7 20.5 7t16.5 -7q5 -8 5 -19t-10 -19q-13 -9 -33 -16t-42 -10q-24 -4 -41 -4q-55 0 -86.5 23.5
t-48.5 56.5q-17 32 -22.5 68t-5.5 59t5.5 53t21.5 57q17 25 45.5 42.5t75.5 17.5q33 0 61 -11t48 -32t31.5 -48.5t11.5 -60.5zM517 410q0 21 -10.5 38.5t-27.5 31.5q-16 12 -37 20t-45 8q-22 0 -39 -12.5t-26 -29.5t-13.5 -36t-4.5 -37q12 -15 43 -22t84 -7q76 0 76 46z
M758 368q-4 -148 -103 -247t-243 -99q-152 0 -251 99t-103 247q4 148 103 247t251 99q144 0 243 -99t103 -247zM720 368q-4 132 -92 220t-216 92q-136 -4 -224 -92t-88 -220t88 -220t224 -92q128 4 216 92t92 220z" />
    <glyph glyph-name="uni24D5" unicode="&#x24d5;" horiz-adv-x="824" 
d="M356 130h8q-10 77 -24 171q-39 0 -57.5 2.5t-28.5 7.5q-7 3 -9.5 10t-2.5 15q0 7 2 10t15 2q12 -1 27 -2.5t49 -4.5q-23 217 49.5 255t120.5 12q52 -29 63.5 -41.5t15.5 -20.5q4 -9 4 -15q0 -11 -10 -15t-15 0l-51 34q-46 30 -96 7q-53 -24 -29 -215h150q18 0 18 -22
q0 -19 -1 -19q-52 -2 -89.5 -3t-72.5 -1q7 -86 18 -167h10q22 0 22 -21.5t-7 -21.5h-90q-17 1 -17 22t28 21zM758 368q-4 -148 -103 -247t-243 -99q-152 0 -251 99t-103 247q4 148 103 247t251 99q144 0 243 -99t103 -247zM720 368q-4 132 -92 220t-216 92q-136 -4 -224 -92
t-88 -220t88 -220t224 -92q128 4 216 92t92 220z" />
    <glyph glyph-name="uni24D6" unicode="&#x24d6;" horiz-adv-x="824" 
d="M563 290q0 -79 -35 -116t-118 -37q-39 0 -63.5 6.5t-37.5 16.5t-17.5 19t-4.5 16q0 30 15 30q14 -12 43 -28q28 -12 66 -12q20 0 40.5 4.5t37.5 17.5q17 15 27 40.5t8 134.5q-47 -90 -117 -90q-25 0 -46 11t-36 32q-16 20 -25 48.5t-9 63.5q0 41 7.5 67.5t21.5 44.5
q13 16 39 29t59 15q50 0 78 -25t44 -67q14 -44 18.5 -101.5t4.5 -119.5zM503 451q-3 48 -26 75t-48 27q-16 0 -32.5 -4t-30.5 -14q-16 -12 -25 -34t-9 -57q0 -20 6 -40t17 -36q10 -15 24 -25t31 -10q24 0 42.5 9.5t29.5 25.5q11 14 16 33t5 38v12zM758 368
q-4 -148 -103 -247t-243 -99q-152 0 -251 99t-103 247q4 148 103 247t251 99q144 0 243 -99t103 -247zM720 368q-4 132 -92 220t-216 92q-136 -4 -224 -92t-88 -220t88 -220t224 -92q128 4 216 92t92 220z" />
    <glyph glyph-name="uni24D7" unicode="&#x24d7;" horiz-adv-x="824" 
d="M494 171h20q8 35 8 59q0 27 -4.5 54t-16.5 49q-13 23 -33.5 37t-48.5 14q-54 -3 -68 -44q-2 -69 -2 -119q-1 -22 -1 -50h18q12 -1 12 -22t-8 -22h-88q-18 2 -18 22.5t17 21.5h16q-2 53 -1 122q1 120 -21 283h-14q-18 2 -18 22.5t17 21.5h48q14 -1 14 -22q9 -61 13.5 -89
t4.5 -102q35 22 53 26t40 4q35 0 61.5 -17t44.5 -44q18 -30 26.5 -67.5t8.5 -78.5q0 -28 -6 -58q24 -2 24 -23t-9 -22h-88q-18 2 -18 22.5t17 21.5zM758 368q-4 -148 -103 -247t-243 -99q-152 0 -251 99t-103 247q4 148 103 247t251 99q144 0 243 -99t103 -247zM720 368
q-4 132 -92 220t-216 92q-136 -4 -224 -92t-88 -220t88 -220t224 -92q128 4 216 92t92 220z" />
    <glyph glyph-name="uni24D8" unicode="&#x24d8;" horiz-adv-x="824" 
d="M460 559q0 -51 -46 -51q-41 0 -41 50q0 12 18.5 32t29.5 20q18 0 28.5 -19.5t10.5 -31.5zM376 147h21q1 47 3 86q2 68 -1 111q-3 22 -5 46h-19q-18 2 -18 22.5t17 21.5q60 3 61 -19q3 -14 8 -73q4 -59 1 -142l-4 -53h21q12 -1 12 -22t-8 -22h-88q-18 2 -18 22.5t17 21.5z
M758 368q-4 -148 -103 -247t-243 -99q-152 0 -251 99t-103 247q4 148 103 247t251 99q144 0 243 -99t103 -247zM720 368q-4 132 -92 220t-216 92q-136 -4 -224 -92t-88 -220t88 -220t224 -92q128 4 216 92t92 220z" />
    <glyph glyph-name="uni24D9" unicode="&#x24d9;" horiz-adv-x="824" 
d="M509 572q0 -51 -46 -51q-41 0 -41 50q0 12 18.5 31.5t28.5 19.5q18 0 29 -19.5t11 -30.5zM421 449h58q12 -2 12 -21q10 -132 1.5 -201t-16.5 -82q-20 -26 -85 -30q-86 -5 -123 59q-14 28 -10 41t12 13q8 1 18 -14q7 -12 20.5 -30.5t38.5 -22.5q51 -11 80 15q12 17 16 34
q10 56 1 195h-22q-18 2 -18 22.5t17 21.5zM758 368q-4 -148 -103 -247t-243 -99q-152 0 -251 99t-103 247q4 148 103 247t251 99q144 0 243 -99t103 -247zM720 368q-4 132 -92 220t-216 92q-136 -4 -224 -92t-88 -220t88 -220t224 -92q128 4 216 92t92 220z" />
    <glyph glyph-name="uni24DA" unicode="&#x24da;" horiz-adv-x="824" 
d="M291 164h17q-1 304 -10 414h-14q-18 2 -18 22.5t17 21.5h50q16 -1 16 -21l2 -255q124 80 205 93q28 4 35 -25q-1 -12 -8 -13q-85 -28 -222 -100q78 -71 123 -88.5t103 -40.5q4 -2 -6 -27q-3 -7 -20 -7q-80 10 -208 106q4 -48 4 -80h19q12 -1 12 -22t-8 -22h-89
q-17 1 -17 22t17 22zM758 368q-4 -148 -103 -247t-243 -99q-152 0 -251 99t-103 247q4 148 103 247t251 99q144 0 243 -99t103 -247zM720 368q-4 132 -92 220t-216 92q-136 -4 -224 -92t-88 -220t88 -220t224 -92q128 4 216 92t92 220z" />
    <glyph glyph-name="uni24DB" unicode="&#x24db;" horiz-adv-x="824" 
d="M367 628h59q13 -1 13 -21q6 -249 -2 -470h10q22 0 22 -21.5t-7 -21.5h-90q-17 1 -17 22t27 21h11q-3 72 -5 222q-4 159 1 225h-21q-18 2 -18 22.5t17 21.5zM758 368q-4 -148 -103 -247t-243 -99q-152 0 -251 99t-103 247q4 148 103 247t251 99q144 0 243 -99t103 -247z
M720 368q-4 132 -92 220t-216 92q-136 -4 -224 -92t-88 -220t88 -220t224 -92q128 4 216 92t92 220z" />
    <glyph glyph-name="uni24DC" unicode="&#x24dc;" horiz-adv-x="824" 
d="M214 252h18q-24 129 -25 213h-17q-18 2 -18 22.5t17 21.5h49q11 -1 12 -18l9 -39q52 50 98 47q69 -4 99 -75q42 68 76 65q59 -3 73 -41q31 -72 26 -163l-2 -22h20q13 -1 13 -22.5t-7 -21.5h-90q-17 1 -17 22t17 22h19q0 58 -4 117q-6 53 -39 61q-27 1 -47 -24.5
t-21 -57.5q-7 -50 -13 -99q-3 -16 -23 -15q-23 1 -22 16q3 47 6 108q-1 48 -13 61q-12 19 -53 21q-47 3 -93 -34q10 -76 24 -165q25 -1 25 -22t-8 -22h-88q-18 2 -18 22.5t17 21.5zM758 368q-4 -148 -103 -247t-243 -99q-152 0 -251 99t-103 247q4 148 103 247t251 99
q144 0 243 -99t103 -247zM720 368q-4 132 -92 220t-216 92q-136 -4 -224 -92t-88 -220t88 -220t224 -92q128 4 216 92t92 220z" />
    <glyph glyph-name="uni24DD" unicode="&#x24dd;" horiz-adv-x="824" 
d="M274 262h19q-4 24 -5 50.5t-2 57.5q-2 31 -2.5 59.5t-0.5 54.5h-19q-18 2 -18 23t23 21h47q6 -1 9.5 -11.5t3.5 -56.5q63 51 108 51q15 0 35 -5t38 -18q18 -14 32.5 -37t17.5 -60q2 -23 2 -46.5v-45.5v-44h20q13 -1 13 -22q0 -22 -8 -22h-90q-17 1 -17 22t17 22h20
q-2 23 -2.5 38.5t-0.5 35.5q0 9 0.5 18.5t0.5 21.5q0 90 -89 96q-33 0 -60 -29t-27 -82q0 -8 0.5 -20t1.5 -22q0 -12 1 -23t3 -27h14q12 -1 12 -22t-8 -22h-88q-18 2 -18 23q0 20 17 21zM758 368q-4 -148 -103 -247t-243 -99q-152 0 -251 99t-103 247q4 148 103 247t251 99
q144 0 243 -99t103 -247zM720 368q-4 132 -92 220t-216 92q-136 -4 -224 -92t-88 -220t88 -220t224 -92q128 4 216 92t92 220z" />
    <glyph glyph-name="uni24DE" unicode="&#x24de;" horiz-adv-x="824" 
d="M580 351q0 -64 -44 -104q-43 -44 -136 -40q-132 9 -142 148q0 48 17 90q14 29 45.5 52.5t64.5 23.5q69 4 113 -26q86 -59 82 -144zM525 343q8 71 -48 106q-31 24 -62 24q-40 0 -65 -16q-40 -29 -40 -91q0 -63 41 -91q31 -20 63 -20q102 0 111 88zM758 368
q-4 -148 -103 -247t-243 -99q-152 0 -251 99t-103 247q4 148 103 247t251 99q144 0 243 -99t103 -247zM720 368q-4 132 -92 220t-216 92q-136 -4 -224 -92t-88 -220t88 -220t224 -92q128 4 216 92t92 220z" />
    <glyph glyph-name="uni24DF" unicode="&#x24df;" horiz-adv-x="824" 
d="M565 420q0 -47 -31 -87q-29 -43 -73 -43q-57 0 -100 21q9 -92 6 -157q0 -8 -20 -8q-17 0 -18 4q-7 23 -7 62q-11 183 -15 307l-17 9q-17 9 -9 28t24 13l41 -17q34 17 77 17q41 0 71 -17q40 -20 55.5 -53.5t15.5 -78.5zM516 424q0 20 -11.5 52t-44.5 40q-32 8 -56.5 6
t-41.5 -23q-10 -10 -10 -61q0 -3 8 -85q43 -25 75 -22q81 12 81 93zM758 368q-4 -148 -103 -247t-243 -99q-152 0 -251 99t-103 247q4 148 103 247t251 99q144 0 243 -99t103 -247zM720 368q-4 132 -92 220t-216 92q-136 -4 -224 -92t-88 -220t88 -220t224 -92q128 4 216 92
t92 220z" />
    <glyph glyph-name="uni24E0" unicode="&#x24e0;" horiz-adv-x="824" 
d="M532 171q-2 -14 -24 -15q-9 -1 -9 0q-6 3 -10 50t-1 166q-63 -118 -141 -105q-30 4 -51 26.5t-29 49.5q-8 43 0 84q11 71 53 108.5t105 26.5q34 -6 53 -16t41 -23q15 -11 14 -16q-7 -88 -1 -336zM483 435q4 26 2 47q-25 30 -67 40q-81 -10 -99 -62t-13 -91q14 -48 51 -55
q40 -7 77 19.5t49 101.5zM758 368q-4 -148 -103 -247t-243 -99q-152 0 -251 99t-103 247q4 148 103 247t251 99q144 0 243 -99t103 -247zM720 368q-4 132 -92 220t-216 92q-136 -4 -224 -92t-88 -220t88 -220t224 -92q128 4 216 92t92 220z" />
    <glyph glyph-name="uni24E1" unicode="&#x24e1;" horiz-adv-x="824" 
d="M322 221h15q0 86 -12 272h-12q-18 2 -18 22.5t17 21.5h17q35 -1 44 -84q74 40 116 33q34 -7 64 -26q32 -22 30 -42.5t-21 -19.5q-1 0 -30 19t-45 20q-15 2 -41 -3q-56 -21 -59 -73q-2 -19 1 -73q2 -39 2 -67h17q12 -1 12 -22t-8 -22h-88q-18 2 -18 22.5t17 21.5zM758 368
q-4 -148 -103 -247t-243 -99q-152 0 -251 99t-103 247q4 148 103 247t251 99q144 0 243 -99t103 -247zM720 368q-4 132 -92 220t-216 92q-136 -4 -224 -92t-88 -220t88 -220t224 -92q128 4 216 92t92 220z" />
    <glyph glyph-name="uni24E2" unicode="&#x24e2;" horiz-adv-x="824" 
d="M254 210v84q1 13 21 13q22 0 23 -8v-18q15 -21 31 -30t33 -13q16 -4 31 -4.5t27 -0.5q31 0 57.5 9t26.5 24q0 16 -32 33q-30 11 -59.5 26.5t-52.5 36.5t-37.5 46t-14.5 54q0 28 9 45t23 28t31.5 15.5t36.5 4.5q22 0 46.5 -7.5t68.5 -38.5q10 4 18 4q23 0 24 -8v-88
q-2 -18 -23 -18t-21 25v25q-44 33 -70 46t-42 13q-28 0 -39 -13.5t-11 -30.5q0 -28 15.5 -47t39.5 -34q24 -16 54.5 -30t62.5 -31q31 -17 31 -43q0 -24 -10.5 -42t-27.5 -30q-17 -13 -40.5 -18.5t-48.5 -5.5q-42 0 -73 6.5t-61 20.5q-10 -17 -25 -17q-21 0 -22 17zM758 368
q-4 -148 -103 -247t-243 -99q-152 0 -251 99t-103 247q4 148 103 247t251 99q144 0 243 -99t103 -247zM720 368q-4 132 -92 220t-216 92q-136 -4 -224 -92t-88 -220t88 -220t224 -92q128 4 216 92t92 220z" />
    <glyph glyph-name="uni24E3" unicode="&#x24e3;" horiz-adv-x="824" 
d="M568 399q0 -18 -6 -18l-160 -9q-2 -65 9 -156q8 -30 43 -30h53q17 -2 17 -24q0 -16 -19 -17h-60q-54 0 -69 20q-21 90 -21 212q-74 0 -105 5q-20 3 -20 17.5t6 15.5q37 7 119 -1q0 60 3 112t15 76q1 4 14 4q21 0 22 -6q-13 -110 -8 -185q38 0 89.5 1.5t68.5 0.5
q9 -1 9 -18zM758 368q-4 -148 -103 -247t-243 -99q-152 0 -251 99t-103 247q4 148 103 247t251 99q144 0 243 -99t103 -247zM720 368q-4 132 -92 220t-216 92q-136 -4 -224 -92t-88 -220t88 -220t224 -92q128 4 216 92t92 220z" />
    <glyph glyph-name="uni24E4" unicode="&#x24e4;" horiz-adv-x="824" 
d="M243 494h32q9 0 13 -6q2 -3 3 -7q-3 -145 26 -207q13 -35 63 -35q45 0 73 23q38 35 42 80q0 66 -3 150h-26q-18 2 -18 23t17 22h44q22 0 28 -39q11 -64 7 -145q-3 -57 6 -79q11 -10 28 -37q6 -16 6 -24q0 -13 -10 -17q-5 -3 -10 -3q-22 0 -54 64q-48 -44 -71 -54
q-27 -10 -75 -10q-13 0 -36.5 8.5t-32.5 18.5q-27 20 -40 71q-18 58 -11 158q-23 5 -23 24q0 21 22 21zM758 368q-4 -148 -103 -247t-243 -99q-152 0 -251 99t-103 247q4 148 103 247t251 99q144 0 243 -99t103 -247zM720 368q-4 132 -92 220t-216 92q-136 -4 -224 -92
t-88 -220t88 -220t224 -92q128 4 216 92t92 220z" />
    <glyph glyph-name="uni24E5" unicode="&#x24e5;" horiz-adv-x="824" 
d="M262 474h75q13 -1 13 -22t-8 -22h-33l21 -35q29 -53 54 -108q7 -11 34 -59q31 41 38 60q31 62 73 142h-21q-18 2 -18 22.5t17 21.5h76q12 -1 12 -22t-22 -23q-14 -47 -68 -141q-71 -123 -81 -123q-20 -5 -41 27q-105 174 -128 238q-10 7 -10 22q0 21 17 22zM758 368
q-4 -148 -103 -247t-243 -99q-152 0 -251 99t-103 247q4 148 103 247t251 99q144 0 243 -99t103 -247zM720 368q-4 132 -92 220t-216 92q-136 -4 -224 -92t-88 -220t88 -220t224 -92q128 4 216 92t92 220z" />
    <glyph glyph-name="uni24E6" unicode="&#x24e6;" horiz-adv-x="824" 
d="M153 472h75q13 -1 13 -22t-8 -22h-19q13 -26 20 -41q12 -29 55 -112q9 -15 31 -44q23 29 34.5 57t22.5 82q11 55 18 79q8 26 28 26q11 0 18 -9l31 -110q15 -55 52 -125q17 27 54 141q9 31 22 63q-20 7 -20 24q0 21 17 22h76q12 -1 12 -22t-8 -22h-22q-13 -40 -38 -111
q-40 -107 -58 -146q-12 -20 -36 -20q-17 0 -43 49q-29 49 -55 166q-35 -128 -49 -160q-22 -41 -56 -41q-31 0 -64 49q-81 140 -100 203q-20 5 -20 24q0 21 17 22zM758 368q-4 -148 -103 -247t-243 -99q-152 0 -251 99t-103 247q4 148 103 247t251 99q144 0 243 -99t103 -247
zM720 368q-4 132 -92 220t-216 92q-136 -4 -224 -92t-88 -220t88 -220t224 -92q128 4 216 92t92 220z" />
    <glyph glyph-name="uni24E7" unicode="&#x24e7;" horiz-adv-x="824" 
d="M231 259h16q7 5 13 9q40 25 132 93q-40 41 -98 106q-2 2 -6 10h-28q-17 1 -17 22t17 22h76q12 -1 12 -23q0 -5 -2 -14l78 -91q47 61 82 104q-13 11 -13 24q0 21 17 22h76q13 -1 13 -22t-9 -22h-24q-14 -27 -42 -62q-29 -40 -64 -78l69 -68q22 -24 38 -41h20q12 -1 12 -22
t-8 -22h-79q-18 2 -18 23q0 5 2 14q-22 22 -75 83q-60 -51 -101 -80v-3q0 -27 -9 -28h-79q-18 2 -18 22.5t17 21.5zM758 368q-4 -148 -103 -247t-243 -99q-152 0 -251 99t-103 247q4 148 103 247t251 99q144 0 243 -99t103 -247zM720 368q-4 132 -92 220t-216 92
q-136 -4 -224 -92t-88 -220t88 -220t224 -92q128 4 216 92t92 220z" />
    <glyph glyph-name="uni24E8" unicode="&#x24e8;" horiz-adv-x="824" 
d="M270 563h76q13 -1 13 -22t-9 -22h-23q33 -52 42 -65q44 -62 103 -114q36 55 59 149q1 4 1 15q-18 6 -18 23q0 21 17 22h76q13 -1 13 -22t-9 -22h-22q-6 -29 -15 -62q-19 -76 -72 -162q-43 -64 -86 -106q-58 -54 -97 -54q-30 0 -30 19q0 10 6 16q14 3 37 19q59 40 96 92
q3 3 13 21q0 18 -25 37t-82 98q-40 57 -54 95q-27 3 -27 23.5t17 21.5zM758 368q-4 -148 -103 -247t-243 -99q-152 0 -251 99t-103 247q4 148 103 247t251 99q144 0 243 -99t103 -247zM720 368q-4 132 -92 220t-216 92q-136 -4 -224 -92t-88 -220t88 -220t224 -92
q128 4 216 92t92 220z" />
    <glyph glyph-name="uni24E9" unicode="&#x24e9;" horiz-adv-x="824" 
d="M605 256v-12q-198 -22 -290 -22q-37 0 -37 17q0 12 29 45q44 47 198 162q-76 10 -155 17q-90 7 -95 12v10t8 16q10 7 27 7q54 0 224 -18q18 -3 33 -15q6 -8 5 -28.5t-16 -34.5q-109 -75 -177 -153q90 11 193 19q32 3 50 -9q3 -3 3 -13zM758 368q-4 -148 -103 -247
t-243 -99q-152 0 -251 99t-103 247q4 148 103 247t251 99q144 0 243 -99t103 -247zM720 368q-4 132 -92 220t-216 92q-136 -4 -224 -92t-88 -220t88 -220t224 -92q128 4 216 92t92 220z" />
    <glyph glyph-name="SF100000" unicode="&#x2500;" horiz-adv-x="824" 
d="M3 382h824v-30h-824v30z" />
    <glyph glyph-name="uni2501" unicode="&#x2501;" horiz-adv-x="824" 
d="M3 399h824v-65h-824v65z" />
    <glyph glyph-name="SF110000" unicode="&#x2502;" horiz-adv-x="824" 
d="M431 799v-864h-29v864h29z" />
    <glyph glyph-name="uni2503" unicode="&#x2503;" horiz-adv-x="824" 
d="M445 799v-864h-60v864h60z" />
    <glyph glyph-name="SF010000" unicode="&#x250c;" horiz-adv-x="824" 
d="M431 -65h-29v447h425v-30h-396v-417z" />
    <glyph glyph-name="uni250D" unicode="&#x250d;" horiz-adv-x="824" 
d="M431 -65h-29v464h425v-65h-396v-399z" />
    <glyph glyph-name="uni250E" unicode="&#x250e;" horiz-adv-x="824" 
d="M445 -65h-59v447h441v-30h-382v-417z" />
    <glyph glyph-name="uni250F" unicode="&#x250f;" horiz-adv-x="824" 
d="M827 399v-65h-382v-399h-59v464h441z" />
    <glyph glyph-name="SF030000" unicode="&#x2510;" horiz-adv-x="824" 
d="M402 352h-399v30h428v-447h-29v417z" />
    <glyph glyph-name="uni2511" unicode="&#x2511;" horiz-adv-x="824" 
d="M402 334h-399v65h428v-464h-29v399z" />
    <glyph glyph-name="uni2512" unicode="&#x2512;" horiz-adv-x="824" 
d="M385 352h-382v30h441v-447h-59v417z" />
    <glyph glyph-name="uni2513" unicode="&#x2513;" horiz-adv-x="824" 
d="M444 399v-464h-59v399h-382v65h441z" />
    <glyph glyph-name="SF020000" unicode="&#x2514;" horiz-adv-x="824" 
d="M431 382h396v-30h-425v447h29v-417z" />
    <glyph glyph-name="uni2515" unicode="&#x2515;" horiz-adv-x="824" 
d="M431 399h396v-65h-425v465h29v-400z" />
    <glyph glyph-name="uni2516" unicode="&#x2516;" horiz-adv-x="824" 
d="M445 382h382v-30h-441v447h59v-417z" />
    <glyph glyph-name="uni2517" unicode="&#x2517;" horiz-adv-x="824" 
d="M386 334v465h59v-400h382v-65h-441z" />
    <glyph glyph-name="SF040000" unicode="&#x2518;" horiz-adv-x="824" 
d="M402 799h29v-447h-428v30h399v417z" />
    <glyph glyph-name="uni2519" unicode="&#x2519;" horiz-adv-x="824" 
d="M402 799h29v-465h-428v65h399v400z" />
    <glyph glyph-name="uni251A" unicode="&#x251a;" horiz-adv-x="824" 
d="M385 799h59v-447h-441v30h382v417z" />
    <glyph glyph-name="uni251B" unicode="&#x251b;" horiz-adv-x="824" 
d="M3 334v65h382v400h59v-465h-441z" />
    <glyph glyph-name="SF080000" unicode="&#x251c;" horiz-adv-x="824" 
d="M431 382h396v-30h-396v-417h-29v864h29v-417z" />
    <glyph glyph-name="uni251D" unicode="&#x251d;" horiz-adv-x="824" 
d="M431 399h396v-65h-396v-399h-29v864h29v-400z" />
    <glyph glyph-name="uni251E" unicode="&#x251e;" horiz-adv-x="824" 
d="M445 382h382v-30h-397q0 -104 0.5 -208.5t0.5 -208.5h-29v434h-16v430h59v-417z" />
    <glyph glyph-name="uni251F" unicode="&#x251f;" horiz-adv-x="824" 
d="M431 382h396v-30h-382v-417h-59v429h16v435h29v-417z" />
    <glyph glyph-name="uni2520" unicode="&#x2520;" horiz-adv-x="824" 
d="M386 -65v864h59v-417h382v-30h-382v-417h-59z" />
    <glyph glyph-name="uni2521" unicode="&#x2521;" horiz-adv-x="824" 
d="M445 399h382v-65h-396v-399h-29v434h-16v430h59v-400z" />
    <glyph glyph-name="uni2522" unicode="&#x2522;" horiz-adv-x="824" 
d="M431 399h396v-65h-382v-399h-59v429h16v435h29v-400z" />
    <glyph glyph-name="uni2523" unicode="&#x2523;" horiz-adv-x="824" 
d="M386 -65v864h59v-400h382v-65h-382v-399h-59z" />
    <glyph glyph-name="SF090000" unicode="&#x2524;" horiz-adv-x="824" 
d="M402 352h-399v30h399v417h29v-863h-29v416z" />
    <glyph glyph-name="uni2525" unicode="&#x2525;" horiz-adv-x="824" 
d="M402 334h-399v65h399v400h29v-863h-29v398z" />
    <glyph glyph-name="uni2526" unicode="&#x2526;" horiz-adv-x="824" 
d="M402 352h-399v30h382v417h59v-430h-14v-434h-28v417z" />
    <glyph glyph-name="uni2527" unicode="&#x2527;" horiz-adv-x="824" 
d="M385 352h-382v30h399v417h28v-435h14v-429h-59v417z" />
    <glyph glyph-name="uni2528" unicode="&#x2528;" horiz-adv-x="824" 
d="M385 -65v417h-382v30h382v417h59v-864h-59z" />
    <glyph glyph-name="uni2529" unicode="&#x2529;" horiz-adv-x="824" 
d="M402 334h-399v65h382v400h59v-430h-14v-433h-28v398z" />
    <glyph glyph-name="uni252A" unicode="&#x252a;" horiz-adv-x="824" 
d="M385 334h-382v65h399v400h28v-435h14v-429h-59v399z" />
    <glyph glyph-name="uni252B" unicode="&#x252b;" horiz-adv-x="824" 
d="M385 -65v399h-382v65h382v400h59v-864h-59z" />
    <glyph glyph-name="SF060000" unicode="&#x252c;" horiz-adv-x="824" 
d="M431 352v-417h-29v417h-399v30h824v-30h-396z" />
    <glyph glyph-name="uni252D" unicode="&#x252d;" horiz-adv-x="824" 
d="M431 352v-417h-29v399h-399v65h408v-17h416v-30h-396z" />
    <glyph glyph-name="uni252E" unicode="&#x252e;" horiz-adv-x="824" 
d="M431 334v-399h-29v417h-399v30h413v17h411v-65h-396z" />
    <glyph glyph-name="uni252F" unicode="&#x252f;" horiz-adv-x="824" 
d="M402 -65v399h-399v65h824v-65h-396v-399h-29z" />
    <glyph glyph-name="uni2530" unicode="&#x2530;" horiz-adv-x="824" 
d="M445 352v-417h-60v417h-382v30h824v-30h-382z" />
    <glyph glyph-name="uni2531" unicode="&#x2531;" horiz-adv-x="824" 
d="M445 352v-417h-60v399h-382v65h408v-17h416v-30h-382z" />
    <glyph glyph-name="uni2532" unicode="&#x2532;" horiz-adv-x="824" 
d="M3 352v30h413v17h411v-65h-382v-399h-60v417h-382z" />
    <glyph glyph-name="uni2533" unicode="&#x2533;" horiz-adv-x="824" 
d="M385 -65v399h-382v65h824v-65h-382v-399h-60z" />
    <glyph glyph-name="SF070000" unicode="&#x2534;" horiz-adv-x="824" 
d="M402 382v416h29v-416h396v-30h-824v30h399z" />
    <glyph glyph-name="uni2535" unicode="&#x2535;" horiz-adv-x="824" 
d="M402 399v399h29v-416h396v-30h-416v-18h-408v65h399z" />
    <glyph glyph-name="uni2536" unicode="&#x2536;" horiz-adv-x="824" 
d="M827 399v-65h-411v18h-413v30h399v416h29v-399h396z" />
    <glyph glyph-name="uni2537" unicode="&#x2537;" horiz-adv-x="824" 
d="M431 799v-400h396v-65h-824v65h399v400h29z" />
    <glyph glyph-name="uni2538" unicode="&#x2538;" horiz-adv-x="824" 
d="M385 382v417h60v-417h382v-30h-824v30h382z" />
    <glyph glyph-name="uni2539" unicode="&#x2539;" horiz-adv-x="824" 
d="M385 399v400h60v-417h382v-30h-416v-18h-408v65h382z" />
    <glyph glyph-name="uni253A" unicode="&#x253a;" horiz-adv-x="824" 
d="M827 399v-65h-411v18h-413v30h382v417h60v-400h382z" />
    <glyph glyph-name="uni253B" unicode="&#x253b;" horiz-adv-x="824" 
d="M445 799v-400h382v-65h-824v65h382v400h60z" />
    <glyph glyph-name="SF050000" unicode="&#x253c;" horiz-adv-x="824" 
d="M402 352h-399v30h399v417h29v-417h396v-30h-396v-417h-29v417z" />
    <glyph glyph-name="uni253D" unicode="&#x253d;" horiz-adv-x="824" 
d="M402 334h-399v68h399v397h29v-417h396v-30h-396v-417h-29v399z" />
    <glyph glyph-name="uni253E" unicode="&#x253e;" horiz-adv-x="824" 
d="M402 352h-399v30h399v417h29v-400h396v-65h-396v-399h-29v417z" />
    <glyph glyph-name="uni253F" unicode="&#x253f;" horiz-adv-x="824" 
d="M431 799v-400h396v-65h-396v-399h-29v399h-399v65h399v400h29z" />
    <glyph glyph-name="uni2540" unicode="&#x2540;" horiz-adv-x="824" 
d="M402 352h-399v30h382v417h60v-417h382v-30h-396v-417h-29v417z" />
    <glyph glyph-name="uni2541" unicode="&#x2541;" horiz-adv-x="824" 
d="M402 799h29v-417h396v-30h-382v-417h-60v417h-382v30h399v417z" />
    <glyph glyph-name="uni2542" unicode="&#x2542;" horiz-adv-x="824" 
d="M385 352h-382v30h382v417h60v-417h382v-30h-382v-417h-60v417z" />
    <glyph glyph-name="uni2543" unicode="&#x2543;" horiz-adv-x="824" 
d="M431 -65h-29v399h-399v65h382v400h60v-417h382v-30h-396v-417z" />
    <glyph glyph-name="uni2544" unicode="&#x2544;" horiz-adv-x="824" 
d="M402 352h-399v30h382v417h60v-400h382v-65h-396v-399h-29v417z" />
    <glyph glyph-name="uni2545" unicode="&#x2545;" horiz-adv-x="824" 
d="M431 382h396v-30h-382v-417h-60v399h-382v65h399v400h29v-417z" />
    <glyph glyph-name="uni2546" unicode="&#x2546;" horiz-adv-x="824" 
d="M402 799h29v-400h396v-65h-382v-399h-60v417h-382v30h399v417z" />
    <glyph glyph-name="uni2547" unicode="&#x2547;" horiz-adv-x="824" 
d="M402 334h-399v65h382v400h60v-400h382v-65h-396v-399h-29v399z" />
    <glyph glyph-name="uni2548" unicode="&#x2548;" horiz-adv-x="824" 
d="M402 799h29v-400h396v-65h-382v-399h-60v399h-382v65h399v400z" />
    <glyph glyph-name="uni2549" unicode="&#x2549;" horiz-adv-x="824" 
d="M445 -65h-60v399h-382v65h382v400h60v-417h382v-30h-382v-417z" />
    <glyph glyph-name="uni254A" unicode="&#x254a;" horiz-adv-x="824" 
d="M385 352h-382v30h382v417h60v-400h382v-65h-382v-399h-60v417z" />
    <glyph glyph-name="uni254B" unicode="&#x254b;" horiz-adv-x="824" 
d="M445 799v-400h382v-65h-382v-399h-60v399h-382v65h382v400h60z" />
    <glyph glyph-name="shade" unicode="&#x2592;" horiz-adv-x="824" 
d="M756 12h-680v711h680v-711z" />
    <glyph glyph-name="filledbox" unicode="&#x25a0;" horiz-adv-x="824" 
d="M172 625h487v-517h-487v517z" />
    <glyph glyph-name="H22073" unicode="&#x25a1;" horiz-adv-x="824" 
d="M176 625h487v-517h-487v517zM203 597v-463h435v463h-435z" />
    <glyph glyph-name="uni25A3" unicode="&#x25a3;" horiz-adv-x="824" 
d="M719 686v-638h-607v638h607zM146 652v-571h541v571h-541zM570 529v-324h-310v324h310z" />
    <glyph glyph-name="uni25A4" unicode="&#x25a4;" horiz-adv-x="824" 
d="M77 12v708h675v-708h-675zM100 112v-74h630v74h-630zM100 210v-76h630v76h-630zM100 308v-79h630v79h-630zM100 405v-76h630v76h-630zM100 503v-76h630v76h-630zM100 600v-75h630v75h-630zM100 697v-75h630v75h-630z" />
    <glyph glyph-name="uni25A5" unicode="&#x25a5;" horiz-adv-x="824" 
d="M752 12h-674v709h674v-709zM655 34h72v666h-72v-666zM565 34h69v666h-69v-666zM472 34h72v666h-72v-666zM377 34h72v666h-72v-666zM288 34h72v666h-72v-666zM192 34h72v666h-72v-666zM103 34h72v666h-72v-666z" />
    <glyph glyph-name="uni25A6" unicode="&#x25a6;" horiz-adv-x="824" 
d="M77 12v708h675v-708h-675zM377 38h73v74h-73v-74zM567 112v-74h73v74h-73zM546 38v74h-74v-74h74zM263 38v74h-73v-74h73zM173 38v74h-73v-74h73zM360 38v74h-73v-74h73zM657 112v-74h73v74h-73zM377 134h73v76h-73v-76zM567 210v-76h73v76h-73zM546 134v76h-74v-76h74z
M263 134v76h-73v-76h73zM173 134v76h-73v-76h73zM360 134v76h-73v-76h73zM657 210v-76h73v76h-73zM377 229h73v79h-73v-79zM567 308v-79h73v79h-73zM546 229v79h-74v-79h74zM263 229v79h-73v-79h73zM173 229v79h-73v-79h73zM360 229v79h-73v-79h73zM657 308v-79h73v79h-73z
M377 329h73v76h-73v-76zM567 405v-76h73v76h-73zM546 329v76h-74v-76h74zM263 329v76h-73v-76h73zM173 329v76h-73v-76h73zM360 329v76h-73v-76h73zM657 405v-76h73v76h-73zM377 427h73v76h-73v-76zM567 503v-76h73v76h-73zM546 427v76h-74v-76h74zM263 427v76h-73v-76h73z
M173 427v76h-73v-76h73zM360 427v76h-73v-76h73zM657 503v-76h73v76h-73zM377 525h73v75h-73v-75zM567 600v-75h73v75h-73zM546 525v75h-74v-75h74zM263 525v75h-73v-75h73zM173 525v75h-73v-75h73zM360 525v75h-73v-75h73zM657 600v-75h73v75h-73zM377 622h73v75h-73v-75z
M567 697v-75h73v75h-73zM546 622v75h-74v-75h74zM263 622v75h-73v-75h73zM173 622v75h-73v-75h73zM360 622v75h-73v-75h73zM657 697v-75h73v75h-73z" />
    <glyph glyph-name="uni25A7" unicode="&#x25a7;" horiz-adv-x="824" 
d="M77 720h674v-708h-674v708zM210 698h-94l614 -650v99zM622 34h95l-614 647v-97zM103 550v-96l398 -420h90zM103 157v-123h118zM254 34h89l-240 255v-97zM469 34l-366 386v-97l272 -289h94zM727 573v125h-117zM578 698h-95l244 -256v97zM363 698l364 -386v96l-276 290h-88
zM730 181v97l-399 420h-89z" />
    <glyph glyph-name="uni25A8" unicode="&#x25a8;" horiz-adv-x="824" 
d="M752 721v-709h-674v709h674zM619 699l-520 -551v-99l615 650h-95zM207 35l520 550v97l-615 -647h95zM727 551l-492 -516h95l397 420v96zM727 157l-117 -122h117v122zM578 35l149 157v98l-244 -255h95zM363 35h88l276 289v97zM103 574l118 125h-118v-125zM254 699
l-151 -159v-97l240 256h-89zM469 699h-94l-272 -290v-96zM99 182l488 517h-89l-399 -420v-97z" />
    <glyph glyph-name="uni25A9" unicode="&#x25a9;" horiz-adv-x="824" 
d="M756 12h-680v711h680v-711zM652 446l61 -61l14 16v100l-12 13zM713 219l14 17v97l-15 17l-62 -64zM416 697l79 -79l57 64l-12 15h-124zM180 452l-65 63l-14 -14v-99l13 -17zM101 170v-116l71 75l-56 57zM114 219l66 67l-65 64l-14 -17v-97zM226 697h-110l69 -73l57 60z
M336 619l63 65l-13 13h-97l-12 -14zM570 38h141l-71 74zM101 566l14 -18l57 58l-71 74v-114zM336 116l-59 -68l12 -10h97l13 11zM227 38l16 10l-58 63l-69 -73h111zM416 38h124l12 16l-58 63zM727 170l-16 16l-56 -57l72 -75v116zM570 697l70 -74l71 74h-141zM727 566v114
l-72 -74l57 -58zM258 664l-53 -56l58 -65l58 58zM184 589l-51 -56l58 -66l58 58zM413 664l-58 -64l59 -64l60 64zM336 582l-53 -57l59 -65l57 57zM263 507l-51 -61l59 -62l57 57zM193 433l-59 -66l59 -66l65 66zM494 583l-61 -65l51 -57l62 64zM414 501l-53 -59l51 -57
l57 57zM341 425l-51 -58l51 -57l57 57zM272 351l-60 -65l51 -58l66 65zM566 508l-61 -66l50 -57l64 61zM485 425l-52 -58l51 -57l57 57zM413 350l-51 -58l51 -58l56 57zM343 276l-58 -65l51 -60l64 66zM634 433l-58 -66l62 -65l58 66zM556 350l-53 -58l63 -64l53 58z
M484 275l-51 -58l62 -65l51 58zM415 201l-60 -66l60 -64l61 65zM633 265l-53 -55l62 -64l52 58zM560 192l-51 -57l63 -64l51 58zM572 664l-62 -64l51 -58l62 65zM643 589l-60 -64l50 -58l61 64zM192 265l-59 -62l51 -58l65 65zM264 192l-58 -64l52 -59l63 65z" />
    <glyph glyph-name="triagup" unicode="&#x25b2;" horiz-adv-x="824" 
d="M414 639q81 -140 157.5 -277t154.5 -278h-617z" />
    <glyph glyph-name="uni25B3" unicode="&#x25b3;" horiz-adv-x="824" 
d="M414 639q81 -140 157.5 -277t154.5 -278h-617zM156 115h514l-256 463z" />
    <glyph glyph-name="uni25B6" unicode="&#x25b6;" horiz-adv-x="824" 
d="M693 367q-133 -82 -262.5 -164.5t-258.5 -160.5v650z" />
    <glyph glyph-name="uni25B7" unicode="&#x25b7;" horiz-adv-x="824" 
d="M693 367q-133 -82 -262.5 -164.5t-258.5 -160.5v650zM196 93l444 274l-444 273v-547z" />
    <glyph glyph-name="triagdn" unicode="&#x25bc;" horiz-adv-x="824" 
d="M414 83q-77 140 -153.5 277t-151.5 277h617z" />
    <glyph glyph-name="uni25BD" unicode="&#x25bd;" horiz-adv-x="824" 
d="M414 83q-77 140 -153.5 277t-151.5 277h617zM156 607l258 -463l256 463h-514z" />
    <glyph glyph-name="uni25C0" unicode="&#x25c0;" horiz-adv-x="824" 
d="M138 367q129 79 260 161t261 164v-650z" />
    <glyph glyph-name="uni25C1" unicode="&#x25c1;" horiz-adv-x="824" 
d="M138 367q129 79 260 161t261 164v-650zM631 93v547l-441 -273z" />
    <glyph glyph-name="uni25C6" unicode="&#x25c6;" horiz-adv-x="824" 
d="M100 367q80 85 157 167t157 166q82 -84 160.5 -166t155.5 -167q-77 -85 -155.5 -167.5t-160.5 -165.5z" />
    <glyph glyph-name="uni25C7" unicode="&#x25c7;" horiz-adv-x="824" 
d="M100 367q80 85 157 167t157 166q82 -84 160.5 -166t155.5 -167q-77 -85 -155.5 -167.5t-160.5 -165.5zM139 367l275 -294l278 294l-278 293z" />
    <glyph glyph-name="uni25C8" unicode="&#x25c8;" horiz-adv-x="824" 
d="M795 367q-99 -102 -192 -200t-189 -198q-93 99 -186.5 197.5t-189.5 199.5q96 101 189.5 199.5t186.5 199.5zM414 722l-338 -356l338 -354l340 354zM617 366q-51 -54 -100.5 -106t-102.5 -106q-49 54 -99.5 106t-98.5 106q48 53 98.5 104t99.5 106z" />
    <glyph glyph-name="circle" unicode="&#x25cb;" horiz-adv-x="824" 
d="M414 660q118 0 199 -86q79 -86 79 -207t-79 -210q-83 -84 -199 -84q-115 0 -195 84q-80 88 -80 210t80 207q78 86 195 86v0zM414 628q-100 0 -173 -76q-78 -79 -78 -185q0 -108 78 -187q72 -77 173 -77q104 0 176 77q74 79 74 187q0 106 -74 185q-73 76 -176 76v0z" />
    <glyph glyph-name="uni25CE" unicode="&#x25ce;" horiz-adv-x="824" 
d="M414 721q138 0 240 -104q98 -103 98 -250q0 -148 -98 -252q-101 -103 -240 -103q-135 0 -236 103q-101 104 -101 252q0 147 101 250q99 104 236 104v0zM414 691q-125 0 -219 -94q-87 -94 -87 -230q0 -138 87 -230q93 -94 219 -94q130 0 217 94q93 92 93 230
q0 136 -93 230q-87 94 -217 94v0zM414 592q91 0 155 -65q59 -65 59 -160t-59 -160q-64 -67 -155 -67q-86 0 -152 67q-63 65 -63 160t63 160q66 65 152 65v0zM414 564q-77 0 -129 -58q-58 -60 -58 -139q0 -82 58 -140q52 -57 129 -57q80 0 132 57q57 58 57 140q0 79 -57 139
q-52 58 -132 58v0z" />
    <glyph glyph-name="H18533" unicode="&#x25cf;" horiz-adv-x="824" 
d="M414 660q118 0 199 -86q79 -86 79 -207t-79 -210q-83 -84 -199 -84q-115 0 -195 84q-80 88 -80 210t80 207q78 86 195 86v0z" />
    <glyph glyph-name="uni25D0" unicode="&#x25d0;" horiz-adv-x="824" 
d="M415 720q137 0 239 -104q98 -103 98 -249q0 -74 -26.5 -136.5t-71.5 -114.5q-49 -50 -110.5 -77t-128.5 -27q-136 0 -237 104q-102 103 -102 251q0 147 102 250q100 103 237 103v0zM412 44q130 4 214 96q93 94 93 227q0 130 -93 224q-84 93 -214 97v-644z" />
    <glyph glyph-name="uni25D1" unicode="&#x25d1;" horiz-adv-x="824" 
d="M412 720q139 0 242 -103q99 -102 99 -250t-99 -251q-102 -104 -242 -104q-68 0 -128 27t-106 77q-47 52 -74 114.5t-27 136.5q0 146 101 249q99 104 234 104v0zM415 688q-124 -4 -216 -97q-87 -94 -87 -224q0 -132 87 -227q92 -92 216 -96v644z" />
    <glyph glyph-name="uni2605" unicode="&#x2605;" horiz-adv-x="824" 
d="M686 542q43 -30 32 -70t-73 -56q22 -51 -47 -124q80 39 92 39t19 -4q6 -3 9 -9t7 -16q3 -9 3 -23.5t-6 -22.5q-8 -12 -16.5 -20t-16.5 -8t-14 5.5t-6 13.5t8.5 11.5t19.5 12.5q15 14 6 31t-26 14q-10 -4 -26 -13t-23 -26q-8 -17 -7.5 -35t56.5 -94q-2 -23 1 -32t12 -19
q10 -12 27 -19q18 -8 27.5 -16.5t14.5 -18.5q6 -9 7.5 -17t-0.5 -20q19 -17 19 -26.5t-2 -21.5q-2 -11 -7 -20t-18 -27q-62 -8 -73 5t-11 17q-1 8 -7 18q-48 20 -40 74q3 18 -2.5 31t-12.5 21t-29 27q-9 21 -14.5 30.5t-16.5 27.5q-10 17 -30 36.5t-48 6.5
q-26 -12 -36.5 -31.5t-14.5 -28.5q-6 -10 -6 -28.5t26 -9.5q26 10 26.5 22.5t19.5 13.5q15 1 15 -7q0 -3 -4 -14t-12 -20t-29 -13t-36 1t-23 17.5t11 48.5q18 35 59 65q-36 8 -57 28q-20 -44 -68 -50.5t-75 47.5q-47 -33 -85 -16.5t-27 77.5q-54 -16 -79.5 16.5t14.5 86.5
q-59 14 -57.5 63t81.5 73q-51 42 -24.5 90.5t93.5 37.5q-18 68 27.5 97t91.5 5q25 55 73 58t68 -39q42 42 84 29t45 -68q48 20 80 -5.5t6 -85.5q47 1 63.5 -37t-38.5 -86zM161 387q23 -39 60 -63t83 -31q45 -8 94.5 1t97.5 36q46 27 79 65.5t48 82.5q16 42 14.5 86.5
t-24.5 84.5q-23 39 -60 63t-102 34l-198 -244l-4 3l196 243q-45 -2 -76 -8l-153 -189l-5 4l152 187q-59 -22 -85 -36q-46 -27 -79 -65.5t-48 -81.5q-16 -43 -14.5 -87.5t24.5 -84.5zM575 262q-29 -8 -8 -40.5t72 -111.5q-6 -35 18 -55t46 -28q15 -6 16 -11q2 -47 38 -79
l27 19q9 28 -13 50q-3 32 -25 51q-34 15 -47.5 25t-15.5 20q-3 11 0 36q-85 149 -108 124z" />
    <glyph glyph-name="uni2606" unicode="&#x2606;" horiz-adv-x="824" 
d="M704 546q45 -31 33.5 -73.5t-76.5 -59.5q56 -49 -33 -126q43 58 101 33q41 -22 12 -77q-8 -11 -15.5 -19.5t-16.5 -8.5q-10 0 -12 1t-2 8t9 12.5t20 19.5q13 19 1.5 35t-29.5 16q-49 -1 -55 -42q-5 -69 40 -123q-1 -64 58 -86q41 -14 46 -75q39 -50 -4 -100
q-84 -11 -96 42q-53 22 -44 79q8 50 -46 84q-10 21 -15.5 31t-15.5 28q-12 20 -36.5 35t-52.5 2q-27 -13 -37 -24t-14 -21q-7 -13 4 -32.5t32 -14.5q24 9 24 25t12 16q17 1 16 -12q1 -5 -3.5 -16t-12.5 -20q-9 -10 -31.5 -14t-38.5 2q-15 4 -26 25t0 48q19 37 87 61
q-49 11 -71 32q-21 -46 -71.5 -53t-79.5 50q-49 -35 -89 -17.5t-30 81.5q-55 -17 -82 17.5t14 91.5q-61 14 -59.5 66t83.5 77q-52 44 -24 95.5t99 40.5q-19 71 29 101.5t96 5.5q26 58 77 61t72 -41q44 44 88.5 30.5t47.5 -71.5q50 21 84 -6t7 -90q49 1 66.5 -39.5
t-40.5 -90.5zM161 387q23 -39 60 -63t83 -31q45 -8 94.5 1t97.5 36q46 27 79 65.5t48 82.5q16 42 14.5 86.5t-24.5 84.5q-23 39 -60 63t-102 34l-198 -244l-4 3l196 243q-45 -2 -76 -8l-153 -189l-5 4l152 187q-59 -22 -85 -36q-46 -27 -79 -65.5t-48 -81.5
q-16 -43 -14.5 -87.5t24.5 -84.5zM610 97q23 -10 27 -18t12 -18t10.5 -24.5t0.5 -32.5q-4 -16 -1 -30t12 -24q37 -13 37 -41q36 -25 63 -11q24 21 13 52q-18 13 -15 36q-3 32 -35 53q-17 5 -31 16t-20 22q-18 27 -18 54zM656 148q-52 84 -29 141q-42 -16 -71 13
q16 -63 -37 -90q33 -11 49 -37t38 -62zM559 729q44 -30 70 -72q78 47 28 96q-45 36 -98 -24zM450 764q52 -6 96 -27q47 75 -22 94q-57 11 -74 -67zM634 647q20 -43 19 -95q88 9 75 73q-24 54 -94 22zM518 327q-42 -30 -96 -42q12 -80 87 -48q51 32 9 90zM611 420
q-28 -42 -74 -81q66 -52 105 -1q31 54 -31 82zM652 533q-6 -47 -29 -98q78 -20 97 38q4 60 -68 60zM275 280q-46 12 -88 45q-50 -58 2 -95q61 -18 86 50zM326 751q49 16 103 15q6 81 -63 70q-57 -15 -40 -85zM400 278q-52 -11 -104 -2q-23 -78 49 -77q60 8 55 79zM209 683
q41 37 91 58q-29 65 -86 39q-50 -39 -5 -97zM121 432q-9 43 -4 96q-67 8 -79 -50q0 -60 83 -46zM176 332q-32 33 -51 83q-64 -24 -50 -76q26 -51 101 -7zM131 566q14 40 53 94q-63 28 -93 -23q-28 -52 40 -71z" />
    <glyph glyph-name="uni260E" unicode="&#x260e;" horiz-adv-x="824" 
d="M648 406q-23 1 -33 9t-18 25q15 -4 23 -6t22 -3q9 -2 20.5 -2.5t25.5 -1.5t37.5 0.5t35.5 3.5q-2 -19 -18 -22.5t-29 -4.5zM118 404q-13 1 -28 4t-16 23q9 -2 31 -3.5t41 -0.5q12 1 25 1.5t20 2.5q13 1 21.5 3t18.5 6q-4 -17 -14 -25t-33 -9zM185 106q-5 0 -5 1
q-1 1 -5 30q-2 12 -3 22.5t-1 16.5q13 47 30 96t29 96q12 23 20 28v-1q7 5 26 25q10 9 13.5 15.5t4.5 8.5h-1q6 8 6 30v46q-19 -2 -37.5 -19.5t-26.5 -37.5q-22 -6 -39.5 -8.5t-46.5 -8.5q-16 0 -39.5 1t-33.5 7q1 27 6 46.5t16 36.5q6 11 25.5 23t39.5 20q60 13 129 23.5
t123 10.5q59 0 127 -10.5t123 -23.5q27 -8 45 -20t24 -23q19 -29 24 -83q-15 -6 -37 -7t-37 -1q-17 2 -26 4l-18 4q-14 2 -22.5 4t-24.5 5q-2 20 -20.5 37.5t-39.5 19.5v-46q0 -22 2 -28q2 -1 7.5 -9t13.5 -17q13 -10 18.5 -16t8.5 -9q8 -6 19 -27q15 -47 30.5 -96t28.5 -96
q0 -6 -1 -16.5t-3 -22.5q-2 -17 -2 -22.5t-1 -7.5q0 -1 -2.5 -1h-4.5h-462zM415 430q-20 0 -38 -9.5t-39 -22.5q-32 -32 -32 -79q0 -46 31 -82q30 -35 75 -35q49 0 77 33q32 32 32 82q0 45 -28 79q-32 34 -78 34v0zM414 535q-18 0 -38.5 -2t-38.5 -4q-1 0 -4 -0.5l-3 -0.5
l9 -70q21 1 40.5 2.5t34.5 2.5l74 -4l14 70q-1 0 -4 0.5t-4 0.5q-19 1 -37.5 3.5t-42.5 1.5v0z" />
    <glyph glyph-name="uni260F" unicode="&#x260f;" horiz-adv-x="824" 
d="M185 108q-5 0 -5 1q-1 1 -5 29q-2 12 -3 22t-1 16q13 47 30 96t29 96q11 18 18.5 26t14.5 16q5 2 13 10q17 15 19 23q2 3 3 11.5t1 19.5v46q-30 -6 -43.5 -21.5t-20.5 -36.5q-6 -33 -16 -44t-35 -12l-66 -2q-14 -1 -36 6q-12 8 -6 42q0 28 6 48t20 37q10 14 26 24t35 17
q61 15 128.5 25.5t123.5 10.5q61 0 128 -10.5t122 -25.5q49 -13 68.5 -41.5t24.5 -88.5q6 -29 -8 -38q-20 -7 -36 -6l-66 2q-24 1 -34.5 13t-20.5 44q-3 20 -18 36t-42 21v-46q0 -22 3 -31q2 -4 6.5 -10t13.5 -13q5 -8 13 -10q10 -7 16 -16t17 -26q15 -47 30.5 -96t28.5 -96
q0 -6 -1 -16t-3 -22q-2 -13 -2 -20t-1 -9q0 -1 -2.5 -1h-4.5h-462zM415 592q-49 0 -106 -5t-110 -18q-21 -7 -38.5 -14.5t-29.5 -18.5q-16 -11 -22.5 -27t-9.5 -40q-8 -30 -1 -39.5t26 -8.5l55 2q16 0 26 11t16 42q4 32 35 45q29 17 64 24q18 3 46 5.5t49 2.5q24 0 51 -2
t46 -6q35 -7 67 -24q28 -13 35 -45q5 -31 12.5 -42t28.5 -11q10 0 23.5 -1t26.5 -1q22 -1 27.5 8.5t0.5 39.5q-4 24 -10 40t-21 27q-10 11 -28.5 18.5t-43.5 14.5q-47 13 -105 18t-110 5v0zM192 129h448l5 43l-60 178q-8 29 -24 42q-3 3 -7.5 6.5t-7.5 6.5q0 1 -3 3t-6 3
q-19 15 -23 30.5t-4 36.5v51h-5q-2 0 -4 0.5t-4 0.5q-2 -16 -6 -31.5t-7 -29.5q-9 0 -28 1.5t-42 1.5q-12 0 -24.5 -0.5t-23.5 -2.5q-4 0 -8.5 -0.5t-8.5 -0.5l-15 63l-12 -2v-51q0 -21 -4 -36.5t-23 -30.5q-2 0 -4 -2.5t-5 -3.5q-3 -3 -9.5 -6.5t-8.5 -6.5q-10 -13 -21 -42
l-60 -178zM414 489q15 0 31 -0.5t27 -5.5l4 51q-3 1 -22 2t-40 1q-17 0 -35.5 -1t-24.5 -2l7 -51q10 5 25.5 5.5t27.5 0.5v0zM415 425q45 0 71 -32q30 -32 30 -76q0 -47 -31 -79q-27 -31 -73 -31q-43 0 -72 34q-26 34 -26 78q0 45 28 76q32 30 73 30v0zM415 406
q-15 0 -32 -6.5t-25 -17.5q-15 -13 -21.5 -29t-6.5 -34q0 -19 6 -36.5t20 -28.5q10 -12 25.5 -20.5t30.5 -8.5q37 0 63 26.5t26 65.5q0 18 -8.5 34t-18.5 29q-9 12 -24.5 19t-34.5 7v0z" />
    <glyph glyph-name="uni261C" unicode="&#x261c;" horiz-adv-x="824" 
d="M622 505h105v-279h-105v39h-8h-26.5t-35.5 -9q-49 -27 -85 -27h-43.5h-42.5q-9 -10 -21 -14.5t-28 -4.5q-25 0 -63 15q-35 15 -35 48q0 9 7.5 18.5t16.5 12.5q-6 9 -8 16t-2 13q0 13 6.5 22.5t21.5 15.5q-7 3 -9.5 9.5t-2.5 10.5q0 9 4 17.5t14 14.5q-23 2 -46.5 3
t-47.5 3q-7 0 -23 1.5t-32 4.5q-36 7 -36 45q0 27 29 33q34 6 62 7q33 0 67.5 2.5t67.5 2.5l74 -4q6 10 17.5 13t21.5 3q42 0 81 -22h-1q19 -9 34.5 -17t29.5 -17v0q3 -1 5 -3.5t6 -3.5l6 -3q7 -2 11.5 -2.5t13.5 -0.5v37zM680 245v240h-38v-240h38zM622 452h-8h-12t-10 2
q-12 7 -31.5 17.5t-43.5 24.5q-41 24 -79 24q-17 0 -26.5 -6.5t-22.5 -18.5q-12 -12 -20.5 -22t-18.5 -21q-10 -7 -16.5 -16t-6.5 -18q0 -12 13 -18.5t22 -6.5q12 0 26 8t22 17l-1 -1q2 1 2 1.5t2 1.5q11 7 18 15.5t16 16.5q2 -6 3.5 -6t6.5 -2l-36 -42q7 -5 15 -16.5
t14 -18.5q1 0 9 -0.5t17 -2.5q11 -2 23 -2t24 1q17 2 30 5t22 6h5q1 0 1 -0.5t2 -1.5v-4q-2 -1 -6 -2.5t-17 -4.5q-18 -8 -31 -10q-12 -1 -19 -1h-14h-24t-12 1q-11 -21 -18 -31t-31 -18q0 -11 -4.5 -24t-18.5 -15v-18q9 -1 17.5 -1.5t20.5 -0.5q31 0 62 6t62 22
q20 9 36 10.5t30 1.5h6v169zM320 439l65 69h-78l-118 -1q1 0 -5 -0.5t-11 -1.5t-13.5 -1t-12.5 -1q-35 -2 -35 -25q0 -21 21 -30q8 -2 14.5 -3t12.5 -2l109 -4h51zM360 381q-21 0 -34 9.5t-29 25.5q-4 -6 -7.5 -10.5t-3.5 -12.5q0 -9 3.5 -16t10.5 -12q7 -6 16.5 -10
t13.5 -6q3 -2 13.5 -6.5t22.5 -9.5q32 -11 40 -11q15 0 23.5 7.5t8.5 22.5q0 12 -12.5 25.5t-23.5 13.5q-2 0 -4 -1t-5 -2q-6 -3 -16 -5t-17 -2v0zM397 301q-1 9 -6.5 11t-13.5 3q-7 2 -16 6.5t-23 9.5q-8 4 -16.5 9t-18.5 9v-1q-2 2 -7.5 4.5t-9.5 2.5q-9 0 -16 -6t-7 -16
q0 -13 12 -24t20 -16q14 -6 36 -11q27 -6 40 -6q15 0 21.5 7t4.5 18v0zM357 262q-33 3 -55 14t-41 23q-3 2 -6 -7.5t-2 -21.5q3 -24 35 -36q32 -13 44 -13t25.5 4t13.5 22q0 9 -3.5 11.5t-10.5 3.5v0z" />
    </font>
</defs>
</svg>
